SplineFontDB: 3.0
FontName: Edufun
FullName: Edufun
FamilyName: Edufun
Weight: Regular
Copyright: Copyright (c) 2019, Yuriy Zhdanov
UComments: "2019-5-17: Created with FontForge (http://fontforge.org)"
Version: 001.000
ItalicAngle: 0
UnderlinePosition: 0
UnderlineWidth: 0
Ascent: 800
Descent: 200
InvalidEm: 0
LayerCount: 3
Layer: 0 0 "Back" 1
Layer: 1 0 "Fore" 0
Layer: 2 0 "Back 2" 1
XUID: [1021 606 -1263197008 3530328]
StyleMap: 0x0000
FSType: 0
OS2Version: 0
OS2_WeightWidthSlopeOnly: 0
OS2_UseTypoMetrics: 1
CreationTime: 1558080754
ModificationTime: 1591149190
OS2TypoAscent: 0
OS2TypoAOffset: 1
OS2TypoDescent: 0
OS2TypoDOffset: 1
OS2TypoLinegap: 90
OS2WinAscent: 0
OS2WinAOffset: 1
OS2WinDescent: 0
OS2WinDOffset: 1
HheadAscent: 0
HheadAOffset: 1
HheadDescent: 0
HheadDOffset: 1
MarkAttachClasses: 1
DEI: 91125
Encoding: Custom
UnicodeInterp: none
NameList: AGL For New Fonts
DisplaySize: -48
AntiAlias: 1
FitToEm: 0
WinInfo: 87 3 14
BeginPrivate: 0
EndPrivate
Grid
-1000 320 m 0
 2000 320 l 1024
-1000 1322 m 0
 2000 1322 l 1024
-1000 700 m 0
 2000 700 l 1024
  Named: "700"
-820.03125 1300 m 0
 -820.03125 -700 l 1024
EndSplineSet
BeginChars: 139 157

StartChar: NameMe.29
Encoding: -1 -1 1
Width: 459
VWidth: 0
Flags: W
HStem: 2 74<317.112 405.954>
VStem: 50 91<244.94 486.716>
LayerCount: 3
Fore
SplineSet
242 33 m 5
 193 52 134 97 122 125 c 5
 89 170 70 228 60 265 c 4
 50 302 53 329 50 360 c 4
 50 367 50 374 50 381 c 0
 50 567 165 643 237 677 c 4
 262 686 286 700 331 703 c 5
 371 700 384 706 398 685 c 4
 404 676 407 668 407 661 c 0
 407 599 183 633 151 447 c 4
 143 400 141 379 141 358 c 0
 141 347 141 336 142 322 c 5
 165 168 263 109 380 76 c 5
 396 67 405 72 409 40 c 5
 410 12 387 2 356 2 c 0
 317 2 266 18 242 33 c 5
EndSplineSet
Validated: 33
EndChar

StartChar: NameMe.30
Encoding: -1 -1 2
Width: 523
VWidth: 0
Flags: W
HStem: 1 91<147.079 290.4> 622 78<134 280.428>
VStem: 50 86<431.001 621.947> 57 89<91.6623 590.067> 387 86<196.654 506.824>
LayerCount: 3
Fore
SplineSet
66 26 m 5xe8
 59 78 57 130 57 180 c 0
 57 230 59 277 59 317 c 0
 59 337 58 357 57 373 c 4xd8
 55 383 55 407 55 426 c 4
 52 534 52 558 50 618 c 4
 50 624 50 629 50 634 c 0
 50 675 60 695 81 699 c 5
 99 700 117 700 134 700 c 0
 406 700 463 607 472 373 c 4
 473 359 473 347 473 336 c 0
 473 295 467 274 464 232 c 5
 432 116 432 71 283 15 c 5
 257 7 203 1 156 1 c 0
 108 1 66 7 66 26 c 5xe8
374 232 m 5
 382 285 387 336 387 382 c 0
 387 522 339 622 170 622 c 0
 159 622 149 622 137 621 c 5
 137 613 136 603 136 592 c 0xe8
 136 551 139 495 143 470 c 4
 146 430 147 378 147 325 c 0
 147 255 146 181 146 127 c 0
 146 114 146 102 146 92 c 5
 160 90 173 90 186 90 c 0
 303 90 365 154 374 232 c 5
EndSplineSet
Validated: 1
EndChar

StartChar: NameMe.27
Encoding: -1 -1 3
Width: 614
VWidth: 0
Flags: W
HStem: 2 21G<506 522.5> 177 52<236.18 387.543>
LayerCount: 3
Fore
SplineSet
488 10 m 0
 465 43 460 29 446 98 c 0
 442 127 430 149 423 158 c 0
 408 173 381 177 349 177 c 0
 305 177 254 168 224 164 c 0
 124 152 159 26 81 16 c 1
 60 19 52 33 51 50 c 0
 51 52 l 0
 51 53 51 55 51 56 c 0
 51 80 61 107 67 118 c 0
 141 257 183 438 229 572 c 0
 236 591 243 615 255 638 c 0
 280 678 303 695 324 695 c 0
 432 695 499 252 535 146 c 1
 547 96 566 69 564 40 c 0
 565 15 534 2 511 2 c 0
 501 2 491 4 488 10 c 0
374 248 m 0
 389 250 403 254 403 268 c 0
 403 346 376 455 340 504 c 0
 333 515 326 524 319 524 c 0
 315 524 312 522 308 516 c 0
 294 495 228 366 228 287 c 0
 228 274 230 263 234 253 c 0
 245 235 262 229 281 229 c 0
 312 229 348 245 374 248 c 0
EndSplineSet
Validated: 33
EndChar

StartChar: NameMe.31
Encoding: -1 -1 4
Width: 472
VWidth: 0
Flags: W
HStem: 0 85<144.922 406.994> 4 89<220.975 409.823> 600 99<184.71 402.719>
VStem: 57 73<402.653 598.825> 66 79<108.898 272.994>
LayerCount: 3
Fore
SplineSet
66 125 m 5xa8
 66 252 62 402 57 523 c 5
 53 557 50 584 50 606 c 0
 50 662 68 681 125 688 c 5
 163 688 252 699 322 699 c 0
 368 699 406 694 414 678 c 5
 420 668 423 659 423 651 c 0
 423 606 327 600 254 600 c 0
 224 600 199 601 184 601 c 5
 159 597 143 605 138 586 c 4
 134 550 130 516 130 485 c 0
 130 425 145 382 203 382 c 0
 211 382 221 383 231 385 c 4
 248 389 275 392 300 392 c 0
 340 392 379 384 379 353 c 0
 379 349 379 344 377 339 c 5
 364 257 160 334 130 261 c 5xb0
 134 203 145 178 145 140 c 0
 145 131 145 120 143 109 c 5
 154 90 184 85 219 85 c 0xa8
 261 85 311 93 342 93 c 0
 343 93 344 93 345 93 c 4
 346 93 347 93 348 93 c 0
 381 93 423 76 419 46 c 5
 409 14 394 6 366 4 c 4
 361 4 357 4 352 4 c 0x68
 292 4 241 0 199 0 c 0
 113 0 65 16 65 108 c 0
 65 114 66 119 66 125 c 5xa8
EndSplineSet
Validated: 33
EndChar

StartChar: NameMe.32
Encoding: -1 -1 5
Width: 462
VWidth: 0
Flags: W
HStem: 1 21G<111.5 121.5> 317 88<210.119 396.848> 325 75<145.086 301.512> 598 94<163.727 399.144> 602 97<151.283 326.104> 609 84<294.406 404.282>
VStem: 50 88<437.899 614> 57 88<63.2671 322 402.313 513.218> 66 77<20 60.8787 63.2671 241.596>
LayerCount: 3
Fore
SplineSet
93 5 m 4xa080
 83 10 66 20 66 20 c 4xa080
 60 65 58 154 58 239 c 0
 58 255 58 271 58 286 c 4
 58 297 57 327 57 327 c 6
 56 343 55 358 55 372 c 0
 55 399 57 425 57 454 c 0xa1
 57 474 56 495 54 520 c 4
 51 544 50 570 50 593 c 0
 50 635 54 669 61 671 c 5
 64 693 108 699 161 699 c 0xaa
 219 699 288 692 328 692 c 0
 332 692 336 692 339 692 c 5x92
 344 693 349 693 353 693 c 0
 386 693 413 674 413 648 c 5
 409 622 402 619 375 609 c 4x86
 353 601 323 598 293 598 c 0x92
 256 598 218 602 191 602 c 0
 185 602 179 601 174 601 c 5
 145 588 138 552 138 515 c 0x8a
 138 477 145 438 145 420 c 0
 145 418 145 416 145 414 c 0
 145 403 172 400 208 400 c 0xa9
 253 400 311 405 351 405 c 0
 376 405 394 403 397 397 c 4
 406 382 410 370 410 360 c 0
 410 325 360 317 304 317 c 0xc1
 251 317 193 325 166 325 c 0
 162 325 158 324 156 324 c 4
 152 323 148 322 146 322 c 4
 143 290 142 266 142 243 c 0
 142 213 144 186 147 150 c 4
 151 118 152 89 152 62 c 4
 152 38 151 19 143 8 c 4
 137 3 127 1 116 1 c 0
 107 1 98 2 93 5 c 4xa080
EndSplineSet
Validated: 1
EndChar

StartChar: NameMe.33
Encoding: -1 -1 6
Width: 619
VWidth: 0
Flags: W
HStem: 2 76<270.252 456.558> 294 88<386.95 501.805> 614 87<292.716 485.621> 623 78<319.601 485.621>
VStem: 383 186<294.289 367.627> 503 57<127.056 292.334>
LayerCount: 3
Fore
SplineSet
192 45 m 4xe4
 161 77 170 56 139 89 c 4
 93 171 77 239 55 322 c 4
 51 339 50 355 50 372 c 0
 50 448 84 518 101 540 c 4
 104 549 109 557 113 560 c 4
 180 657 266 701 414 701 c 4
 417 701 421 701 425 701 c 0
 434 701 442 701 451 701 c 0xe4
 465 701 478 700 486 693 c 4
 494 680 498 669 498 660 c 0
 498 637 479 625 471 623 c 4xd4
 447 615 447 619 406 614 c 4
 303 609 263 585 216 535 c 4
 171 492 150 446 141 382 c 4
 144 359 141 298 154 273 c 4
 172 218 182 186 210 156 c 5
 235 103 305 78 369 78 c 0
 423 78 472 96 483 132 c 4
 498 167 493 183 501 228 c 4
 502 240 503 251 503 260 c 0xe4
 503 279 499 292 485 293 c 4
 483 293 480 294 477 294 c 0
 464 294 445 290 428 290 c 0
 407 290 389 295 385 318 c 4
 383 327 383 335 383 341 c 0
 383 379 409 370 435 378 c 4
 441 380 452 382 465 382 c 0
 505 382 565 370 569 350 c 4xe8
 566 277 568 286 565 215 c 4
 562 190 560 172 560 157 c 4
 543 41 476 30 405 4 c 4
 396 3 384 2 371 2 c 0
 313 2 230 16 192 45 c 4xe4
EndSplineSet
Validated: 1
EndChar

StartChar: NameMe.34
Encoding: -1 -1 7
Width: 529
VWidth: 0
Flags: W
HStem: 1 21G<429.5 460> 302 94<161.246 393.999> 680 20G<95.5 106>
VStem: 59 85<4.02161 141.948> 59 78<4.02161 277.848 396.488 646.298> 386 93<529.172 693.387> 401 78<3.64404 303.986>
LayerCount: 3
Fore
SplineSet
87 1 m 5xf0
 62 10 66 30 62 44 c 4
 60 72 59 108 59 135 c 0xf0
 59 144 59 152 59 159 c 4xe8
 59 308 59 464 53 610 c 4
 51 618 50 632 50 647 c 0
 50 669 53 693 64 695 c 4
 74 696 89 700 102 700 c 0
 110 700 118 698 121 692 c 5
 142 669 143 628 143 592 c 0
 143 590 143 588 143 586 c 0
 143 574 143 562 144 552 c 4
 145 513 146 481 146 451 c 4
 146 443 146 406 150 396 c 5
 175 395 195 394 212 394 c 0
 260 394 288 398 345 398 c 0
 359 398 374 397 392 397 c 4
 393 397 394 401 394 406 c 4
 391 435 390 460 390 485 c 0
 390 500 390 513 390 528 c 0
 390 553 389 578 386 606 c 5
 388 650 383 699 428 699 c 0
 433 699 439 698 446 697 c 5
 473 696 479 652 479 604 c 0xf4
 479 566 475 526 475 503 c 4
 475 500 475 495 475 492 c 4
 477 342 478 173 479 68 c 4
 479 61 479 54 479 48 c 0
 479 1 474 2 446 1 c 4
 413 3 407 2 401 52 c 5
 401 62 401 71 401 81 c 0
 401 143 397 208 397 265 c 0
 397 278 398 290 398 302 c 5
 373 305 354 306 339 306 c 0
 308 306 290 302 257 302 c 4
 251 302 245 302 240 302 c 0
 125 302 139 242 137 144 c 5xea
 142 100 140 70 144 58 c 5
 144 55 144 52 144 49 c 0
 144 14 126 -1 102 -1 c 0
 97 -1 92 0 87 1 c 5xf0
EndSplineSet
Validated: 1
EndChar

StartChar: NameMe.35
Encoding: -1 -1 8
Width: 361
VWidth: 0
Flags: W
HStem: 1 85<55.9919 143> 618 83<72.1388 148 212 306.324> 618 76<65.4248 148 212 306.324>
VStem: 143 72<87 617.957>
LayerCount: 3
Fore
SplineSet
70 80 m 4xd0
 85 85 112 86 130 86 c 0
 135 86 139 86 143 86 c 5
 149 256 145 460 148 618 c 5
 144 618 139 618 135 618 c 0
 123 618 112 618 102 618 c 0xd0
 87 618 74 619 65 627 c 4
 55 636 51 649 51 662 c 0
 51 677 57 691 71 694 c 4xb0
 95 701 138 701 181 701 c 4
 219 701 264 700 286 696 c 4
 305 692 311 677 311 662 c 0
 311 647 305 633 298 629 c 5
 289 617 241 621 212 618 c 5
 212 619 213 619 213 619 c 0
 216 619 217 561 217 484 c 0
 217 377 215 233 215 150 c 0
 215 117 215 94 216 87 c 5
 224 87 233 87 242 87 c 0
 255 87 270 87 284 85 c 4
 299 81 308 62 308 43 c 0
 308 24 300 6 283 2 c 5
 246 2 202 1 164 1 c 0
 117 1 79 2 72 4 c 5
 55 15 50 28 50 41 c 0
 50 60 63 78 70 80 c 4xd0
EndSplineSet
Validated: 5
EndChar

StartChar: NameMe.36
Encoding: -1 -1 9
Width: 310
VWidth: 0
Flags: W
HStem: 1 78<52.3318 126.999> 681 20G<211 224>
VStem: 177 83<525.374 697.957> 186 74<126.639 639.165>
LayerCount: 3
Fore
SplineSet
52 19 m 5xd0
 51 28 50 36 50 43 c 0
 50 64 56 75 71 79 c 5
 72 79 73 79 74 79 c 0
 84 79 111 87 134 100 c 4
 157 112 174 135 176 157 c 4
 183 198 186 237 186 278 c 0xd0
 186 309 184 340 183 374 c 5
 184 385 184 396 184 408 c 0
 184 446 181 487 181 519 c 4
 181 521 181 522 181 524 c 0
 181 553 177 602 177 641 c 0
 177 672 180 696 189 697 c 4
 196 699 206 701 216 701 c 0
 232 701 249 697 255 687 c 5
 259 673 260 658 260 642 c 0xe0
 260 625 259 609 259 593 c 0
 259 588 259 584 259 579 c 4
 259 510 260 439 260 369 c 0
 260 281 259 194 253 110 c 5
 240 72 226 66 227 65 c 5
 207 39 162 26 146 15 c 4
 144 13 139 11 135 11 c 4
 131 11 127 10 127 10 c 4
 127 10 125 9 124 9 c 4
 110 4 98 1 87 1 c 0
 71 1 59 7 52 19 c 5xd0
EndSplineSet
Validated: 33
EndChar

StartChar: NameMe.37
Encoding: -1 -1 10
Width: 556
VWidth: 0
Flags: W
HStem: 0 21G<445.5 459.5> 681 20G<93.5 116.5>
VStem: 50 74<461.423 690.466> 52 81<18.8301 297.607 381 691.611> 408 57<662.441 681.413>
LayerCount: 3
Fore
SplineSet
78 9 m 5xd8
 56 8 51 52 51 96 c 0
 51 126 54 156 54 171 c 4
 54 176 54 181 54 183 c 4
 52 232 53 212 52 258 c 4
 52 283 52 310 52 337 c 0xd8
 52 452 50 575 50 666 c 0
 50 684 87 700 100 701 c 4
 101 701 103 701 104 701 c 0
 129 701 114 683 124 673 c 5xe8
 133 628 134 567 134 517 c 0
 134 508 134 499 134 491 c 5
 132 480 131 470 131 461 c 0
 131 448 133 437 133 426 c 0
 133 422 133 418 132 414 c 4
 131 410 131 406 131 402 c 0
 131 394 132 387 132 381 c 5
 146 402 149 401 163 422 c 5
 193 452 200 473 219 494 c 4
 224 499 228 504 228 505 c 4
 228 506 233 513 240 519 c 4
 247 525 260 537 268 545 c 4
 325 613 346 634 408 678 c 4
 408 680 414 683 421 685 c 4
 426 686 429 687 432 687 c 0
 438 687 442 683 455 670 c 5
 461 668 465 663 465 656 c 0
 465 641 451 618 425 593 c 5
 373 530 316 477 263 420 c 4
 255 408 231 380 229 374 c 5
 237 351 260 333 273 314 c 4
 308 270 324 248 352 215 c 4
 401 153 432 118 473 74 c 4
 487 63 506 51 506 39 c 4
 506 32 505 25 503 23 c 4
 501 21 499 17 499 16 c 4
 483 5 467 0 452 0 c 0
 439 0 426 4 415 12 c 5
 402 29 372 50 361 65 c 4
 320 121 303 131 283 167 c 4
 277 177 269 186 263 194 c 4
 248 213 242 223 227 239 c 4
 220 247 213 254 213 255 c 4
 204 267 190 271 180 286 c 5
 170 296 172 303 168 303 c 0
 166 303 164 301 158 299 c 4
 151 296 133 287 133 279 c 0
 133 278 134 278 134 277 c 5
 133 263 133 249 133 235 c 0
 133 189 137 141 137 97 c 0
 137 76 136 57 133 39 c 5
 120 25 112 16 96 11 c 4
 86 8 84 8 78 9 c 5xd8
EndSplineSet
Validated: 37
EndChar

StartChar: NameMe.38
Encoding: -1 -1 11
Width: 475
VWidth: 0
Flags: W
HStem: 2 82<140.428 411.974> 11 79<360.749 417.626> 681 20G<96 108>
VStem: 51 87<86.41 677.461> 59 81<493.074 694.757>
LayerCount: 3
Fore
SplineSet
86 5 m 4xb0
 61 9 53 11 51 32 c 4
 50 52 50 67 50 82 c 0
 50 111 51 138 51 195 c 4
 51 216 51 239 51 263 c 0
 51 343 50 437 50 492 c 0
 50 515 50 532 51 538 c 5
 51 550 51 562 51 573 c 0xb0
 51 624 52 667 59 678 c 4
 70 694 88 701 104 701 c 0
 112 701 120 699 126 695 c 4
 134 690 140 673 140 659 c 0xa8
 140 655 139 650 138 647 c 5xb0
 139 627 140 607 140 589 c 0xa8
 140 561 139 536 139 513 c 0
 139 508 139 503 139 498 c 4
 139 392 139 303 136 215 c 5
 138 201 138 188 138 176 c 0
 138 163 138 150 138 138 c 0
 138 123 139 107 142 89 c 5
 163 85 186 84 210 84 c 0xb0
 262 84 318 90 362 90 c 0
 364 90 367 90 369 90 c 4
 377 90 384 90 390 90 c 0
 403 90 410 89 418 83 c 5
 422 67 425 55 425 44 c 0
 425 33 422 24 413 11 c 5x70
 391 4 376 2 360 2 c 0
 348 2 335 3 320 3 c 0
 312 3 303 3 293 2 c 4
 285 1 276 1 267 1 c 0
 249 1 232 2 220 2 c 4
 196 2 172 1 149 1 c 0
 126 1 104 2 86 5 c 4xb0
EndSplineSet
Validated: 1
EndChar

StartChar: NameMe.39
Encoding: -1 -1 12
Width: 622
VWidth: 0
Flags: W
HStem: 1 21G<110 121 530 550.5> 680 20G<83.5 88 526 542.5>
VStem: 50 86<57.8404 449> 483 87<193.801 449.859> 497 75<12.1875 271.73>
LayerCount: 3
Fore
SplineSet
83 7 m 4xf0
 69 13 54 40 52 66 c 4
 51 77 51 80 50 90 c 4
 52 145 53 195 53 242 c 0
 53 329 50 404 50 478 c 0
 50 496 51 514 51 532 c 4
 54 583 47 679 65 692 c 5
 77 698 81 700 86 700 c 0
 90 700 94 699 105 698 c 4
 118 696 122 696 130 692 c 4
 141 679 141 673 144 669 c 4
 199 513 259 334 303 194 c 4
 309 183 307 178 317 181 c 5
 324 189 335 212 341 223 c 4
 390 382 407 454 451 629 c 4
 457 642 471 685 475 689 c 5
 488 693 516 701 536 701 c 0
 549 701 559 697 559 687 c 4
 561 670 561 658 562 643 c 4
 568 555 570 471 570 392 c 0
 570 321 569 254 569 191 c 0
 569 158 569 126 570 95 c 4xf0
 570 84 571 73 571 70 c 4
 572 58 572 48 572 40 c 0
 572 37 572 34 572 31 c 4
 566 8 566 1 535 1 c 4
 525 1 505 1 500 12 c 4
 497 16 497 20 497 31 c 4xe8
 488 186 492 285 483 442 c 4
 485 444 485 447 482 450 c 4
 478 454 477 453 475 444 c 4
 424 283 428 222 368 115 c 4
 361 104 362 102 354 92 c 4
 345 79 339 75 329 72 c 4
 206 75 191 428 138 449 c 5
 137 426 136 402 136 377 c 0
 136 316 139 253 139 208 c 0
 139 203 139 199 139 195 c 4
 139 193 139 190 139 187 c 0
 139 151 143 95 143 56 c 0
 143 37 142 22 139 17 c 5
 136 5 127 1 115 1 c 0
 105 1 93 4 83 7 c 4xf0
EndSplineSet
Validated: 1
EndChar

StartChar: NameMe.40
Encoding: -1 -1 13
Width: 564
VWidth: 0
Flags: W
HStem: 2 20G<84 98 444 474> 681 20G<483 491.5>
VStem: 51 80<61.0041 558.265> 53 105<7.50534 194.785> 425 86<239.221 679.321> 441 70<103.059 360.66 491.279 697.237>
LayerCount: 3
Fore
SplineSet
65 5 m 1xd0
 59 12 62 7 59 17 c 0
 57 52 53 75 53 100 c 0
 53 104 53 108 53 112 c 0
 53 118 53 124 53 130 c 0xd0
 53 159 54 185 54 204 c 0
 54 208 54 212 54 215 c 0
 52 241 51 265 51 289 c 0xe0
 51 324 52 358 52 394 c 0
 52 403 52 413 52 423 c 0
 49 425 50 425 52 426 c 0
 52 463 52 505 52 543 c 0
 52 581 52 613 53 629 c 0
 54 643 55 656 56 657 c 0
 58 659 56 661 56 663 c 0
 56 670 71 686 77 688 c 0
 105 686 138 687 144 680 c 0
 236 565 248 418 325 299 c 0
 346 267 372 228 389 204 c 0
 410 179 423 143 441 118 c 0
 448 110 450 106 450 104 c 0
 449 103 l 0
 447 103 442 111 441 125 c 0xd4
 438 235 425 367 425 488 c 0
 425 558 430 625 443 682 c 0
 448 692 463 699 472 699 c 0
 476 699 482 700 484 701 c 0
 499 694 509 697 512 672 c 0
 512 670 513 663 514 657 c 0
 515 650 515 646 515 642 c 0
 515 637 515 633 513 623 c 0
 512 614 511 585 511 560 c 0
 511 507 510 508 509 475 c 0
 509 417 510 352 510 309 c 0
 510 298 510 289 510 282 c 1
 511 271 511 262 511 253 c 0xc8
 511 241 511 231 511 225 c 0
 511 223 511 221 511 220 c 0
 511 209 510 199 510 189 c 0
 510 155 513 130 513 110 c 0
 513 101 512 93 511 87 c 1
 500 51 492 12 456 1 c 1
 432 5 422 9 417 16 c 0
 405 26 420 11 411 20 c 0
 332 96 291 215 234 305 c 0
 221 329 223 327 209 355 c 0
 196 381 196 383 187 404 c 1
 172 428 165 447 156 468 c 0
 141 507 139 533 126 558 c 1
 127 564 129 548 131 542 c 0
 131 533 130 529 132 524 c 0
 135 499 136 473 136 447 c 0
 136 388 131 327 131 272 c 0xe4
 131 246 132 221 135 198 c 0
 136 196 138 187 138 177 c 0
 140 162 139 145 143 135 c 0
 145 130 146 115 147 102 c 0
 148 89 150 70 153 60 c 0
 156 49 158 39 158 30 c 0
 158 18 155 9 148 9 c 0
 131 7 108 2 88 2 c 0
 80 2 71 3 65 5 c 1xd0
EndSplineSet
Validated: 5
EndChar

StartChar: NameMe.41
Encoding: -1 -1 14
Width: 672
VWidth: 0
Flags: W
HStem: 1 86<267.38 420.45> 619 82<259.611 420.516>
VStem: 50 90<250.269 476.134> 542 79<234.53 470.269>
LayerCount: 3
Fore
SplineSet
50 360 m 1
 48 588 197 701 343 701 c 0
 484 701 623 596 623 389 c 0
 623 375 622 362 621 347 c 1
 621 340 621 334 621 327 c 0
 621 114 483 1 342 1 c 0
 200 1 56 116 50 360 c 1
542 356 m 1
 536 533 437 619 339 619 c 0
 240 619 141 530 140 358 c 1
 155 172 249 87 343 87 c 0
 443 87 543 184 542 356 c 1
EndSplineSet
Validated: 33
EndChar

StartChar: NameMe.42
Encoding: -1 -1 15
Width: 516
VWidth: 0
Flags: W
HStem: 1 21G<103.5 107.5> 258 78<156.188 306.416> 268 80<132.329 230.531> 618 81<137.208 365.983> 618 76<254.282 365.983>
VStem: 54 72<22.2366 267.495 363.142 603.439> 390 77<404.891 596.367>
LayerCount: 3
Fore
SplineSet
55 43 m 4xa6
 54 57 55 60 54 76 c 4
 54 93 53 103 53 115 c 0
 53 127 53 142 55 169 c 4
 55 177 56 184 56 192 c 0
 56 228 51 258 51 294 c 0
 51 301 52 309 52 317 c 4
 52 321 52 326 52 330 c 0
 52 360 50 386 50 412 c 0
 50 421 50 430 51 440 c 4
 51 480 54 511 54 539 c 0
 54 548 54 557 53 566 c 4
 52 572 52 578 52 583 c 0
 52 617 63 636 67 644 c 4
 79 663 104 680 124 684 c 4
 163 690 162 699 195 699 c 0
 198 699 201 699 205 699 c 4
 207 699 210 699 212 699 c 0xb6
 231 699 243 701 254 701 c 0
 260 701 267 700 273 698 c 4
 277 696 286 694 291 694 c 4
 340 689 340 692 377 684 c 4
 397 681 410 660 427 648 c 4
 430 646 433 643 433 641 c 4
 445 624 451 604 455 589 c 4
 464 568 467 536 467 505 c 0
 467 480 465 454 463 435 c 4
 461 416 444 377 431 362 c 4
 404 327 392 301 346 278 c 4
 343 278 308 271 308 270 c 4
 274 263 253 258 231 258 c 0xce
 221 258 211 259 200 261 c 4
 196 262 191 263 189 264 c 4
 187 265 179 266 170 267 c 4
 165 268 160 268 156 268 c 0
 137 268 130 261 129 249 c 4
 129 220 128 195 128 172 c 0
 128 160 128 149 129 139 c 4
 131 131 132 109 132 94 c 0
 132 85 131 79 131 78 c 4
 131 62 134 57 134 46 c 4
 134 35 135 27 135 22 c 4
 135 12 134 8 127 5 c 4
 115 2 110 1 105 1 c 0
 102 1 98 1 92 2 c 4
 82 1 73 4 65 4 c 5
 56 9 54 19 54 28 c 0
 54 34 55 40 55 43 c 4xa6
268 338 m 4
 313 343 317 349 346 373 c 4
 348 373 368 404 371 408 c 4
 374 412 376 422 378 424 c 4
 386 453 390 436 390 465 c 5
 392 478 392 484 392 488 c 0
 392 497 388 489 387 525 c 4
 387 567 377 584 366 600 c 4
 366 602 342 608 339 609 c 4
 311 610 317 612 297 614 c 5
 290 617 284 618 277 618 c 0
 267 618 258 616 248 616 c 5
 241 618 233 619 224 619 c 0
 211 619 198 618 189 617 c 4
 186 617 184 618 180 618 c 0
 173 618 162 616 136 604 c 5
 125 592 131 582 127 560 c 4
 126 557 126 553 126 549 c 0
 126 540 127 528 127 518 c 0
 127 516 127 514 127 512 c 4
 126 499 126 486 126 475 c 0
 126 451 128 431 131 410 c 4
 131 408 131 406 131 404 c 0
 131 394 130 384 130 376 c 0
 130 371 131 366 132 363 c 4
 139 348 147 349 167 348 c 5
 168 348 170 348 171 348 c 0xb6
 181 348 191 342 217 337 c 5
 234 336 240 336 244 336 c 0xc6
 249 336 252 336 268 338 c 4
EndSplineSet
Validated: 33
EndChar

StartChar: NameMe.43
Encoding: -1 -1 16
Width: 654
VWidth: 0
Flags: W
HStem: -0 93<260.617 423.634> 602 99<234.35 411.876>
VStem: 39 101<226.503 496.83> 514 79<-85.8182 -55.546> 520 96<209.938 481.221>
LayerCount: 3
Fore
SplineSet
514 -86 m 4xf0
 492 -65 460 14 438 14 c 0
 437 14 l 5
 406 4 375 0 343 -0 c 0
 272 0 201 23 150 66 c 4
 74 133 40 250 39 361 c 4
 39 363 39 365 39 367 c 0
 39 445 58 510 89 570 c 4
 137 665 217 701 332 701 c 0
 345 701 359 701 373 700 c 5
 547 674 616 514 616 352 c 0xe8
 616 238 582 124 526 54 c 5
 545 8 586 -10 593 -47 c 5
 591 -81 563 -95 540 -95 c 0
 529 -95 519 -92 514 -86 c 4xf0
520 351 m 5
 507 464 509 567 349 601 c 5
 342 601 335 602 328 602 c 0
 256 602 208 581 166 509 c 5
 150 467 140 411 140 355 c 0
 140 259 169 161 245 123 c 5
 281 100 318 93 355 93 c 5
 486 109 520 226 520 351 c 5
EndSplineSet
Validated: 1
EndChar

StartChar: NameMe.44
Encoding: -1 -1 17
Width: 560
VWidth: 0
Flags: W
HStem: 1 21G<93.5 115> 280 78<143.848 254.525> 619 82<139.197 323.995>
VStem: 51 83<361.161 610.356> 59 84<7.93282 278.116> 391 77<445.237 565.929>
LayerCount: 3
Fore
SplineSet
59 49 m 5xec
 59 56 59 63 59 70 c 0xec
 59 173 53 328 51 489 c 5xf4
 52 497 52 505 52 514 c 0
 52 538 50 565 50 591 c 0
 50 613 51 634 57 655 c 4
 61 677 88 684 111 691 c 4
 141 701 187 699 208 700 c 4
 215 700 222 701 229 701 c 0
 393 701 468 597 468 493 c 0
 468 413 423 334 340 302 c 5
 381 233 453 119 502 70 c 5
 508 60 511 51 511 43 c 0
 511 19 488 3 463 3 c 0
 449 3 433 8 421 20 c 5
 365 90 302 199 255 275 c 5
 245 279 227 280 207 280 c 0
 185 280 161 279 143 277 c 5
 143 268 142 257 142 245 c 0
 142 203 145 147 145 102 c 0
 145 83 144 65 143 52 c 5
 143 49 143 46 143 44 c 0
 143 13 125 1 105 1 c 0
 82 1 56 19 59 49 c 5xec
195 619 m 5
 128 610 135 602 134 537 c 4
 134 529 134 521 134 513 c 0xf4
 134 461 136 397 137 365 c 5
 157 360 176 358 195 358 c 0
 310 358 391 438 391 509 c 0
 391 567 338 619 207 619 c 0
 203 619 199 619 195 619 c 5
EndSplineSet
Validated: 33
EndChar

StartChar: NameMe.45
Encoding: -1 -1 18
Width: 503
VWidth: 0
Flags: W
HStem: 3 88<58.1211 310.407> 4 95<60.1293 206.735> 296 104<180.792 311.342> 605 97<195.628 410.812>
VStem: 50 87<440.971 553.532> 356 94<133.549 254.311>
LayerCount: 3
Fore
SplineSet
127 4 m 1x7c
 121 3 115 3 109 3 c 0xbc
 69 3 50 26 50 49 c 0
 50 74 71 99 109 99 c 0
 110 99 112 99 113 99 c 1x7c
 155 94 181 91 208 91 c 0
 216 91 225 91 234 92 c 0
 321 96 356 143 356 191 c 0
 356 242 316 294 255 296 c 0
 129 300 50 405 50 507 c 0
 50 597 110 684 250 701 c 1
 269 701 286 702 304 702 c 0
 341 702 377 699 420 685 c 1
 442 680 453 659 453 638 c 0
 453 616 440 595 411 595 c 0
 407 595 403 595 398 596 c 0
 368 602 339 605 310 605 c 0
 296 605 282 605 267 603 c 0
 179 596 137 546 137 497 c 0
 137 448 179 401 260 400 c 0
 392 397 450 302 450 205 c 0
 450 104 387 1 282 1 c 0
 270 1 257 2 244 5 c 1
 226 4 210 3 196 3 c 0xbc
 174 3 155 4 138 4 c 0
 134 4 131 4 127 4 c 1x7c
EndSplineSet
Validated: 1
EndChar

StartChar: NameMe.46
Encoding: -1 -1 19
Width: 588
VWidth: 0
Flags: W
HStem: 0 21G<281.5 302.5> 617 82<53.8406 253 331.846 534.999>
VStem: 253 81<3.94003 612>
LayerCount: 3
Fore
SplineSet
253 32 m 5
 250 102 250 178 250 254 c 0
 250 390 252 523 253 612 c 5
 195 616 156 612 86 617 c 5
 85 617 85 617 84 617 c 0
 62 617 50 637 50 658 c 0
 50 679 62 699 85 699 c 0
 86 699 86 699 87 699 c 4
 112 698 140 697 171 697 c 0
 255 697 355 701 438 701 c 0
 468 701 496 700 520 699 c 5
 533 694 539 679 539 662 c 0
 539 641 530 619 514 616 c 4
 498 614 479 613 460 613 c 0
 438 613 414 614 391 614 c 0
 370 614 349 613 331 610 c 5
 333 390 332 200 334 34 c 4
 334 11 313 0 292 0 c 0
 271 0 252 11 253 32 c 5
EndSplineSet
Validated: 33
EndChar

StartChar: NameMe.47
Encoding: -1 -1 20
Width: 597
VWidth: 0
Flags: W
HStem: 1 21G<171 411> 681 20G<484 507>
VStem: 50 99<182.738 690.945> 449 96<155.578 693.033>
LayerCount: 3
Fore
SplineSet
51 425 m 4
 51 451 50 478 50 523 c 0
 50 557 50 601 53 662 c 5
 56 687 78 698 100 698 c 0
 124 698 147 685 146 664 c 5
 148 590 149 530 149 475 c 0
 149 457 149 440 149 422 c 4
 149 409 149 396 149 384 c 0
 149 111 212 88 309 82 c 5
 442 93 449 184 449 350 c 0
 449 371 449 393 449 416 c 0
 449 424 449 432 449 440 c 5
 448 452 448 466 448 482 c 0
 448 518 449 565 449 616 c 0
 449 629 449 642 449 656 c 5
 451 688 473 701 495 701 c 0
 519 701 543 685 543 661 c 0
 543 659 543 657 543 655 c 5
 544 612 545 582 545 557 c 0
 545 530 544 510 544 487 c 0
 544 474 545 461 545 445 c 4
 546 406 548 369 548 334 c 0
 548 134 512 7 310 1 c 5
 32 6 57 176 51 425 c 4
EndSplineSet
Validated: 33
EndChar

StartChar: NameMe.48
Encoding: -1 -1 21
Width: 660
VWidth: 0
Flags: W
HStem: 1 21G<299.5 342> 681 20G<88 110.5 550.5 571.5>
LayerCount: 3
Fore
SplineSet
211 93 m 1
 144 291 124 377 53 637 c 1
 51 644 50 651 50 657 c 0
 50 686 76 701 100 701 c 0
 121 701 141 689 143 665 c 1
 195 467 251 275 301 118 c 1
 307 112 313 109 319 109 c 0
 326 109 333 113 338 119 c 1
 405 289 480 547 517 674 c 1
 528 693 543 701 558 701 c 0
 585 701 611 677 611 655 c 0
 611 652 611 650 610 647 c 0
 553 444 503 294 431 88 c 1
 399 25 360 1 324 1 c 0
 275 1 229 45 211 93 c 1
EndSplineSet
Validated: 1
EndChar

StartChar: NameMe.49
Encoding: -1 -1 22
Width: 864
VWidth: 0
Flags: W
HStem: 1 21G<258 273 607.5 624>
VStem: 50 64<606.718 692.269> 744 71<653.141 691.363>
LayerCount: 3
Fore
SplineSet
227 30 m 5
 145 333 144 306 51 650 c 5
 50 653 50 657 50 660 c 0
 50 682 66 694 82 694 c 0
 95 694 108 686 114 668 c 4
 163 529 210 342 255 181 c 4
 261 161 264 172 267 181 c 4
 313 340 336 586 399 678 c 4
 405 688 414 696 424 696 c 0
 432 696 441 690 449 677 c 5
 506 536 557 328 602 187 c 4
 607 172 612 172 618 188 c 4
 677 425 676 441 744 667 c 4
 748 685 764 694 780 694 c 0
 797 694 815 683 815 661 c 0
 815 659 814 656 814 653 c 4
 760 411 708 217 655 38 c 4
 649 13 632 1 616 1 c 0
 599 1 582 15 578 40 c 5
 511 214 475 380 432 536 c 4
 428 549 421 546 418 537 c 4
 379 326 371 237 299 32 c 5
 293 10 280 1 266 1 c 0
 250 1 234 13 227 30 c 5
EndSplineSet
Validated: 1
EndChar

StartChar: NameMe.50
Encoding: -1 -1 23
Width: 587
VWidth: 0
Flags: W
HStem: 1 21G<103.5 119.5> 681 20G<80 96.5>
LayerCount: 3
Fore
SplineSet
74 56 m 5
 130 162 189 246 246 350 c 5
 184 454 109 544 54 645 c 5
 51 651 50 657 50 663 c 0
 50 685 70 701 90 701 c 0
 103 701 115 695 123 680 c 5
 213 540 255 490 299 420 c 5
 331 469 400 616 444 682 c 5
 451 694 461 699 472 699 c 0
 493 699 515 681 515 661 c 0
 515 657 514 653 512 649 c 4
 422 467 405 444 356 355 c 5
 414 253 479 155 531 61 c 4
 535 54 537 47 537 41 c 0
 537 17 511 3 489 3 c 0
 478 3 469 6 464 14 c 4
 407 101 372 177 301 278 c 5
 244 189 196 95 140 16 c 5
 135 5 125 1 114 1 c 0
 93 1 69 18 69 39 c 0
 69 44 70 50 74 56 c 5
EndSplineSet
Validated: 1
EndChar

StartChar: NameMe.51
Encoding: -1 -1 24
Width: 575
VWidth: 0
Flags: W
HStem: -0 21G<292 314> 680 20G<82.5 99.5>
VStem: 255 95<8.17459 216.144>
LayerCount: 3
Fore
SplineSet
254 43 m 5
 254 51 254 59 254 67 c 0
 254 95 255 121 255 144 c 0
 255 174 253 200 245 216 c 4
 186 340 123 503 55 649 c 5
 52 654 50 660 50 665 c 0
 50 685 72 700 93 700 c 0
 106 700 118 694 125 680 c 5
 204 545 233 416 305 304 c 5
 375 414 393 582 448 680 c 5
 451 691 468 699 485 699 c 0
 506 699 528 687 526 657 c 5
 462 471 411 320 357 217 c 5
 352 199 350 164 350 129 c 0
 350 97 352 64 352 44 c 5
 345 12 324 0 304 -0 c 0
 280 0 256 18 254 43 c 5
EndSplineSet
Validated: 33
EndChar

StartChar: NameMe.52
Encoding: -1 -1 25
Width: 620
VWidth: 0
Flags: W
HStem: 2 92<173.908 563.292> 604 97<59.152 366.58> 616 85<181.588 428.933>
LayerCount: 3
Fore
SplineSet
103 2 m 1xa0
 67 14 55 41 55 65 c 0
 55 82 61 98 68 108 c 0
 212 316 326 464 434 603 c 0
 443 611 442 614 430 616 c 0xa0
 304 610 261 604 104 604 c 0
 103 604 103 604 102 604 c 0
 67 604 50 627 50 650 c 0
 50 674 67 699 100 701 c 1xc0
 150 698 201 698 251 698 c 0
 341 698 426 700 491 701 c 1
 537 698 549 672 549 649 c 0
 549 634 544 621 539 614 c 1
 415 402 277 262 174 108 c 1
 172 99 173 93 180 93 c 0
 211 91 245 91 279 91 c 0
 364 91 451 94 511 94 c 0
 521 94 530 94 538 94 c 1
 559 92 570 71 570 50 c 0
 570 28 558 5 530 2 c 1
 497 4 463 4 427 4 c 0
 345 4 258 1 173 1 c 0
 149 1 126 1 103 2 c 1xa0
EndSplineSet
Validated: 1
EndChar

StartChar: NameMe.53
Encoding: -1 -1 26
Width: 453
VWidth: 0
Flags: HMW
HStem: 429 1
LayerCount: 3
Fore
SplineSet
331 6 m 4
 329 17 328 29 314 30 c 5
 265 16 214 1 170 1 c 0
 108 1 59 30 50 128 c 5
 51 231 122 263 198 263 c 0
 222 263 247 260 270 255 c 5
 278 252 286 250 293 250 c 0
 317 250 335 267 336 289 c 5
 332 346 298 364 260 364 c 0
 231 364 201 353 180 341 c 4
 164 332 147 324 133 324 c 0
 124 324 115 328 110 337 c 5
 107 345 105 352 105 358 c 0
 105 376 120 389 149 403 c 5
 181 422 219 431 255 431 c 0
 332 431 403 389 403 301 c 0
 403 298 403 294 403 291 c 5
 404 225 404 188 404 157 c 0
 404 115 403 84 401 5 c 5
 399 -12 382 -22 365 -22 c 0
 349 -22 333 -13 331 6 c 4
293 95 m 5
 314 102 332 119 332 137 c 0
 332 137 l 5
 330 155 322 176 292 180 c 4
 257 186 222 191 193 191 c 0
 148 191 118 178 118 132 c 0
 118 131 118 129 118 128 c 4
 119 82 142 68 173 68 c 0
 210 68 257 87 293 95 c 5
EndSplineSet
Validated: 5
EndChar

StartChar: NameMe.54
Encoding: -1 -1 27
Width: 494
VWidth: 0
Flags: HMW
HStem: 429 1
LayerCount: 3
Fore
SplineSet
51 -3 m 5
 51 89 52 182 52 274 c 0
 52 404 51 531 50 646 c 5
 56 668 72 676 88 676 c 0
 110 676 132 660 130 644 c 5
 131 595 131 553 131 514 c 0
 131 475 131 440 131 402 c 5
 178 420 223 430 263 430 c 0
 361 430 432 369 444 204 c 5
 439 73 366 2 258 2 c 0
 219 2 176 11 130 29 c 5
 129 15 127 4 127 -3 c 4
 130 -20 109 -30 89 -30 c 0
 71 -30 54 -22 51 -3 c 5
363 205 m 5
 361 307 318 350 254 350 c 0
 219 350 177 337 132 313 c 5
 127 290 126 266 126 242 c 0
 126 208 129 174 129 138 c 0
 129 130 128 121 128 113 c 5
 181 88 224 77 258 77 c 0
 331 77 363 126 363 191 c 0
 363 196 363 200 363 205 c 5
EndSplineSet
Validated: 33
EndChar

StartChar: NameMe.55
Encoding: -1 -1 28
Width: 398
VWidth: 0
Flags: HMW
HStem: 429 1
LayerCount: 3
Fore
SplineSet
50 219 m 4
 52 358 144 427 278 427 c 0
 284 427 289 427 295 427 c 5
 333 421 348 404 348 387 c 0
 348 366 326 346 299 346 c 0
 298 346 l 4
 295 346 293 346 290 346 c 0
 181 346 138 304 132 217 c 5
 132 110 194 84 289 84 c 0
 291 84 293 84 295 84 c 5
 332 82 348 61 348 41 c 0
 348 21 331 1 302 1 c 0
 301 1 300 1 299 1 c 5
 294 1 289 1 285 1 c 0
 73 1 50 115 50 219 c 4
EndSplineSet
Validated: 1
EndChar

StartChar: NameMe.56
Encoding: -1 -1 29
Width: 510
VWidth: 0
Flags: HMW
HStem: 429 1
LayerCount: 3
Fore
SplineSet
386 1 m 4
 386 3 386 4 386 6 c 0
 386 16 384 23 384 31 c 0
 384 33 385 36 385 39 c 5
 350 20 294 1 237 1 c 0
 151 1 64 46 50 210 c 5
 50 381 167 430 263 430 c 0
 316 430 362 415 379 398 c 5
 380 405 380 415 380 429 c 0
 380 466 378 522 378 564 c 0
 378 579 378 593 379 603 c 4
 380 629 401 642 421 642 c 0
 440 642 459 630 460 606 c 4
 460 585 460 562 460 538 c 0
 460 462 460 375 460 288 c 0
 460 225 460 162 459 103 c 4
 460 84 460 63 460 43 c 0
 460 29 460 15 459 3 c 4
 460 -15 440 -24 421 -24 c 0
 403 -24 386 -16 386 1 c 4
387 122 m 5
 388 150 388 168 388 183 c 0
 388 213 387 232 387 308 c 5
 357 343 315 358 272 358 c 0
 194 358 116 306 116 222 c 0
 116 218 116 215 116 211 c 5
 116 207 116 204 116 200 c 0
 116 117 184 63 260 63 c 0
 304 63 350 81 387 122 c 5
EndSplineSet
Validated: 33
EndChar

StartChar: NameMe.57
Encoding: -1 -1 30
Width: 441
VWidth: 0
Flags: HMW
HStem: 429 1
LayerCount: 3
Fore
SplineSet
50 230 m 5
 58 299 78 422 239 433 c 5
 349 426 391 357 391 283 c 0
 391 272 390 260 388 249 c 4
 382 216 363 180 286 167 c 5
 267 166 251 166 237 166 c 0
 198 166 174 169 138 171 c 4
 132 171 121 170 124 158 c 4
 137 104 185 83 240 83 c 0
 271 83 303 90 333 100 c 4
 338 102 343 103 348 103 c 0
 374 103 390 79 390 57 c 0
 390 41 382 26 365 20 c 5
 319 7 279 1 245 1 c 0
 88 1 50 125 50 218 c 0
 50 222 50 226 50 230 c 5
249 233 m 4
 304 234 326 259 326 286 c 0
 326 322 289 363 242 363 c 4
 176 362 140 332 122 281 c 5
 121 277 120 273 120 269 c 0
 120 236 158 229 193 229 c 0
 219 229 243 233 249 233 c 4
EndSplineSet
Validated: 1
EndChar

StartChar: NameMe.58
Encoding: -1 -1 31
Width: 405
VWidth: 0
Flags: HMW
HStem: 429 1
LayerCount: 3
Fore
SplineSet
118 39 m 5
 118 69 118 95 118 118 c 0
 118 160 118 194 118 231 c 0
 118 265 118 301 119 346 c 4
 119 356 122 362 109 362 c 4
 96 361 99 361 91 361 c 0
 88 361 82 361 73 361 c 4
 57 361 50 377 50 393 c 0
 50 412 59 431 72 432 c 4
 96 431 96 432 112 430 c 4
 119 429 117 437 120 447 c 4
 128 548 163 625 302 625 c 0
 311 625 321 625 331 624 c 4
 347 622 355 605 355 588 c 0
 355 573 349 559 334 556 c 5
 249 555 198 559 190 441 c 4
 191 429 193 428 211 428 c 4
 214 428 218 428 222 428 c 0
 253 428 294 431 319 431 c 4
 335 430 344 413 344 397 c 0
 344 381 336 364 320 362 c 5
 293 361 266 359 239 359 c 0
 226 359 213 359 200 361 c 4
 184 363 189 356 188 348 c 4
 188 325 189 307 189 281 c 4
 189 261 189 242 189 224 c 0
 189 151 188 93 188 38 c 5
 189 35 189 32 189 30 c 0
 189 10 172 1 155 1 c 0
 136 1 116 13 118 39 c 5
EndSplineSet
Validated: 33
EndChar

StartChar: NameMe.59
Encoding: -1 -1 32
Width: 520
VWidth: 0
Flags: HMW
HStem: 429 1
LayerCount: 3
Fore
SplineSet
148 -230 m 5
 116 -225 104 -208 104 -190 c 0
 104 -169 121 -148 144 -148 c 0
 145 -148 145 -148 146 -148 c 4
 181 -150 210 -151 236 -151 c 0
 370 -151 389 -122 389 10 c 0
 389 13 389 16 389 19 c 5
 344 7 304 1 268 1 c 0
 118 1 50 100 50 203 c 0
 50 315 131 431 279 431 c 0
 311 431 346 425 384 413 c 5
 385 424 385 439 385 454 c 0
 385 460 385 467 385 473 c 4
 385 495 407 512 429 512 c 0
 447 512 464 501 468 473 c 5
 469 448 470 422 470 398 c 0
 470 366 469 340 469 327 c 4
 469 314 469 302 469 291 c 0
 469 237 470 202 470 126 c 0
 470 110 470 93 470 73 c 5
 470 54 471 36 471 19 c 0
 471 -189 432 -231 199 -231 c 0
 183 -231 166 -230 148 -230 c 5
387 94 m 5
 387 121 387 141 387 158 c 0
 387 175 387 189 387 203 c 0
 387 232 387 264 385 326 c 5
 350 347 316 356 285 356 c 0
 190 356 125 271 125 195 c 0
 125 133 168 78 274 78 c 0
 306 78 343 83 387 94 c 5
EndSplineSet
Validated: 1
EndChar

StartChar: NameMe.60
Encoding: -1 -1 33
Width: 471
VWidth: 0
Flags: HMW
HStem: 429 1
LayerCount: 3
Fore
SplineSet
354 77 m 0
 354 126 352 158 352 211 c 0
 352 228 352 247 353 270 c 5
 353 273 354 276 354 279 c 0
 354 333 297 362 240 362 c 0
 183 362 125 333 124 272 c 4
 121 119 121 172 121 36 c 5
 118 12 102 1 86 1 c 0
 69 1 52 13 51 36 c 4
 51 60 50 84 50 108 c 0
 50 173 52 236 52 301 c 0
 52 325 51 349 51 373 c 5
 52 394 52 411 52 426 c 0
 52 451 51 473 51 509 c 0
 51 525 52 544 52 567 c 4
 53 593 70 606 87 606 c 0
 104 606 121 593 121 567 c 0
 121 566 121 566 121 565 c 4
 120 544 120 525 120 508 c 0
 120 470 121 441 121 406 c 0
 121 397 121 387 121 377 c 5
 132 410 182 429 238 429 c 0
 323 429 421 386 421 288 c 0
 421 282 421 275 420 268 c 5
 421 234 421 214 421 199 c 0
 421 161 419 162 419 75 c 0
 419 65 419 53 419 40 c 4
 419 13 403 1 387 1 c 0
 370 1 354 14 354 38 c 0
 354 52 354 65 354 77 c 0
EndSplineSet
Validated: 1
EndChar

StartChar: NameMe.61
Encoding: -1 -1 34
Width: 187
VWidth: 0
Flags: HMW
HStem: 429 1
LayerCount: 3
Fore
SplineSet
54 36 m 1
 54 75 55 108 55 137 c 0
 55 216 53 265 53 344 c 0
 53 373 54 406 54 446 c 0
 55 479 75 494 94 494 c 0
 114 494 135 478 135 451 c 2
 135 36 l 2
 135 15 115 1 94 1 c 0
 76 1 59 11 54 36 c 1
 54 36 l 1
50 627 m 1
 51 659 72 673 93 673 c 0
 115 673 138 657 138 630 c 0
 138 601 116 585 93 585 c 0
 72 585 50 599 50 627 c 1
EndSplineSet
Validated: 5
EndChar

StartChar: NameMe.62
Encoding: -1 -1 35
Width: 327
VWidth: 0
Flags: HMW
HStem: 429 1
LayerCount: 3
Fore
SplineSet
86 -114 m 4
 170 -110 189 -40 190 17 c 4
 190 115 189 197 189 330 c 0
 189 363 189 400 189 440 c 5
 192 472 213 488 233 488 c 0
 254 488 275 471 277 437 c 4
 277 421 277 404 277 388 c 0
 277 292 274 198 274 103 c 0
 274 74 274 46 275 17 c 5
 273 -99 229 -187 88 -200 c 5
 61 -195 50 -178 50 -160 c 0
 50 -137 67 -114 86 -114 c 4
182 623 m 5
 183 661 206 678 229 678 c 0
 253 678 278 659 277 624 c 4
 278 594 252 576 228 576 c 0
 206 576 185 591 182 623 c 5
EndSplineSet
Validated: 33
EndChar

StartChar: NameMe.63
Encoding: -1 -1 36
Width: 453
VWidth: 0
Flags: HMW
HStem: 429 1
LayerCount: 3
Fore
SplineSet
138 191 m 4
 131 197 123 197 124 185 c 4
 124 128 124 86 125 37 c 5
 124 13 106 1 89 1 c 0
 71 1 53 14 51 37 c 4
 50 62 50 86 50 108 c 0
 50 156 51 199 51 240 c 0
 51 248 51 256 51 264 c 4
 51 336 50 393 50 456 c 0
 50 487 50 520 51 557 c 4
 50 582 70 599 89 599 c 0
 105 599 121 587 124 558 c 5
 124 367 125 414 125 275 c 4
 124 265 127 259 131 261 c 4
 135 264 132 263 139 267 c 4
 198 323 275 397 307 425 c 5
 319 434 330 438 340 438 c 0
 360 438 373 422 373 405 c 0
 373 396 370 387 362 379 c 4
 311 325 239 268 208 233 c 4
 204 230 203 229 205 227 c 4
 270 172 317 129 381 76 c 4
 397 62 404 47 404 34 c 0
 404 16 391 1 372 1 c 0
 362 1 351 5 340 13 c 5
 250 95 177 160 138 191 c 4
EndSplineSet
Validated: 33
EndChar

StartChar: NameMe.64
Encoding: -1 -1 37
Width: 184
VWidth: 0
Flags: W
HStem: 1 21G<86.5 106.5> 642 20G<81.5 100.5>
VStem: 53 82<5.85121 653.62>
LayerCount: 3
Fore
SplineSet
53 36 m 0
 52 117 50 289 50 459 c 0
 50 513 51 566 51 616 c 1
 56 649 73 662 90 662 c 0
 111 662 133 642 132 615 c 0
 133 433 135 323 135 201 c 0
 135 150 135 98 134 37 c 0
 134 12 116 1 97 1 c 0
 76 1 53 14 53 36 c 0
EndSplineSet
Validated: 33
EndChar

StartChar: NameMe.65
Encoding: -1 -1 38
Width: 700
VWidth: 0
Flags: HMW
HStem: 429 1
LayerCount: 3
Fore
SplineSet
320 30 m 4
 319 116 317 188 317 260 c 5
 315 319 273 363 226 363 c 0
 188 363 147 335 120 263 c 5
 119 230 119 208 119 191 c 0
 119 168 119 151 119 125 c 0
 119 102 119 71 117 20 c 5
 115 6 101 0 86 -0 c 0
 69 0 52 8 51 22 c 5
 51 57 52 85 52 110 c 0
 52 185 50 233 50 349 c 4
 50 353 50 358 50 363 c 0
 50 377 50 392 50 405 c 0
 50 410 50 414 50 418 c 4
 50 435 67 445 84 445 c 0
 98 445 113 438 117 421 c 5
 118 409 118 400 118 393 c 0
 118 387 118 382 118 377 c 0
 118 373 118 368 119 364 c 5
 142 410 184 429 226 429 c 0
 283 429 341 394 352 341 c 5
 381 402 432 428 483 428 c 0
 565 428 648 362 648 268 c 0
 648 263 647 259 647 254 c 5
 648 162 650 158 650 105 c 0
 650 88 649 67 649 36 c 5
 647 12 633 1 618 1 c 0
 600 1 582 15 583 37 c 5
 582 202 583 129 580 255 c 5
 573 324 529 360 484 360 c 0
 440 360 396 326 386 258 c 5
 386 184 388 132 388 81 c 0
 388 64 387 47 387 29 c 5
 385 10 370 2 354 2 c 0
 337 2 319 12 320 30 c 4
EndSplineSet
Validated: 33
EndChar

StartChar: NameMe.66
Encoding: -1 -1 39
Width: 427
VWidth: 0
Flags: HMW
HStem: 429 1
LayerCount: 3
Fore
SplineSet
301 34 m 5
 300 144 301 89 299 230 c 5
 299 235 299 239 299 243 c 0
 299 325 253 360 208 360 c 0
 175 360 143 342 131 312 c 5
 126 277 125 182 125 111 c 0
 125 97 125 84 125 72 c 0
 125 54 125 40 125 32 c 4
 126 14 106 1 87 1 c 0
 71 1 56 9 52 31 c 5
 51 73 50 112 50 149 c 0
 50 220 52 284 52 349 c 0
 52 372 52 396 51 420 c 5
 49 441 67 453 85 453 c 0
 101 453 118 443 120 419 c 4
 122 412 122 411 124 409 c 5
 136 420 172 432 213 432 c 0
 287 432 377 393 377 245 c 0
 377 239 377 234 377 228 c 5
 377 148 377 115 377 36 c 5
 379 16 359 2 339 2 c 0
 322 2 306 11 301 34 c 5
EndSplineSet
Validated: 33
EndChar

StartChar: NameMe.67
Encoding: -1 -1 40
Width: 489
VWidth: 0
Flags: HMW
HStem: 429 1
LayerCount: 3
Fore
SplineSet
251 448 m 5
 375 442 435 340 439 215 c 4
 439 212 439 208 439 205 c 0
 439 101 393 10 257 0 c 5
 136 6 50 92 50 219 c 0
 50 367 137 448 249 448 c 0
 250 448 250 448 251 448 c 5
253 373 m 5
 161 370 123 299 123 223 c 0
 123 123 184 82 254 76 c 5
 336 82 362 130 362 210 c 0
 362 288 340 362 253 373 c 5
EndSplineSet
Validated: 1
EndChar

StartChar: NameMe.68
Encoding: -1 -1 41
Width: 484
VWidth: 0
Flags: HMW
HStem: 429 1
LayerCount: 3
Fore
SplineSet
54 -183 m 5
 53 -71 50 49 50 211 c 0
 50 276 51 348 52 429 c 5
 50 448 67 458 84 458 c 0
 101 458 119 448 116 429 c 4
 117 421 119 405 123 411 c 5
 163 421 198 426 230 426 c 0
 372 426 435 331 435 231 c 0
 435 119 356 1 222 1 c 0
 194 1 164 6 132 17 c 5
 129 -11 128 -42 128 -73 c 0
 128 -102 128 -132 128 -157 c 0
 128 -167 128 -176 128 -185 c 4
 127 -205 109 -215 91 -215 c 0
 73 -215 55 -205 54 -183 c 5
126 344 m 5
 127 316 128 289 128 263 c 0
 128 215 126 170 126 136 c 0
 126 118 127 102 128 91 c 5
 161 77 191 72 217 72 c 0
 310 72 359 146 359 219 c 0
 359 290 313 361 217 361 c 0
 191 361 160 356 126 344 c 5
EndSplineSet
Validated: 33
EndChar

StartChar: NameMe.69
Encoding: -1 -1 42
Width: 471
VWidth: 0
Flags: HMW
HStem: 429 1
LayerCount: 3
Fore
SplineSet
348 -179 m 4
 348 -172 348 -166 348 -159 c 0
 348 -92 352 -25 353 45 c 4
 353 48 353 47 349 43 c 4
 298 13 253 1 215 1 c 0
 106 1 50 104 50 210 c 0
 50 319 110 431 235 431 c 0
 273 431 318 420 368 396 c 5
 376 396 373 400 373 403 c 4
 372 412 372 417 372 423 c 4
 373 436 385 443 396 443 c 0
 407 443 418 436 419 423 c 4
 420 419 420 415 420 410 c 0
 420 402 419 394 419 386 c 0
 419 381 419 376 420 372 c 4
 420 293 421 223 421 151 c 0
 421 50 420 -53 419 -178 c 5
 417 -198 401 -206 385 -206 c 0
 367 -206 349 -196 348 -179 c 4
350 126 m 5
 350 173 354 222 354 275 c 0
 354 288 354 302 353 316 c 5
 311 349 274 363 243 363 c 0
 166 363 123 279 123 201 c 0
 123 135 154 72 221 72 c 0
 255 72 298 88 350 126 c 5
EndSplineSet
Validated: 1
EndChar

StartChar: NameMe.70
Encoding: -1 -1 43
Width: 336
VWidth: 0
Flags: HMW
HStem: 429 1
LayerCount: 3
Fore
SplineSet
50.1015625 36.2958984375 m 5
 49.7763671875 142.934570312 50.259765625 245.274414062 51.130859375 347.749023438 c 4
 50.984375 353.474609375 50.3408203125 388.467773438 51.1689453125 399.408203125 c 4
 56.1748046875 444.372070312 110.869140625 435.90625 109.37890625 400.016601562 c 4
 110.598632812 394.248046875 108.35546875 372.407226562 117.501953125 370.287109375 c 5
 160.3125 384.235351562 198.848632812 410.901367188 255.057617188 445.407226562 c 5
 304.37890625 481.745117188 333.872070312 420.58984375 290.21484375 399.279296875 c 5
 225.627929688 354.3046875 120.026367188 309.65625 125.018554688 235.755859375 c 5
 123.14453125 152.216796875 122.98828125 96.6279296875 124.086914062 36.5302734375 c 5
 117.7109375 -19.609375 47.1083984375 -2.58203125 50.1015625 36.2958984375 c 5
EndSplineSet
Validated: 33
EndChar

StartChar: NameMe.71
Encoding: -1 -1 44
Width: 356
VWidth: 0
Flags: HMW
HStem: 429 1
LayerCount: 3
Fore
SplineSet
141.198242188 0.3427734375 m 4
 131.990234375 0.5517578125 99.935546875 5.09375 87.1630859375 5.412109375 c 4
 40.5546875 6.193359375 46.3701171875 80.1630859375 86.732421875 79.0869140625 c 4
 100.86328125 77.4560546875 134.978515625 74.548828125 145.12109375 72.2822265625 c 5
 223.755859375 72.42578125 259.219726562 120.05078125 208.325195312 165.16015625 c 5
 184.421875 182.385742188 143.116210938 194.76953125 125.19140625 208.086914062 c 4
 -48.94140625 328.765625 121.001953125 451.572265625 217.377929688 429.822265625 c 5
 239.922851562 427.068359375 262.46875 420.701171875 288.021484375 411.000976562 c 5
 324.291015625 393.674804688 302.220703125 332.0078125 269.409179688 344.461914062 c 5
 249.681640625 349.388671875 228.48828125 354.258789062 211.700195312 358.336914062 c 4
 138.5859375 382.623046875 72.7431640625 315.021484375 157.916992188 271.685546875 c 4
 216.950195312 243.70703125 233.03125 231.407226562 247.469726562 223.69921875 c 4
 335.635742188 171.201171875 328.251953125 3.052734375 141.198242188 0.3427734375 c 4
EndSplineSet
Validated: 33
EndChar

StartChar: NameMe.72
Encoding: -1 -1 45
Width: 324
VWidth: 0
Flags: HMW
HStem: 429 1
LayerCount: 3
Fore
SplineSet
101.030273438 120.80078125 m 4
 98.48046875 214.623046875 100.022460938 228.981445312 97.98046875 306.971679688 c 4
 98.4072265625 356.606445312 98.810546875 341.108398438 98.623046875 361.465820312 c 5
 88.5234375 361.227539062 94.8515625 360.93359375 82.9814453125 360.361328125 c 5
 33.0927734375 369.827148438 46.484375 430.932617188 79.099609375 430.82421875 c 4
 90.34375 431.58984375 85.2861328125 431.209960938 96.912109375 432.673828125 c 5
 98.1845703125 456.166992188 95.08203125 476.458984375 95.9091796875 494.184570312 c 5
 106.029296875 548.083984375 162.962890625 528.099609375 164.327148438 493.34765625 c 4
 165.319335938 462.469726562 165.858398438 452.4921875 165.931640625 431.590820312 c 5
 220.891601562 430.603515625 207.481445312 432.90234375 239.673828125 432.942382812 c 4
 287.303710938 431.961914062 285.131835938 363.78125 242.901367188 362.561523438 c 4
 210.965820312 362.973632812 204.75390625 362.439453125 167.65234375 362.030273438 c 5
 167.1328125 330.888671875 167.762695312 329.952148438 167.471679688 293.190429688 c 4
 169.98046875 227.973632812 170.463867188 155.63671875 171.293945312 121.615234375 c 5
 177.61328125 67.9052734375 185.124023438 65.259765625 247.936523438 71.0576171875 c 5
 276.4296875 64.6474609375 264.543945312 28.6435546875 252.091796875 21.4365234375 c 4
 197.705078125 -19.9501953125 106.607421875 -6.8056640625 101.030273438 120.80078125 c 4
EndSplineSet
Validated: 33
EndChar

StartChar: NameMe.73
Encoding: -1 -1 46
Width: 444
VWidth: 0
Flags: HMW
HStem: 429 1
LayerCount: 3
Fore
SplineSet
321.239257812 32.216796875 m 4
 321.403320312 40.3291015625 323.228515625 55.376953125 320.76171875 66.2529296875 c 5
 223.6015625 -46.3837890625 46.3818359375 -10.6591796875 50.056640625 154.233398438 c 4
 51.07421875 270.646484375 50.591796875 282.475585938 51.6162109375 393.916992188 c 5
 60.41796875 452.041015625 129.112304688 438.018554688 127.965820312 395.26953125 c 4
 128.627929688 253.234375 128.657226562 305.416015625 129.280273438 162.033203125 c 5
 123.69921875 103.463867188 188.8828125 11.3203125 314.990234375 168.57421875 c 5
 318.456054688 272.580078125 319.40625 221.440429688 317.958007812 401.041992188 c 4
 316.791015625 435.780273438 389.358398438 448.537109375 394.978515625 401.561523438 c 5
 395.0703125 275.084960938 394.8515625 152.19921875 393.557617188 30.6826171875 c 4
 394.80078125 -6.923828125 326.061523438 -12.7373046875 321.239257812 32.216796875 c 4
EndSplineSet
Validated: 33
EndChar

StartChar: NameMe.74
Encoding: -1 -1 47
Width: 470
VWidth: 0
Flags: HMW
HStem: 429 1
LayerCount: 3
Fore
SplineSet
194.053710938 30.5751953125 m 5
 136.608398438 166.229492188 98.4462890625 258.662109375 52.0634765625 383.286132812 c 5
 37.0341796875 440.365234375 108.7265625 444.944335938 118.381835938 407.875 c 5
 168.354492188 298.37109375 188.423828125 226.342773438 231.780273438 133.204101562 c 5
 235.245117188 121.112304688 239.818359375 105.966796875 249.8515625 132.036132812 c 4
 284.78125 221.879882812 313.537109375 299.567382812 350.84375 404.009765625 c 4
 366.368164062 448.254882812 431.591796875 435.377929688 418.58984375 383.827148438 c 5
 375.970703125 249.517578125 333.399414062 133.142578125 283.354492188 26.130859375 c 5
 261.907226562 -4.7529296875 222.134765625 -12.6708984375 194.053710938 30.5751953125 c 5
EndSplineSet
Validated: 33
EndChar

StartChar: NameMe.75
Encoding: -1 -1 48
Width: 666
VWidth: 0
Flags: HMW
HStem: 429 1
LayerCount: 3
Fore
SplineSet
156.096679688 40.7021484375 m 5
 110.298828125 152.938476562 78.53515625 288.663085938 50.291015625 382.58984375 c 5
 45.16796875 441.126953125 109.315429688 441.05078125 121.944335938 399.5 c 4
 151.920898438 306.881835938 172.720703125 220.388671875 199.697265625 134.641601562 c 4
 201.416992188 128.423828125 202.818359375 127.8359375 206.21875 135.111328125 c 4
 230.828125 221.44140625 244.958984375 326.328125 278.78515625 403.102539062 c 5
 296.545898438 434.833984375 347.313476562 439.795898438 369.52734375 405.057617188 c 5
 409.375976562 307.692382812 428.424804688 225.625976562 472.102539062 135.5625 c 5
 475.51953125 121.750976562 479.08984375 131.651367188 479.952148438 135.096679688 c 4
 514.114257812 261.665039062 517.395507812 295.326171875 544.616210938 401.813476562 c 5
 563.418945312 448.948242188 623.76171875 428.43359375 615.509765625 386.288085938 c 4
 590.948242188 259.75 564.809570312 158.330078125 532.845703125 54.6279296875 c 4
 509.817382812 -17.3125 447.341796875 -17.9111328125 422.193359375 52.91015625 c 5
 381.256835938 159.204101562 337.637695312 274.846679688 325.841796875 295 c 4
 323.428710938 299.642578125 323.374023438 302.0234375 320.65625 294.795898438 c 4
 291.004882812 169.073242188 287.153320312 133.435546875 250.959960938 42.8505859375 c 4
 234.5078125 0.705078125 185.412109375 -23.87109375 156.096679688 40.7021484375 c 5
EndSplineSet
Validated: 33
EndChar

StartChar: NameMe.76
Encoding: -1 -1 49
Width: 423
VWidth: 0
Flags: HMW
HStem: 429 1
LayerCount: 3
Fore
SplineSet
299.755859375 22.7236328125 m 5
 262.856445312 82.490234375 256.923828125 90.185546875 216.825195312 150.393554688 c 4
 211.842773438 158.891601562 209.096679688 152.012695312 207.689453125 149.7421875 c 4
 175.755859375 100.12890625 155.107421875 73.3818359375 124.442382812 23.1201171875 c 5
 92.66796875 -24.6796875 32.5830078125 11.0888671875 56.5771484375 58.7470703125 c 5
 122.462890625 152.360351562 117.825195312 146.975585938 157.645507812 205.784179688 c 4
 168.786132812 219.02734375 169.97265625 230.560546875 161.802734375 240.05078125 c 4
 119.7578125 290.392578125 95.458984375 318.403320312 52.8828125 378.05078125 c 5
 35.9736328125 432.190429688 98.15234375 444.071289062 117.139648438 414.877929688 c 5
 159.970703125 366.649414062 165.693359375 345.56640625 202.7890625 305.501953125 c 4
 207.510742188 298.75390625 216.811523438 300.01171875 220.294921875 306.717773438 c 4
 248.245117188 348.846679688 264.346679688 376.977539062 289.633789062 415.21484375 c 5
 326.572265625 456.934570312 375.30859375 413.885742188 352.646484375 375.301757812 c 4
 299.106445312 289.223632812 310.640625 312.565429688 264.485351562 239.413085938 c 5
 254.48828125 229.338867188 260.905273438 217.364257812 267.567382812 207.748046875 c 4
 306.734375 150.713867188 330.04296875 117.50390625 366.317382812 58.662109375 c 4
 395.491210938 8.21875 322.331054688 -23.439453125 299.755859375 22.7236328125 c 5
EndSplineSet
Validated: 33
EndChar

StartChar: NameMe.77
Encoding: -1 -1 50
Width: 505
VWidth: 0
Flags: HMW
HStem: 429 1
LayerCount: 3
Fore
SplineSet
113.334960938 -237.188476562 m 5
 49.056640625 -232.232421875 56.4267578125 -161.268554688 111.94140625 -162.028320312 c 4
 159.862304688 -160.815429688 179.34375 -121.112304688 205.032226562 -74.7392578125 c 4
 224.802734375 -34.7548828125 253.489257812 18.6806640625 227.129882812 54.5244140625 c 5
 141.986328125 218.497070312 125.55859375 232.576171875 51.44140625 382.064453125 c 5
 39.255859375 432.7890625 107.883789062 444.680664062 123.684570312 407.364257812 c 5
 198.244140625 263.396484375 217.724609375 240.62109375 268.317382812 137.461914062 c 4
 271.190429688 128.258789062 282.7109375 125.40234375 286.055664062 133.663085938 c 4
 347.139648438 303.350585938 335.017578125 273.59375 382.26171875 399.809570312 c 5
 405.037109375 450.57421875 468.318359375 430.231445312 453.731445312 377.086914062 c 4
 369.5390625 122.37109375 364.528320312 132.213867188 299.848632812 -42.076171875 c 5
 274.166992188 -100.760742188 269.073242188 -138.435546875 223.280273438 -190.213867188 c 4
 206.127929688 -208.27734375 165.759765625 -238.1328125 113.334960938 -237.188476562 c 5
EndSplineSet
Validated: 33
EndChar

StartChar: NameMe.78
Encoding: -1 -1 51
Width: 416
VWidth: 0
Flags: HMW
HStem: 429 1
LayerCount: 3
Fore
SplineSet
87.4091796875 1.0078125 m 5
 33.2236328125 4.451171875 53.837890625 43.220703125 66.2119140625 62.1337890625 c 4
 77.4248046875 82.607421875 87.982421875 95.3564453125 93.14453125 104.036132812 c 4
 163.780273438 210.118164062 179.3984375 245.513671875 234.626953125 329.500976562 c 4
 238.938476562 336.045898438 247.33984375 345.15234375 237.598632812 345.911132812 c 4
 191.333984375 354.000976562 131.1484375 344.521484375 91.7412109375 347.609375 c 4
 38.3017578125 350.96875 35.3857421875 418.885742188 87.5546875 424.213867188 c 4
 184.9296875 431.078125 288.692382812 426.139648438 336.317382812 425.256835938 c 4
 377.61328125 423.485351562 367.82421875 391.342773438 357.71484375 376.904296875 c 4
 300.41796875 287.610351562 228.033203125 178.610351562 183.116210938 94.3916015625 c 4
 174.448242188 76.541015625 182.2734375 80.46875 201.98828125 79.1767578125 c 4
 250.647460938 80.484375 290.000976562 78.6728515625 326.982421875 78.8740234375 c 5
 384.924804688 75.8388671875 370.59375 -0.2724609375 327.124023438 1.7197265625 c 5
 249.421875 -0.294921875 159.705078125 2.25390625 87.4091796875 1.0078125 c 5
EndSplineSet
Validated: 33
EndChar

StartChar: exclam
Encoding: 0 33 52
Width: 167
VWidth: 0
Flags: W
VStem: 50 66.6924<8.31862 75.5315 177.842 681.894>
LayerCount: 3
Fore
SplineSet
51.5791015625 19.8349609375 m 4
 51.2587890625 45.365234375 50.6484375 35.8701171875 50 61.1103515625 c 5
 53.3330078125 96.3857421875 118.526367188 87.431640625 116.692382812 64.181640625 c 4
 116.276367188 35.1943359375 117.995117188 31.5478515625 116.270507812 19.2861328125 c 4
 115.651367188 -4.361328125 52.4931640625 -7.703125 51.5791015625 19.8349609375 c 4
52.041015625 187.255859375 m 4
 52.041015625 388.89453125 51.904296875 483.788085938 52.201171875 663.309570312 c 4
 51.9912109375 710.989257812 115.458007812 706.487304688 116.953125 664.606445312 c 4
 117.665039062 492.841796875 114.923828125 332.043945312 115.390625 189.021484375 c 5
 110.912109375 157.8984375 54.447265625 160.030273438 52.041015625 187.255859375 c 4
EndSplineSet
Validated: 33
EndChar

StartChar: quotedbl
Encoding: 1 34 53
Width: 322
VWidth: 0
Flags: W
VStem: 50 66.5986<462.929 683.786> 206.7 65.4277<460.906 685.662>
LayerCount: 3
Fore
SplineSet
51.576171875 475.470703125 m 1
 50.8828125 537.858398438 52.546875 608.002929688 50 669.436523438 c 1
 61.5859375 714.889648438 115.248046875 701.162109375 116.598632812 668.4375 c 0
 117.556640625 604.220703125 117.673828125 531.626953125 117.168945312 476.712890625 c 1
 121.229492188 450.125 60.599609375 430.390625 51.576171875 475.470703125 c 1
206.700195312 475.220703125 m 1
 207.612304688 552.08984375 205.423828125 602.544921875 206.328125 670.543945312 c 1
 217.235351562 716.94921875 272.053710938 697.969726562 271.405273438 670.40234375 c 0
 271.978515625 584.798828125 273.002929688 547.416992188 272.127929688 475.399414062 c 0
 271.7109375 442.845703125 210.791015625 441.45703125 206.700195312 475.220703125 c 1
EndSplineSet
Validated: 33
EndChar

StartChar: percent
Encoding: 2 37 54
Width: 737
VWidth: 0
Flags: W
VStem: 432.449 52.6152<106.764 295.179>
LayerCount: 3
Fore
SplineSet
172.7734375 29.0419921875 m 5
 282.44140625 220.692382812 404.05859375 462.841796875 506.779296875 652.90625 c 5
 531.114257812 690.850585938 563.649414062 658.609375 550.458984375 633.517578125 c 4
 458.629882812 439.642578125 309.870117188 188.1015625 214.092773438 10.9951171875 c 4
 203.022460938 -5.556640625 164.236328125 -5.5009765625 172.7734375 29.0419921875 c 5
432.44921875 229.903320312 m 5
 463.676757812 534.333984375 731.640625 505.181640625 681.717773438 211.28125 c 5
 669.546875 -19.86328125 426.01171875 -66.2236328125 432.44921875 229.903320312 c 5
627.091796875 218.995117188 m 5
 647.3828125 488.220703125 513.375 406.390625 485.064453125 223.107421875 c 5
 482.096679688 17.44140625 599.810546875 26.9248046875 627.091796875 218.995117188 c 5
52.744140625 508.241210938 m 4
 86.541015625 770.6875 319.346679688 756.916015625 289.920898438 497.24609375 c 5
 245.166992188 146.358398438 22.91015625 268.903320312 52.744140625 508.241210938 c 4
235.883789062 499.01953125 m 5
 245.282226562 742.401367188 124.734375 655.220703125 110.493164062 506.446289062 c 4
 87.5517578125 303.58203125 212.07421875 260.053710938 235.883789062 499.01953125 c 5
EndSplineSet
Validated: 33
EndChar

StartChar: ampersand
Encoding: 3 38 55
Width: 671
VWidth: 0
Flags: W
LayerCount: 3
Fore
SplineSet
519.916992188 11.251953125 m 5
 488.93359375 37.6328125 486.65234375 49.6767578125 452.6796875 80.6123046875 c 5
 443.278320312 94.6650390625 442.943359375 95.5888671875 431.138671875 85.04296875 c 4
 86.0849609375 -147.174804688 -92.4970703125 267.9609375 189.4453125 374.5078125 c 4
 200.385742188 379.885742188 191.631835938 383.47265625 185.596679688 389.58203125 c 4
 142.923828125 440.873046875 94.55859375 471.805664062 84.3193359375 553.493164062 c 5
 71.875 712.607421875 309.024414062 750.213867188 374.267578125 619.704101562 c 4
 429.9609375 505.375 406.96484375 462.529296875 362.786132812 405.25 c 4
 352.63671875 396.813476562 318.962890625 366.776367188 312.520507812 361.1328125 c 4
 308.987304688 356.880859375 309.403320312 355.6796875 321.100585938 345.134765625 c 4
 364.4765625 293.793945312 368.98046875 278.275390625 424.520507812 212.256835938 c 4
 438.022460938 195.5546875 444.1015625 187.706054688 461.364257812 205.1875 c 4
 495.696289062 245.3671875 528.973632812 277.913085938 562.659179688 322.323242188 c 4
 593.828125 362.447265625 636.379882812 326.416992188 615.979492188 288.19921875 c 5
 575.487304688 237.4140625 550.924804688 215.66015625 511.432617188 167.592773438 c 5
 476.528320312 133.45703125 485.291992188 142.424804688 513.748046875 105.758789062 c 4
 537.37890625 80.1884765625 544.939453125 75.001953125 565.998046875 47.2861328125 c 5
 587.018554688 11.3955078125 544.521484375 -13.82421875 519.916992188 11.251953125 c 5
374.3046875 135.036132812 m 4
 396.029296875 149.673828125 393.81640625 151.09765625 381.055664062 165.682617188 c 4
 347.668945312 204.44921875 333.090820312 236.259765625 265.791992188 309.474609375 c 4
 253.3203125 323.233398438 248.161132812 329.903320312 229.8359375 319.411132812 c 4
 -4.517578125 210.728515625 173.91796875 -23.7314453125 374.3046875 135.036132812 c 4
281.10546875 421.848632812 m 4
 368.370117188 478.450195312 351.954101562 542.75390625 316.111328125 593.827148438 c 4
 263.075195312 675.840820312 147.215820312 624.42578125 147.314453125 577.342773438 c 5
 139.702148438 531.204101562 206.602539062 454.0234375 251.440429688 410.044921875 c 4
 256.517578125 403.802734375 267.797851562 412.499023438 281.10546875 421.848632812 c 4
EndSplineSet
Validated: 33
EndChar

StartChar: quotesingle
Encoding: 4 39 56
Width: 264
VWidth: 0
Flags: W
VStem: 87.7559 89.0078<377.745 519.557>
LayerCount: 3
Fore
SplineSet
87.755859375 396.26953125 m 4
 73.7646484375 471.93359375 65.3603515625 534.365234375 57.326171875 589.119140625 c 5
 4.7509765625 730.780273438 253.923828125 739.319335938 208.806640625 591.89453125 c 5
 198.65625 511.084960938 189.294921875 469.481445312 176.763671875 395.661132812 c 5
 155.384765625 323.436523438 97.126953125 344.025390625 87.755859375 396.26953125 c 4
EndSplineSet
Validated: 33
EndChar

StartChar: y
Encoding: 94 121 57
Width: 505
VWidth: 0
Flags: W
HStem: 429 1
LayerCount: 3
Fore
SplineSet
113.334960938 -237.188476562 m 5
 49.056640625 -232.232421875 56.4267578125 -161.268554688 111.94140625 -162.028320312 c 4
 159.862304688 -160.815429688 179.34375 -121.112304688 205.032226562 -74.7392578125 c 4
 224.802734375 -34.7548828125 253.489257812 18.6806640625 227.129882812 54.5244140625 c 5
 141.986328125 218.497070312 125.55859375 232.576171875 51.44140625 382.064453125 c 5
 39.255859375 432.7890625 107.883789062 444.680664062 123.684570312 407.364257812 c 5
 198.244140625 263.396484375 217.724609375 240.62109375 268.317382812 137.461914062 c 4
 271.190429688 128.258789062 282.7109375 125.40234375 286.055664062 133.663085938 c 4
 347.139648438 303.350585938 335.017578125 273.59375 382.26171875 399.809570312 c 5
 405.037109375 450.57421875 468.318359375 430.231445312 453.731445312 377.086914062 c 4
 369.5390625 122.37109375 364.528320312 132.213867188 299.848632812 -42.076171875 c 5
 274.166992188 -100.760742188 269.073242188 -138.435546875 223.280273438 -190.213867188 c 4
 206.127929688 -208.27734375 165.759765625 -238.1328125 113.334960938 -237.188476562 c 5
EndSplineSet
Validated: 33
EndChar

StartChar: z
Encoding: 95 122 58
Width: 416
VWidth: 0
Flags: W
HStem: 429 1
LayerCount: 3
Fore
SplineSet
87.4091796875 1.0078125 m 5
 33.2236328125 4.451171875 53.837890625 43.220703125 66.2119140625 62.1337890625 c 4
 77.4248046875 82.607421875 87.982421875 95.3564453125 93.14453125 104.036132812 c 4
 163.780273438 210.118164062 179.3984375 245.513671875 234.626953125 329.500976562 c 4
 238.938476562 336.045898438 247.33984375 345.15234375 237.598632812 345.911132812 c 4
 191.333984375 354.000976562 131.1484375 344.521484375 91.7412109375 347.609375 c 4
 38.3017578125 350.96875 35.3857421875 418.885742188 87.5546875 424.213867188 c 4
 184.9296875 431.078125 288.692382812 426.139648438 336.317382812 425.256835938 c 4
 377.61328125 423.485351562 367.82421875 391.342773438 357.71484375 376.904296875 c 4
 300.41796875 287.610351562 228.033203125 178.610351562 183.116210938 94.3916015625 c 4
 174.448242188 76.541015625 182.2734375 80.46875 201.98828125 79.1767578125 c 4
 250.647460938 80.484375 290.000976562 78.6728515625 326.982421875 78.8740234375 c 5
 384.924804688 75.8388671875 370.59375 -0.2724609375 327.124023438 1.7197265625 c 5
 249.421875 -0.294921875 159.705078125 2.25390625 87.4091796875 1.0078125 c 5
EndSplineSet
Validated: 33
EndChar

StartChar: A
Encoding: 44 65 59
Width: 614
VWidth: 0
Flags: W
HStem: 2 21G<506 522.5> 177 52<236.18 387.543>
LayerCount: 3
Fore
SplineSet
488 10 m 0
 465 43 460 29 446 98 c 0
 442 127 430 149 423 158 c 0
 408 173 381 177 349 177 c 0
 305 177 254 168 224 164 c 0
 124 152 159 26 81 16 c 1
 60 19 52 33 51 50 c 0
 51 52 l 0
 51 53 51 55 51 56 c 0
 51 80 61 107 67 118 c 0
 141 257 183 438 229 572 c 0
 236 591 243 615 255 638 c 0
 280 678 303 695 324 695 c 0
 432 695 499 252 535 146 c 1
 547 96 566 69 564 40 c 0
 565 15 534 2 511 2 c 0
 501 2 491 4 488 10 c 0
374 248 m 0
 389 250 403 254 403 268 c 0
 403 346 376 455 340 504 c 0
 333 515 326 524 319 524 c 0
 315 524 312 522 308 516 c 0
 294 495 228 366 228 287 c 0
 228 274 230 263 234 253 c 0
 245 235 262 229 281 229 c 0
 312 229 348 245 374 248 c 0
EndSplineSet
Validated: 33
EndChar

StartChar: B
Encoding: 45 66 60
Width: 555
VWidth: 0
Flags: W
HStem: 1 88<162.776 375.141> 280 83<164.946 277.177> 287 76<155.287 181.906 182.77 282.861> 613 58<137.001 198.691> 617 78<138.531 332.846>
VStem: 50 87<377.324 612.535> 57 90<106.013 279.752> 387 85<457.859 568.217> 421 84<124.364 210.936>
LayerCount: 3
Fore
SplineSet
73 36 m 1x8880
 63 93 57 135 57 181 c 0x8a80
 57 190 57 200 58 210 c 1
 58 261 l 2
 58 373 53 428 51 546 c 1
 52 549 52 553 52 557 c 0
 52 569 50 585 50 599 c 0x8c
 50 612 51 624 57 633 c 0
 62 644 77 671 81 671 c 2
 82 671 l 1x92
 122 684 187 695 247 695 c 0
 307 695 363 684 388 654 c 1
 430 622 456 591 466 563 c 1
 470 543 472 529 472 515 c 0
 472 496 468 479 462 457 c 1
 441 424 427 396 387 370 c 0x8b
 380 364 356 349 356 337 c 1
 426 314 505 258 505 179 c 0
 505 178 505 177 505 176 c 1
 506 172 506 169 506 165 c 0
 506 134 489 97 473 78 c 1
 447 55 414 34 391 23 c 1
 352 14 312 3 279 1 c 0
 186 1 147 3 73 36 c 1x8880
320 98 m 0
 393 106 421 134 421 164 c 0
 421 184 408 206 388 223 c 1
 341 277 338 264 273 287 c 1xa280
 241 285 198 289 182 280 c 0xc280
 180 280 178 281 176 281 c 0
 152 281 147 245 147 207 c 0
 147 175 151 142 151 129 c 1
 162 97 197 89 233 89 c 0
 267 89 303 97 320 98 c 0
372 566 m 1
 332 595 326 610 265 612 c 1
 249 615 237 617 228 617 c 0xcd
 208 617 198 611 174 611 c 0
 169 611 164 612 158 612 c 1
 154 613 151 613 149 613 c 0
 139 613 137 607 137 596 c 0
 137 584 140 568 140 552 c 2
 140 530 l 2
 140 521 140 513 141 509 c 0
 140 498 139 485 139 472 c 0
 139 452 141 432 143 418 c 0
 155 373 162 363 181 363 c 0
 191 363 204 366 222 367 c 0
 314 373 387 461 387 524 c 0xd5
 387 540 382 555 372 566 c 1
EndSplineSet
Validated: 1
EndChar

StartChar: C
Encoding: 46 67 61
Width: 459
VWidth: 0
Flags: W
HStem: 2 74<317.112 405.954>
VStem: 50 91<244.94 486.716>
LayerCount: 3
Fore
SplineSet
242 33 m 5
 193 52 134 97 122 125 c 5
 89 170 70 228 60 265 c 4
 50 302 53 329 50 360 c 4
 50 367 50 374 50 381 c 0
 50 567 165 643 237 677 c 4
 262 686 286 700 331 703 c 5
 371 700 384 706 398 685 c 4
 404 676 407 668 407 661 c 0
 407 599 183 633 151 447 c 4
 143 400 141 379 141 358 c 0
 141 347 141 336 142 322 c 5
 165 168 263 109 380 76 c 5
 396 67 405 72 409 40 c 5
 410 12 387 2 356 2 c 0
 317 2 266 18 242 33 c 5
EndSplineSet
Validated: 33
EndChar

StartChar: D
Encoding: 47 68 62
Width: 523
VWidth: 0
Flags: W
HStem: 1 91<147.079 290.4> 622 78<134 280.428>
VStem: 50 86<431.001 621.947> 57 89<91.6623 590.067> 387 86<196.654 506.824>
LayerCount: 3
Fore
SplineSet
66 26 m 5xe8
 59 78 57 130 57 180 c 0
 57 230 59 277 59 317 c 0
 59 337 58 357 57 373 c 4xd8
 55 383 55 407 55 426 c 4
 52 534 52 558 50 618 c 4
 50 624 50 629 50 634 c 0
 50 675 60 695 81 699 c 5
 99 700 117 700 134 700 c 0
 406 700 463 607 472 373 c 4
 473 359 473 347 473 336 c 0
 473 295 467 274 464 232 c 5
 432 116 432 71 283 15 c 5
 257 7 203 1 156 1 c 0
 108 1 66 7 66 26 c 5xe8
374 232 m 5
 382 285 387 336 387 382 c 0
 387 522 339 622 170 622 c 0
 159 622 149 622 137 621 c 5
 137 613 136 603 136 592 c 0xe8
 136 551 139 495 143 470 c 4
 146 430 147 378 147 325 c 0
 147 255 146 181 146 127 c 0
 146 114 146 102 146 92 c 5
 160 90 173 90 186 90 c 0
 303 90 365 154 374 232 c 5
EndSplineSet
Validated: 1
EndChar

StartChar: E
Encoding: 48 69 63
Width: 472
VWidth: 0
Flags: W
HStem: 0 85<144.922 406.994> 4 89<220.975 409.823> 600 99<184.71 402.719>
VStem: 57 73<402.653 598.825> 66 79<108.898 272.994>
LayerCount: 3
Fore
SplineSet
66 125 m 5xa8
 66 252 62 402 57 523 c 5
 53 557 50 584 50 606 c 0
 50 662 68 681 125 688 c 5
 163 688 252 699 322 699 c 0
 368 699 406 694 414 678 c 5
 420 668 423 659 423 651 c 0
 423 606 327 600 254 600 c 0
 224 600 199 601 184 601 c 5
 159 597 143 605 138 586 c 4
 134 550 130 516 130 485 c 0
 130 425 145 382 203 382 c 0
 211 382 221 383 231 385 c 4
 248 389 275 392 300 392 c 0
 340 392 379 384 379 353 c 0
 379 349 379 344 377 339 c 5
 364 257 160 334 130 261 c 5xb0
 134 203 145 178 145 140 c 0
 145 131 145 120 143 109 c 5
 154 90 184 85 219 85 c 0xa8
 261 85 311 93 342 93 c 0
 343 93 344 93 345 93 c 4
 346 93 347 93 348 93 c 0
 381 93 423 76 419 46 c 5
 409 14 394 6 366 4 c 4
 361 4 357 4 352 4 c 0x68
 292 4 241 0 199 0 c 0
 113 0 65 16 65 108 c 0
 65 114 66 119 66 125 c 5xa8
EndSplineSet
Validated: 33
EndChar

StartChar: F
Encoding: 49 70 64
Width: 462
VWidth: 0
Flags: W
HStem: 1 21G<111.5 121.5> 317 88<210.119 396.848> 325 75<145.086 301.512> 598 94<163.727 399.144> 602 97<151.283 326.104> 609 84<294.406 404.282>
VStem: 50 88<437.899 614> 57 88<63.2671 322 402.313 513.218> 66 77<20 60.8787 63.2671 241.596>
LayerCount: 3
Fore
SplineSet
93 5 m 4xa080
 83 10 66 20 66 20 c 4xa080
 60 65 58 154 58 239 c 0
 58 255 58 271 58 286 c 4
 58 297 57 327 57 327 c 6
 56 343 55 358 55 372 c 0
 55 399 57 425 57 454 c 0xa1
 57 474 56 495 54 520 c 4
 51 544 50 570 50 593 c 0
 50 635 54 669 61 671 c 5
 64 693 108 699 161 699 c 0xaa
 219 699 288 692 328 692 c 0
 332 692 336 692 339 692 c 5x92
 344 693 349 693 353 693 c 0
 386 693 413 674 413 648 c 5
 409 622 402 619 375 609 c 4x86
 353 601 323 598 293 598 c 0x92
 256 598 218 602 191 602 c 0
 185 602 179 601 174 601 c 5
 145 588 138 552 138 515 c 0x8a
 138 477 145 438 145 420 c 0
 145 418 145 416 145 414 c 0
 145 403 172 400 208 400 c 0xa9
 253 400 311 405 351 405 c 0
 376 405 394 403 397 397 c 4
 406 382 410 370 410 360 c 0
 410 325 360 317 304 317 c 0xc1
 251 317 193 325 166 325 c 0
 162 325 158 324 156 324 c 4
 152 323 148 322 146 322 c 4
 143 290 142 266 142 243 c 0
 142 213 144 186 147 150 c 4
 151 118 152 89 152 62 c 4
 152 38 151 19 143 8 c 4
 137 3 127 1 116 1 c 0
 107 1 98 2 93 5 c 4xa080
EndSplineSet
Validated: 1
EndChar

StartChar: G
Encoding: 50 71 65
Width: 619
VWidth: 0
Flags: W
HStem: 2 76<270.252 456.558> 294 88<386.95 501.805> 614 87<292.716 485.621> 623 78<319.601 485.621>
VStem: 383 186<294.289 367.627> 503 57<127.056 292.334>
LayerCount: 3
Fore
SplineSet
192 45 m 4xe4
 161 77 170 56 139 89 c 4
 93 171 77 239 55 322 c 4
 51 339 50 355 50 372 c 0
 50 448 84 518 101 540 c 4
 104 549 109 557 113 560 c 4
 180 657 266 701 414 701 c 4
 417 701 421 701 425 701 c 0
 434 701 442 701 451 701 c 0xe4
 465 701 478 700 486 693 c 4
 494 680 498 669 498 660 c 0
 498 637 479 625 471 623 c 4xd4
 447 615 447 619 406 614 c 4
 303 609 263 585 216 535 c 4
 171 492 150 446 141 382 c 4
 144 359 141 298 154 273 c 4
 172 218 182 186 210 156 c 5
 235 103 305 78 369 78 c 0
 423 78 472 96 483 132 c 4
 498 167 493 183 501 228 c 4
 502 240 503 251 503 260 c 0xe4
 503 279 499 292 485 293 c 4
 483 293 480 294 477 294 c 0
 464 294 445 290 428 290 c 0
 407 290 389 295 385 318 c 4
 383 327 383 335 383 341 c 0
 383 379 409 370 435 378 c 4
 441 380 452 382 465 382 c 0
 505 382 565 370 569 350 c 4xe8
 566 277 568 286 565 215 c 4
 562 190 560 172 560 157 c 4
 543 41 476 30 405 4 c 4
 396 3 384 2 371 2 c 0
 313 2 230 16 192 45 c 4xe4
EndSplineSet
Validated: 1
EndChar

StartChar: H
Encoding: 51 72 66
Width: 529
VWidth: 0
Flags: W
HStem: 1 21G<429.5 460> 302 94<161.246 393.999> 680 20G<95.5 106>
VStem: 59 85<4.02161 141.948> 59 78<4.02161 277.848 396.488 646.298> 386 93<529.172 693.387> 401 78<3.64404 303.986>
LayerCount: 3
Fore
SplineSet
87 1 m 5xf0
 62 10 66 30 62 44 c 4
 60 72 59 108 59 135 c 0xf0
 59 144 59 152 59 159 c 4xe8
 59 308 59 464 53 610 c 4
 51 618 50 632 50 647 c 0
 50 669 53 693 64 695 c 4
 74 696 89 700 102 700 c 0
 110 700 118 698 121 692 c 5
 142 669 143 628 143 592 c 0
 143 590 143 588 143 586 c 0
 143 574 143 562 144 552 c 4
 145 513 146 481 146 451 c 4
 146 443 146 406 150 396 c 5
 175 395 195 394 212 394 c 0
 260 394 288 398 345 398 c 0
 359 398 374 397 392 397 c 4
 393 397 394 401 394 406 c 4
 391 435 390 460 390 485 c 0
 390 500 390 513 390 528 c 0
 390 553 389 578 386 606 c 5
 388 650 383 699 428 699 c 0
 433 699 439 698 446 697 c 5
 473 696 479 652 479 604 c 0xf4
 479 566 475 526 475 503 c 4
 475 500 475 495 475 492 c 4
 477 342 478 173 479 68 c 4
 479 61 479 54 479 48 c 0
 479 1 474 2 446 1 c 4
 413 3 407 2 401 52 c 5
 401 62 401 71 401 81 c 0
 401 143 397 208 397 265 c 0
 397 278 398 290 398 302 c 5
 373 305 354 306 339 306 c 0
 308 306 290 302 257 302 c 4
 251 302 245 302 240 302 c 0
 125 302 139 242 137 144 c 5xea
 142 100 140 70 144 58 c 5
 144 55 144 52 144 49 c 0
 144 14 126 -1 102 -1 c 0
 97 -1 92 0 87 1 c 5xf0
EndSplineSet
Validated: 1
EndChar

StartChar: I
Encoding: 52 73 67
Width: 361
VWidth: 0
Flags: W
HStem: 1 85<55.9919 143> 618 83<72.1388 148 212 306.324> 618 76<65.4248 148 212 306.324>
VStem: 143 72<87 617.957>
LayerCount: 3
Fore
SplineSet
70 80 m 4xd0
 85 85 112 86 130 86 c 0
 135 86 139 86 143 86 c 5
 149 256 145 460 148 618 c 5
 144 618 139 618 135 618 c 0
 123 618 112 618 102 618 c 0xd0
 87 618 74 619 65 627 c 4
 55 636 51 649 51 662 c 0
 51 677 57 691 71 694 c 4xb0
 95 701 138 701 181 701 c 4
 219 701 264 700 286 696 c 4
 305 692 311 677 311 662 c 0
 311 647 305 633 298 629 c 5
 289 617 241 621 212 618 c 5
 212 619 213 619 213 619 c 0
 216 619 217 561 217 484 c 0
 217 377 215 233 215 150 c 0
 215 117 215 94 216 87 c 5
 224 87 233 87 242 87 c 0
 255 87 270 87 284 85 c 4
 299 81 308 62 308 43 c 0
 308 24 300 6 283 2 c 5
 246 2 202 1 164 1 c 0
 117 1 79 2 72 4 c 5
 55 15 50 28 50 41 c 0
 50 60 63 78 70 80 c 4xd0
EndSplineSet
Validated: 5
EndChar

StartChar: J
Encoding: 53 74 68
Width: 310
VWidth: 0
Flags: W
HStem: 1 78<52.3318 126.999> 681 20G<211 224>
VStem: 177 83<525.374 697.957> 186 74<126.639 639.165>
LayerCount: 3
Fore
SplineSet
52 19 m 5xd0
 51 28 50 36 50 43 c 0
 50 64 56 75 71 79 c 5
 72 79 73 79 74 79 c 0
 84 79 111 87 134 100 c 4
 157 112 174 135 176 157 c 4
 183 198 186 237 186 278 c 0xd0
 186 309 184 340 183 374 c 5
 184 385 184 396 184 408 c 0
 184 446 181 487 181 519 c 4
 181 521 181 522 181 524 c 0
 181 553 177 602 177 641 c 0
 177 672 180 696 189 697 c 4
 196 699 206 701 216 701 c 0
 232 701 249 697 255 687 c 5
 259 673 260 658 260 642 c 0xe0
 260 625 259 609 259 593 c 0
 259 588 259 584 259 579 c 4
 259 510 260 439 260 369 c 0
 260 281 259 194 253 110 c 5
 240 72 226 66 227 65 c 5
 207 39 162 26 146 15 c 4
 144 13 139 11 135 11 c 4
 131 11 127 10 127 10 c 4
 127 10 125 9 124 9 c 4
 110 4 98 1 87 1 c 0
 71 1 59 7 52 19 c 5xd0
EndSplineSet
Validated: 33
EndChar

StartChar: K
Encoding: 54 75 69
Width: 556
VWidth: 0
Flags: W
HStem: 0 21G<445.5 459.5> 681 20G<93.5 116.5>
VStem: 50 74<461.423 690.466> 52 81<18.8301 297.607 381 691.611> 408 57<662.441 681.413>
LayerCount: 3
Fore
SplineSet
78 9 m 5xd8
 56 8 51 52 51 96 c 0
 51 126 54 156 54 171 c 4
 54 176 54 181 54 183 c 4
 52 232 53 212 52 258 c 4
 52 283 52 310 52 337 c 0xd8
 52 452 50 575 50 666 c 0
 50 684 87 700 100 701 c 4
 101 701 103 701 104 701 c 0
 129 701 114 683 124 673 c 5xe8
 133 628 134 567 134 517 c 0
 134 508 134 499 134 491 c 5
 132 480 131 470 131 461 c 0
 131 448 133 437 133 426 c 0
 133 422 133 418 132 414 c 4
 131 410 131 406 131 402 c 0
 131 394 132 387 132 381 c 5
 146 402 149 401 163 422 c 5
 193 452 200 473 219 494 c 4
 224 499 228 504 228 505 c 4
 228 506 233 513 240 519 c 4
 247 525 260 537 268 545 c 4
 325 613 346 634 408 678 c 4
 408 680 414 683 421 685 c 4
 426 686 429 687 432 687 c 0
 438 687 442 683 455 670 c 5
 461 668 465 663 465 656 c 0
 465 641 451 618 425 593 c 5
 373 530 316 477 263 420 c 4
 255 408 231 380 229 374 c 5
 237 351 260 333 273 314 c 4
 308 270 324 248 352 215 c 4
 401 153 432 118 473 74 c 4
 487 63 506 51 506 39 c 4
 506 32 505 25 503 23 c 4
 501 21 499 17 499 16 c 4
 483 5 467 0 452 0 c 0
 439 0 426 4 415 12 c 5
 402 29 372 50 361 65 c 4
 320 121 303 131 283 167 c 4
 277 177 269 186 263 194 c 4
 248 213 242 223 227 239 c 4
 220 247 213 254 213 255 c 4
 204 267 190 271 180 286 c 5
 170 296 172 303 168 303 c 0
 166 303 164 301 158 299 c 4
 151 296 133 287 133 279 c 0
 133 278 134 278 134 277 c 5
 133 263 133 249 133 235 c 0
 133 189 137 141 137 97 c 0
 137 76 136 57 133 39 c 5
 120 25 112 16 96 11 c 4
 86 8 84 8 78 9 c 5xd8
EndSplineSet
Validated: 33
EndChar

StartChar: L
Encoding: 55 76 70
Width: 475
VWidth: 0
Flags: W
HStem: 2 82<140.428 411.974> 11 79<360.749 417.626> 681 20G<96 108>
VStem: 51 87<86.41 677.461> 59 81<493.074 694.757>
LayerCount: 3
Fore
SplineSet
86 5 m 4xb0
 61 9 53 11 51 32 c 4
 50 52 50 67 50 82 c 0
 50 111 51 138 51 195 c 4
 51 216 51 239 51 263 c 0
 51 343 50 437 50 492 c 0
 50 515 50 532 51 538 c 5
 51 550 51 562 51 573 c 0xb0
 51 624 52 667 59 678 c 4
 70 694 88 701 104 701 c 0
 112 701 120 699 126 695 c 4
 134 690 140 673 140 659 c 0xa8
 140 655 139 650 138 647 c 5xb0
 139 627 140 607 140 589 c 0xa8
 140 561 139 536 139 513 c 0
 139 508 139 503 139 498 c 4
 139 392 139 303 136 215 c 5
 138 201 138 188 138 176 c 0
 138 163 138 150 138 138 c 0
 138 123 139 107 142 89 c 5
 163 85 186 84 210 84 c 0xb0
 262 84 318 90 362 90 c 0
 364 90 367 90 369 90 c 4
 377 90 384 90 390 90 c 0
 403 90 410 89 418 83 c 5
 422 67 425 55 425 44 c 0
 425 33 422 24 413 11 c 5x70
 391 4 376 2 360 2 c 0
 348 2 335 3 320 3 c 0
 312 3 303 3 293 2 c 4
 285 1 276 1 267 1 c 0
 249 1 232 2 220 2 c 4
 196 2 172 1 149 1 c 0
 126 1 104 2 86 5 c 4xb0
EndSplineSet
Validated: 1
EndChar

StartChar: M
Encoding: 56 77 71
Width: 622
VWidth: 0
Flags: W
HStem: 1 21G<110 121 530 550.5> 680 20G<83.5 88 526 542.5>
VStem: 50 86<57.8404 449> 483 87<193.801 449.859> 497 75<12.1875 271.73>
LayerCount: 3
Fore
SplineSet
83 7 m 4xf0
 69 13 54 40 52 66 c 4
 51 77 51 80 50 90 c 4
 52 145 53 195 53 242 c 0
 53 329 50 404 50 478 c 0
 50 496 51 514 51 532 c 4
 54 583 47 679 65 692 c 5
 77 698 81 700 86 700 c 0
 90 700 94 699 105 698 c 4
 118 696 122 696 130 692 c 4
 141 679 141 673 144 669 c 4
 199 513 259 334 303 194 c 4
 309 183 307 178 317 181 c 5
 324 189 335 212 341 223 c 4
 390 382 407 454 451 629 c 4
 457 642 471 685 475 689 c 5
 488 693 516 701 536 701 c 0
 549 701 559 697 559 687 c 4
 561 670 561 658 562 643 c 4
 568 555 570 471 570 392 c 0
 570 321 569 254 569 191 c 0
 569 158 569 126 570 95 c 4xf0
 570 84 571 73 571 70 c 4
 572 58 572 48 572 40 c 0
 572 37 572 34 572 31 c 4
 566 8 566 1 535 1 c 4
 525 1 505 1 500 12 c 4
 497 16 497 20 497 31 c 4xe8
 488 186 492 285 483 442 c 4
 485 444 485 447 482 450 c 4
 478 454 477 453 475 444 c 4
 424 283 428 222 368 115 c 4
 361 104 362 102 354 92 c 4
 345 79 339 75 329 72 c 4
 206 75 191 428 138 449 c 5
 137 426 136 402 136 377 c 0
 136 316 139 253 139 208 c 0
 139 203 139 199 139 195 c 4
 139 193 139 190 139 187 c 0
 139 151 143 95 143 56 c 0
 143 37 142 22 139 17 c 5
 136 5 127 1 115 1 c 0
 105 1 93 4 83 7 c 4xf0
EndSplineSet
Validated: 1
EndChar

StartChar: N
Encoding: 57 78 72
Width: 564
VWidth: 0
Flags: W
HStem: 2 20G<84 98 444 474> 681 20G<483 491.5>
VStem: 51 80<61.0041 558.265> 53 105<7.50534 194.785> 425 86<239.221 679.321> 441 70<103.059 360.66 491.279 697.237>
LayerCount: 3
Fore
SplineSet
65 5 m 1xd0
 59 12 62 7 59 17 c 0
 57 52 53 75 53 100 c 0
 53 104 53 108 53 112 c 0
 53 118 53 124 53 130 c 0xd0
 53 159 54 185 54 204 c 0
 54 208 54 212 54 215 c 0
 52 241 51 265 51 289 c 0xe0
 51 324 52 358 52 394 c 0
 52 403 52 413 52 423 c 0
 49 425 50 425 52 426 c 0
 52 463 52 505 52 543 c 0
 52 581 52 613 53 629 c 0
 54 643 55 656 56 657 c 0
 58 659 56 661 56 663 c 0
 56 670 71 686 77 688 c 0
 105 686 138 687 144 680 c 0
 236 565 248 418 325 299 c 0
 346 267 372 228 389 204 c 0
 410 179 423 143 441 118 c 0
 448 110 450 106 450 104 c 0
 449 103 l 0
 447 103 442 111 441 125 c 0xd4
 438 235 425 367 425 488 c 0
 425 558 430 625 443 682 c 0
 448 692 463 699 472 699 c 0
 476 699 482 700 484 701 c 0
 499 694 509 697 512 672 c 0
 512 670 513 663 514 657 c 0
 515 650 515 646 515 642 c 0
 515 637 515 633 513 623 c 0
 512 614 511 585 511 560 c 0
 511 507 510 508 509 475 c 0
 509 417 510 352 510 309 c 0
 510 298 510 289 510 282 c 1
 511 271 511 262 511 253 c 0xc8
 511 241 511 231 511 225 c 0
 511 223 511 221 511 220 c 0
 511 209 510 199 510 189 c 0
 510 155 513 130 513 110 c 0
 513 101 512 93 511 87 c 1
 500 51 492 12 456 1 c 1
 432 5 422 9 417 16 c 0
 405 26 420 11 411 20 c 0
 332 96 291 215 234 305 c 0
 221 329 223 327 209 355 c 0
 196 381 196 383 187 404 c 1
 172 428 165 447 156 468 c 0
 141 507 139 533 126 558 c 1
 127 564 129 548 131 542 c 0
 131 533 130 529 132 524 c 0
 135 499 136 473 136 447 c 0
 136 388 131 327 131 272 c 0xe4
 131 246 132 221 135 198 c 0
 136 196 138 187 138 177 c 0
 140 162 139 145 143 135 c 0
 145 130 146 115 147 102 c 0
 148 89 150 70 153 60 c 0
 156 49 158 39 158 30 c 0
 158 18 155 9 148 9 c 0
 131 7 108 2 88 2 c 0
 80 2 71 3 65 5 c 1xd0
EndSplineSet
Validated: 5
EndChar

StartChar: O
Encoding: 58 79 73
Width: 672
VWidth: 0
Flags: W
HStem: 1 86<267.38 420.45> 619 82<259.611 420.516>
VStem: 50 90<250.269 476.134> 542 79<234.53 470.269>
LayerCount: 3
Fore
SplineSet
50 360 m 1
 48 588 197 701 343 701 c 0
 484 701 623 596 623 389 c 0
 623 375 622 362 621 347 c 1
 621 340 621 334 621 327 c 0
 621 114 483 1 342 1 c 0
 200 1 56 116 50 360 c 1
542 356 m 1
 536 533 437 619 339 619 c 0
 240 619 141 530 140 358 c 1
 155 172 249 87 343 87 c 0
 443 87 543 184 542 356 c 1
EndSplineSet
Validated: 33
EndChar

StartChar: P
Encoding: 59 80 74
Width: 516
VWidth: 0
Flags: W
HStem: 1 21G<103.5 107.5> 258 78<156.188 306.416> 268 80<132.329 230.531> 618 81<137.208 365.983> 618 76<254.282 365.983>
VStem: 54 72<22.2366 267.495 363.142 603.439> 390 77<404.891 596.367>
LayerCount: 3
Fore
SplineSet
55 43 m 4xa6
 54 57 55 60 54 76 c 4
 54 93 53 103 53 115 c 0
 53 127 53 142 55 169 c 4
 55 177 56 184 56 192 c 0
 56 228 51 258 51 294 c 0
 51 301 52 309 52 317 c 4
 52 321 52 326 52 330 c 0
 52 360 50 386 50 412 c 0
 50 421 50 430 51 440 c 4
 51 480 54 511 54 539 c 0
 54 548 54 557 53 566 c 4
 52 572 52 578 52 583 c 0
 52 617 63 636 67 644 c 4
 79 663 104 680 124 684 c 4
 163 690 162 699 195 699 c 0
 198 699 201 699 205 699 c 4
 207 699 210 699 212 699 c 0xb6
 231 699 243 701 254 701 c 0
 260 701 267 700 273 698 c 4
 277 696 286 694 291 694 c 4
 340 689 340 692 377 684 c 4
 397 681 410 660 427 648 c 4
 430 646 433 643 433 641 c 4
 445 624 451 604 455 589 c 4
 464 568 467 536 467 505 c 0
 467 480 465 454 463 435 c 4
 461 416 444 377 431 362 c 4
 404 327 392 301 346 278 c 4
 343 278 308 271 308 270 c 4
 274 263 253 258 231 258 c 0xce
 221 258 211 259 200 261 c 4
 196 262 191 263 189 264 c 4
 187 265 179 266 170 267 c 4
 165 268 160 268 156 268 c 0
 137 268 130 261 129 249 c 4
 129 220 128 195 128 172 c 0
 128 160 128 149 129 139 c 4
 131 131 132 109 132 94 c 0
 132 85 131 79 131 78 c 4
 131 62 134 57 134 46 c 4
 134 35 135 27 135 22 c 4
 135 12 134 8 127 5 c 4
 115 2 110 1 105 1 c 0
 102 1 98 1 92 2 c 4
 82 1 73 4 65 4 c 5
 56 9 54 19 54 28 c 0
 54 34 55 40 55 43 c 4xa6
268 338 m 4
 313 343 317 349 346 373 c 4
 348 373 368 404 371 408 c 4
 374 412 376 422 378 424 c 4
 386 453 390 436 390 465 c 5
 392 478 392 484 392 488 c 0
 392 497 388 489 387 525 c 4
 387 567 377 584 366 600 c 4
 366 602 342 608 339 609 c 4
 311 610 317 612 297 614 c 5
 290 617 284 618 277 618 c 0
 267 618 258 616 248 616 c 5
 241 618 233 619 224 619 c 0
 211 619 198 618 189 617 c 4
 186 617 184 618 180 618 c 0
 173 618 162 616 136 604 c 5
 125 592 131 582 127 560 c 4
 126 557 126 553 126 549 c 0
 126 540 127 528 127 518 c 0
 127 516 127 514 127 512 c 4
 126 499 126 486 126 475 c 0
 126 451 128 431 131 410 c 4
 131 408 131 406 131 404 c 0
 131 394 130 384 130 376 c 0
 130 371 131 366 132 363 c 4
 139 348 147 349 167 348 c 5
 168 348 170 348 171 348 c 0xb6
 181 348 191 342 217 337 c 5
 234 336 240 336 244 336 c 0xc6
 249 336 252 336 268 338 c 4
EndSplineSet
Validated: 33
EndChar

StartChar: u
Encoding: 90 117 75
Width: 444
VWidth: 0
Flags: W
HStem: 429 1
LayerCount: 3
Fore
SplineSet
321.239257812 32.216796875 m 4
 321.403320312 40.3291015625 323.228515625 55.376953125 320.76171875 66.2529296875 c 5
 223.6015625 -46.3837890625 46.3818359375 -10.6591796875 50.056640625 154.233398438 c 4
 51.07421875 270.646484375 50.591796875 282.475585938 51.6162109375 393.916992188 c 5
 60.41796875 452.041015625 129.112304688 438.018554688 127.965820312 395.26953125 c 4
 128.627929688 253.234375 128.657226562 305.416015625 129.280273438 162.033203125 c 5
 123.69921875 103.463867188 188.8828125 11.3203125 314.990234375 168.57421875 c 5
 318.456054688 272.580078125 319.40625 221.440429688 317.958007812 401.041992188 c 4
 316.791015625 435.780273438 389.358398438 448.537109375 394.978515625 401.561523438 c 5
 395.0703125 275.084960938 394.8515625 152.19921875 393.557617188 30.6826171875 c 4
 394.80078125 -6.923828125 326.061523438 -12.7373046875 321.239257812 32.216796875 c 4
EndSplineSet
Validated: 33
EndChar

StartChar: v
Encoding: 91 118 76
Width: 470
VWidth: 0
Flags: W
HStem: 429 1
LayerCount: 3
Fore
SplineSet
194.053710938 30.5751953125 m 5
 136.608398438 166.229492188 98.4462890625 258.662109375 52.0634765625 383.286132812 c 5
 37.0341796875 440.365234375 108.7265625 444.944335938 118.381835938 407.875 c 5
 168.354492188 298.37109375 188.423828125 226.342773438 231.780273438 133.204101562 c 5
 235.245117188 121.112304688 239.818359375 105.966796875 249.8515625 132.036132812 c 4
 284.78125 221.879882812 313.537109375 299.567382812 350.84375 404.009765625 c 4
 366.368164062 448.254882812 431.591796875 435.377929688 418.58984375 383.827148438 c 5
 375.970703125 249.517578125 333.399414062 133.142578125 283.354492188 26.130859375 c 5
 261.907226562 -4.7529296875 222.134765625 -12.6708984375 194.053710938 30.5751953125 c 5
EndSplineSet
Validated: 33
EndChar

StartChar: w
Encoding: 92 119 77
Width: 666
VWidth: 0
Flags: W
HStem: 429 1
LayerCount: 3
Fore
SplineSet
156.096679688 40.7021484375 m 5
 110.298828125 152.938476562 78.53515625 288.663085938 50.291015625 382.58984375 c 5
 45.16796875 441.126953125 109.315429688 441.05078125 121.944335938 399.5 c 4
 151.920898438 306.881835938 172.720703125 220.388671875 199.697265625 134.641601562 c 4
 201.416992188 128.423828125 202.818359375 127.8359375 206.21875 135.111328125 c 4
 230.828125 221.44140625 244.958984375 326.328125 278.78515625 403.102539062 c 5
 296.545898438 434.833984375 347.313476562 439.795898438 369.52734375 405.057617188 c 5
 409.375976562 307.692382812 428.424804688 225.625976562 472.102539062 135.5625 c 5
 475.51953125 121.750976562 479.08984375 131.651367188 479.952148438 135.096679688 c 4
 514.114257812 261.665039062 517.395507812 295.326171875 544.616210938 401.813476562 c 5
 563.418945312 448.948242188 623.76171875 428.43359375 615.509765625 386.288085938 c 4
 590.948242188 259.75 564.809570312 158.330078125 532.845703125 54.6279296875 c 4
 509.817382812 -17.3125 447.341796875 -17.9111328125 422.193359375 52.91015625 c 5
 381.256835938 159.204101562 337.637695312 274.846679688 325.841796875 295 c 4
 323.428710938 299.642578125 323.374023438 302.0234375 320.65625 294.795898438 c 4
 291.004882812 169.073242188 287.153320312 133.435546875 250.959960938 42.8505859375 c 4
 234.5078125 0.705078125 185.412109375 -23.87109375 156.096679688 40.7021484375 c 5
EndSplineSet
Validated: 33
EndChar

StartChar: x
Encoding: 93 120 78
Width: 423
VWidth: 0
Flags: W
HStem: 429 1
LayerCount: 3
Fore
SplineSet
299.755859375 22.7236328125 m 5
 262.856445312 82.490234375 256.923828125 90.185546875 216.825195312 150.393554688 c 4
 211.842773438 158.891601562 209.096679688 152.012695312 207.689453125 149.7421875 c 4
 175.755859375 100.12890625 155.107421875 73.3818359375 124.442382812 23.1201171875 c 5
 92.66796875 -24.6796875 32.5830078125 11.0888671875 56.5771484375 58.7470703125 c 5
 122.462890625 152.360351562 117.825195312 146.975585938 157.645507812 205.784179688 c 4
 168.786132812 219.02734375 169.97265625 230.560546875 161.802734375 240.05078125 c 4
 119.7578125 290.392578125 95.458984375 318.403320312 52.8828125 378.05078125 c 5
 35.9736328125 432.190429688 98.15234375 444.071289062 117.139648438 414.877929688 c 5
 159.970703125 366.649414062 165.693359375 345.56640625 202.7890625 305.501953125 c 4
 207.510742188 298.75390625 216.811523438 300.01171875 220.294921875 306.717773438 c 4
 248.245117188 348.846679688 264.346679688 376.977539062 289.633789062 415.21484375 c 5
 326.572265625 456.934570312 375.30859375 413.885742188 352.646484375 375.301757812 c 4
 299.106445312 289.223632812 310.640625 312.565429688 264.485351562 239.413085938 c 5
 254.48828125 229.338867188 260.905273438 217.364257812 267.567382812 207.748046875 c 4
 306.734375 150.713867188 330.04296875 117.50390625 366.317382812 58.662109375 c 4
 395.491210938 8.21875 322.331054688 -23.439453125 299.755859375 22.7236328125 c 5
EndSplineSet
Validated: 33
EndChar

StartChar: Q
Encoding: 60 81 79
Width: 654
VWidth: 0
Flags: W
HStem: -0 93<260.617 423.634> 602 99<234.35 411.876>
VStem: 39 101<226.503 496.83> 514 79<-85.8182 -55.546> 520 96<209.938 481.221>
LayerCount: 3
Fore
SplineSet
514 -86 m 4xf0
 492 -65 460 14 438 14 c 0
 437 14 l 5
 406 4 375 0 343 -0 c 0
 272 0 201 23 150 66 c 4
 74 133 40 250 39 361 c 4
 39 363 39 365 39 367 c 0
 39 445 58 510 89 570 c 4
 137 665 217 701 332 701 c 0
 345 701 359 701 373 700 c 5
 547 674 616 514 616 352 c 0xe8
 616 238 582 124 526 54 c 5
 545 8 586 -10 593 -47 c 5
 591 -81 563 -95 540 -95 c 0
 529 -95 519 -92 514 -86 c 4xf0
520 351 m 5
 507 464 509 567 349 601 c 5
 342 601 335 602 328 602 c 0
 256 602 208 581 166 509 c 5
 150 467 140 411 140 355 c 0
 140 259 169 161 245 123 c 5
 281 100 318 93 355 93 c 5
 486 109 520 226 520 351 c 5
EndSplineSet
Validated: 1
EndChar

StartChar: R
Encoding: 61 82 80
Width: 560
VWidth: 0
Flags: W
HStem: 1 21G<93.5 115> 280 78<143.848 254.525> 619 82<139.197 323.995>
VStem: 51 83<361.161 610.356> 59 84<7.93282 278.116> 391 77<445.237 565.929>
LayerCount: 3
Fore
SplineSet
59 49 m 5xec
 59 56 59 63 59 70 c 0xec
 59 173 53 328 51 489 c 5xf4
 52 497 52 505 52 514 c 0
 52 538 50 565 50 591 c 0
 50 613 51 634 57 655 c 4
 61 677 88 684 111 691 c 4
 141 701 187 699 208 700 c 4
 215 700 222 701 229 701 c 0
 393 701 468 597 468 493 c 0
 468 413 423 334 340 302 c 5
 381 233 453 119 502 70 c 5
 508 60 511 51 511 43 c 0
 511 19 488 3 463 3 c 0
 449 3 433 8 421 20 c 5
 365 90 302 199 255 275 c 5
 245 279 227 280 207 280 c 0
 185 280 161 279 143 277 c 5
 143 268 142 257 142 245 c 0
 142 203 145 147 145 102 c 0
 145 83 144 65 143 52 c 5
 143 49 143 46 143 44 c 0
 143 13 125 1 105 1 c 0
 82 1 56 19 59 49 c 5xec
195 619 m 5
 128 610 135 602 134 537 c 4
 134 529 134 521 134 513 c 0xf4
 134 461 136 397 137 365 c 5
 157 360 176 358 195 358 c 0
 310 358 391 438 391 509 c 0
 391 567 338 619 207 619 c 0
 203 619 199 619 195 619 c 5
EndSplineSet
Validated: 33
EndChar

StartChar: S
Encoding: 62 83 81
Width: 503
VWidth: 0
Flags: W
HStem: 3 88<58.1211 310.407> 4 95<60.1293 206.735> 296 104<180.792 311.342> 605 97<195.628 410.812>
VStem: 50 87<440.971 553.532> 356 94<133.549 254.311>
LayerCount: 3
Fore
SplineSet
127 4 m 1x7c
 121 3 115 3 109 3 c 0xbc
 69 3 50 26 50 49 c 0
 50 74 71 99 109 99 c 0
 110 99 112 99 113 99 c 1x7c
 155 94 181 91 208 91 c 0
 216 91 225 91 234 92 c 0
 321 96 356 143 356 191 c 0
 356 242 316 294 255 296 c 0
 129 300 50 405 50 507 c 0
 50 597 110 684 250 701 c 1
 269 701 286 702 304 702 c 0
 341 702 377 699 420 685 c 1
 442 680 453 659 453 638 c 0
 453 616 440 595 411 595 c 0
 407 595 403 595 398 596 c 0
 368 602 339 605 310 605 c 0
 296 605 282 605 267 603 c 0
 179 596 137 546 137 497 c 0
 137 448 179 401 260 400 c 0
 392 397 450 302 450 205 c 0
 450 104 387 1 282 1 c 0
 270 1 257 2 244 5 c 1
 226 4 210 3 196 3 c 0xbc
 174 3 155 4 138 4 c 0
 134 4 131 4 127 4 c 1x7c
EndSplineSet
Validated: 1
EndChar

StartChar: T
Encoding: 63 84 82
Width: 588
VWidth: 0
Flags: W
HStem: 0 21G<281.5 302.5> 617 82<53.8406 253 331.846 534.999>
VStem: 253 81<3.94003 612>
LayerCount: 3
Fore
SplineSet
253 32 m 5
 250 102 250 178 250 254 c 0
 250 390 252 523 253 612 c 5
 195 616 156 612 86 617 c 5
 85 617 85 617 84 617 c 0
 62 617 50 637 50 658 c 0
 50 679 62 699 85 699 c 0
 86 699 86 699 87 699 c 4
 112 698 140 697 171 697 c 0
 255 697 355 701 438 701 c 0
 468 701 496 700 520 699 c 5
 533 694 539 679 539 662 c 0
 539 641 530 619 514 616 c 4
 498 614 479 613 460 613 c 0
 438 613 414 614 391 614 c 0
 370 614 349 613 331 610 c 5
 333 390 332 200 334 34 c 4
 334 11 313 0 292 0 c 0
 271 0 252 11 253 32 c 5
EndSplineSet
Validated: 33
EndChar

StartChar: U
Encoding: 64 85 83
Width: 597
VWidth: 0
Flags: W
HStem: 1 21G<171 411> 681 20G<484 507>
VStem: 50 99<182.738 690.945> 449 96<155.578 693.033>
LayerCount: 3
Fore
SplineSet
51 425 m 4
 51 451 50 478 50 523 c 0
 50 557 50 601 53 662 c 5
 56 687 78 698 100 698 c 0
 124 698 147 685 146 664 c 5
 148 590 149 530 149 475 c 0
 149 457 149 440 149 422 c 4
 149 409 149 396 149 384 c 0
 149 111 212 88 309 82 c 5
 442 93 449 184 449 350 c 0
 449 371 449 393 449 416 c 0
 449 424 449 432 449 440 c 5
 448 452 448 466 448 482 c 0
 448 518 449 565 449 616 c 0
 449 629 449 642 449 656 c 5
 451 688 473 701 495 701 c 0
 519 701 543 685 543 661 c 0
 543 659 543 657 543 655 c 5
 544 612 545 582 545 557 c 0
 545 530 544 510 544 487 c 0
 544 474 545 461 545 445 c 4
 546 406 548 369 548 334 c 0
 548 134 512 7 310 1 c 5
 32 6 57 176 51 425 c 4
EndSplineSet
Validated: 33
EndChar

StartChar: V
Encoding: 65 86 84
Width: 660
VWidth: 0
Flags: W
HStem: 1 21G<299.5 342> 681 20G<88 110.5 550.5 571.5>
LayerCount: 3
Fore
SplineSet
211 93 m 1
 144 291 124 377 53 637 c 1
 51 644 50 651 50 657 c 0
 50 686 76 701 100 701 c 0
 121 701 141 689 143 665 c 1
 195 467 251 275 301 118 c 1
 307 112 313 109 319 109 c 0
 326 109 333 113 338 119 c 1
 405 289 480 547 517 674 c 1
 528 693 543 701 558 701 c 0
 585 701 611 677 611 655 c 0
 611 652 611 650 610 647 c 0
 553 444 503 294 431 88 c 1
 399 25 360 1 324 1 c 0
 275 1 229 45 211 93 c 1
EndSplineSet
Validated: 1
EndChar

StartChar: W
Encoding: 66 87 85
Width: 864
VWidth: 0
Flags: W
HStem: 1 21G<258 273 607.5 624>
VStem: 50 64<606.718 692.269> 744 71<653.141 691.363>
LayerCount: 3
Fore
SplineSet
227 30 m 5
 145 333 144 306 51 650 c 5
 50 653 50 657 50 660 c 0
 50 682 66 694 82 694 c 0
 95 694 108 686 114 668 c 4
 163 529 210 342 255 181 c 4
 261 161 264 172 267 181 c 4
 313 340 336 586 399 678 c 4
 405 688 414 696 424 696 c 0
 432 696 441 690 449 677 c 5
 506 536 557 328 602 187 c 4
 607 172 612 172 618 188 c 4
 677 425 676 441 744 667 c 4
 748 685 764 694 780 694 c 0
 797 694 815 683 815 661 c 0
 815 659 814 656 814 653 c 4
 760 411 708 217 655 38 c 4
 649 13 632 1 616 1 c 0
 599 1 582 15 578 40 c 5
 511 214 475 380 432 536 c 4
 428 549 421 546 418 537 c 4
 379 326 371 237 299 32 c 5
 293 10 280 1 266 1 c 0
 250 1 234 13 227 30 c 5
EndSplineSet
Validated: 1
EndChar

StartChar: X
Encoding: 67 88 86
Width: 587
VWidth: 0
Flags: W
HStem: 1 21G<103.5 119.5> 681 20G<80 96.5>
LayerCount: 3
Fore
SplineSet
74 56 m 5
 130 162 189 246 246 350 c 5
 184 454 109 544 54 645 c 5
 51 651 50 657 50 663 c 0
 50 685 70 701 90 701 c 0
 103 701 115 695 123 680 c 5
 213 540 255 490 299 420 c 5
 331 469 400 616 444 682 c 5
 451 694 461 699 472 699 c 0
 493 699 515 681 515 661 c 0
 515 657 514 653 512 649 c 4
 422 467 405 444 356 355 c 5
 414 253 479 155 531 61 c 4
 535 54 537 47 537 41 c 0
 537 17 511 3 489 3 c 0
 478 3 469 6 464 14 c 4
 407 101 372 177 301 278 c 5
 244 189 196 95 140 16 c 5
 135 5 125 1 114 1 c 0
 93 1 69 18 69 39 c 0
 69 44 70 50 74 56 c 5
EndSplineSet
Validated: 1
EndChar

StartChar: Y
Encoding: 68 89 87
Width: 575
VWidth: 0
Flags: W
HStem: -0 21G<292 314> 680 20G<82.5 99.5>
VStem: 255 95<8.17459 216.144>
LayerCount: 3
Fore
SplineSet
254 43 m 5
 254 51 254 59 254 67 c 0
 254 95 255 121 255 144 c 0
 255 174 253 200 245 216 c 4
 186 340 123 503 55 649 c 5
 52 654 50 660 50 665 c 0
 50 685 72 700 93 700 c 0
 106 700 118 694 125 680 c 5
 204 545 233 416 305 304 c 5
 375 414 393 582 448 680 c 5
 451 691 468 699 485 699 c 0
 506 699 528 687 526 657 c 5
 462 471 411 320 357 217 c 5
 352 199 350 164 350 129 c 0
 350 97 352 64 352 44 c 5
 345 12 324 0 304 -0 c 0
 280 0 256 18 254 43 c 5
EndSplineSet
Validated: 33
EndChar

StartChar: Z
Encoding: 69 90 88
Width: 620
VWidth: 0
Flags: W
HStem: 2 92<173.908 563.292> 604 97<59.152 366.58> 616 85<181.588 428.933>
LayerCount: 3
Fore
SplineSet
103 2 m 1xa0
 67 14 55 41 55 65 c 0
 55 82 61 98 68 108 c 0
 212 316 326 464 434 603 c 0
 443 611 442 614 430 616 c 0xa0
 304 610 261 604 104 604 c 0
 103 604 103 604 102 604 c 0
 67 604 50 627 50 650 c 0
 50 674 67 699 100 701 c 1xc0
 150 698 201 698 251 698 c 0
 341 698 426 700 491 701 c 1
 537 698 549 672 549 649 c 0
 549 634 544 621 539 614 c 1
 415 402 277 262 174 108 c 1
 172 99 173 93 180 93 c 0
 211 91 245 91 279 91 c 0
 364 91 451 94 511 94 c 0
 521 94 530 94 538 94 c 1
 559 92 570 71 570 50 c 0
 570 28 558 5 530 2 c 1
 497 4 463 4 427 4 c 0
 345 4 258 1 173 1 c 0
 149 1 126 1 103 2 c 1xa0
EndSplineSet
Validated: 1
EndChar

StartChar: a
Encoding: 70 97 89
Width: 453
VWidth: 0
Flags: W
HStem: 429 1
LayerCount: 3
Fore
SplineSet
331 6 m 4
 329 17 328 29 314 30 c 5
 265 16 214 1 170 1 c 0
 108 1 59 30 50 128 c 5
 51 231 122 263 198 263 c 0
 222 263 247 260 270 255 c 5
 278 252 286 250 293 250 c 0
 317 250 335 267 336 289 c 5
 332 346 298 364 260 364 c 0
 231 364 201 353 180 341 c 4
 164 332 147 324 133 324 c 0
 124 324 115 328 110 337 c 5
 107 345 105 352 105 358 c 0
 105 376 120 389 149 403 c 5
 181 422 219 431 255 431 c 0
 332 431 403 389 403 301 c 0
 403 298 403 294 403 291 c 5
 404 225 404 188 404 157 c 0
 404 115 403 84 401 5 c 5
 399 -12 382 -22 365 -22 c 0
 349 -22 333 -13 331 6 c 4
293 95 m 5
 314 102 332 119 332 137 c 0
 332 137 l 5
 330 155 322 176 292 180 c 4
 257 186 222 191 193 191 c 0
 148 191 118 178 118 132 c 0
 118 131 118 129 118 128 c 4
 119 82 142 68 173 68 c 0
 210 68 257 87 293 95 c 5
EndSplineSet
Validated: 5
EndChar

StartChar: b
Encoding: 71 98 90
Width: 494
VWidth: 0
Flags: W
HStem: 429 1
LayerCount: 3
Fore
SplineSet
51 -3 m 5
 51 89 52 182 52 274 c 0
 52 404 51 531 50 646 c 5
 56 668 72 676 88 676 c 0
 110 676 132 660 130 644 c 5
 131 595 131 553 131 514 c 0
 131 475 131 440 131 402 c 5
 178 420 223 430 263 430 c 0
 361 430 432 369 444 204 c 5
 439 73 366 2 258 2 c 0
 219 2 176 11 130 29 c 5
 129 15 127 4 127 -3 c 4
 130 -20 109 -30 89 -30 c 0
 71 -30 54 -22 51 -3 c 5
363 205 m 5
 361 307 318 350 254 350 c 0
 219 350 177 337 132 313 c 5
 127 290 126 266 126 242 c 0
 126 208 129 174 129 138 c 0
 129 130 128 121 128 113 c 5
 181 88 224 77 258 77 c 0
 331 77 363 126 363 191 c 0
 363 196 363 200 363 205 c 5
EndSplineSet
Validated: 33
EndChar

StartChar: c
Encoding: 72 99 91
Width: 398
VWidth: 0
Flags: W
HStem: 429 1
LayerCount: 3
Fore
SplineSet
50 219 m 4
 52 358 144 427 278 427 c 0
 284 427 289 427 295 427 c 5
 333 421 348 404 348 387 c 0
 348 366 326 346 299 346 c 0
 298 346 l 4
 295 346 293 346 290 346 c 0
 181 346 138 304 132 217 c 5
 132 110 194 84 289 84 c 0
 291 84 293 84 295 84 c 5
 332 82 348 61 348 41 c 0
 348 21 331 1 302 1 c 0
 301 1 300 1 299 1 c 5
 294 1 289 1 285 1 c 0
 73 1 50 115 50 219 c 4
EndSplineSet
Validated: 1
EndChar

StartChar: d
Encoding: 73 100 92
Width: 510
VWidth: 0
Flags: W
HStem: 429 1
LayerCount: 3
Fore
SplineSet
386 1 m 4
 386 3 386 4 386 6 c 0
 386 16 384 23 384 31 c 0
 384 33 385 36 385 39 c 5
 350 20 294 1 237 1 c 0
 151 1 64 46 50 210 c 5
 50 381 167 430 263 430 c 0
 316 430 362 415 379 398 c 5
 380 405 380 415 380 429 c 0
 380 466 378 522 378 564 c 0
 378 579 378 593 379 603 c 4
 380 629 401 642 421 642 c 0
 440 642 459 630 460 606 c 4
 460 585 460 562 460 538 c 0
 460 462 460 375 460 288 c 0
 460 225 460 162 459 103 c 4
 460 84 460 63 460 43 c 0
 460 29 460 15 459 3 c 4
 460 -15 440 -24 421 -24 c 0
 403 -24 386 -16 386 1 c 4
387 122 m 5
 388 150 388 168 388 183 c 0
 388 213 387 232 387 308 c 5
 357 343 315 358 272 358 c 0
 194 358 116 306 116 222 c 0
 116 218 116 215 116 211 c 5
 116 207 116 204 116 200 c 0
 116 117 184 63 260 63 c 0
 304 63 350 81 387 122 c 5
EndSplineSet
Validated: 33
EndChar

StartChar: e
Encoding: 74 101 93
Width: 441
VWidth: 0
Flags: W
HStem: 429 1
LayerCount: 3
Fore
SplineSet
50 230 m 5
 58 299 78 422 239 433 c 5
 349 426 391 357 391 283 c 0
 391 272 390 260 388 249 c 4
 382 216 363 180 286 167 c 5
 267 166 251 166 237 166 c 0
 198 166 174 169 138 171 c 4
 132 171 121 170 124 158 c 4
 137 104 185 83 240 83 c 0
 271 83 303 90 333 100 c 4
 338 102 343 103 348 103 c 0
 374 103 390 79 390 57 c 0
 390 41 382 26 365 20 c 5
 319 7 279 1 245 1 c 0
 88 1 50 125 50 218 c 0
 50 222 50 226 50 230 c 5
249 233 m 4
 304 234 326 259 326 286 c 0
 326 322 289 363 242 363 c 4
 176 362 140 332 122 281 c 5
 121 277 120 273 120 269 c 0
 120 236 158 229 193 229 c 0
 219 229 243 233 249 233 c 4
EndSplineSet
Validated: 1
EndChar

StartChar: f
Encoding: 75 102 94
Width: 405
VWidth: 0
Flags: W
HStem: 429 1
LayerCount: 3
Fore
SplineSet
118 39 m 5
 118 69 118 95 118 118 c 0
 118 160 118 194 118 231 c 0
 118 265 118 301 119 346 c 4
 119 356 122 362 109 362 c 4
 96 361 99 361 91 361 c 0
 88 361 82 361 73 361 c 4
 57 361 50 377 50 393 c 0
 50 412 59 431 72 432 c 4
 96 431 96 432 112 430 c 4
 119 429 117 437 120 447 c 4
 128 548 163 625 302 625 c 0
 311 625 321 625 331 624 c 4
 347 622 355 605 355 588 c 0
 355 573 349 559 334 556 c 5
 249 555 198 559 190 441 c 4
 191 429 193 428 211 428 c 4
 214 428 218 428 222 428 c 0
 253 428 294 431 319 431 c 4
 335 430 344 413 344 397 c 0
 344 381 336 364 320 362 c 5
 293 361 266 359 239 359 c 0
 226 359 213 359 200 361 c 4
 184 363 189 356 188 348 c 4
 188 325 189 307 189 281 c 4
 189 261 189 242 189 224 c 0
 189 151 188 93 188 38 c 5
 189 35 189 32 189 30 c 0
 189 10 172 1 155 1 c 0
 136 1 116 13 118 39 c 5
EndSplineSet
Validated: 33
EndChar

StartChar: g
Encoding: 76 103 95
Width: 520
VWidth: 0
Flags: W
HStem: 429 1
LayerCount: 3
Fore
SplineSet
148 -230 m 5
 116 -225 104 -208 104 -190 c 0
 104 -169 121 -148 144 -148 c 0
 145 -148 145 -148 146 -148 c 4
 181 -150 210 -151 236 -151 c 0
 370 -151 389 -122 389 10 c 0
 389 13 389 16 389 19 c 5
 344 7 304 1 268 1 c 0
 118 1 50 100 50 203 c 0
 50 315 131 431 279 431 c 0
 311 431 346 425 384 413 c 5
 385 424 385 439 385 454 c 0
 385 460 385 467 385 473 c 4
 385 495 407 512 429 512 c 0
 447 512 464 501 468 473 c 5
 469 448 470 422 470 398 c 0
 470 366 469 340 469 327 c 4
 469 314 469 302 469 291 c 0
 469 237 470 202 470 126 c 0
 470 110 470 93 470 73 c 5
 470 54 471 36 471 19 c 0
 471 -189 432 -231 199 -231 c 0
 183 -231 166 -230 148 -230 c 5
387 94 m 5
 387 121 387 141 387 158 c 0
 387 175 387 189 387 203 c 0
 387 232 387 264 385 326 c 5
 350 347 316 356 285 356 c 0
 190 356 125 271 125 195 c 0
 125 133 168 78 274 78 c 0
 306 78 343 83 387 94 c 5
EndSplineSet
Validated: 1
EndChar

StartChar: h
Encoding: 77 104 96
Width: 471
VWidth: 0
Flags: W
HStem: 429 1
LayerCount: 3
Fore
SplineSet
354 77 m 0
 354 126 352 158 352 211 c 0
 352 228 352 247 353 270 c 5
 353 273 354 276 354 279 c 0
 354 333 297 362 240 362 c 0
 183 362 125 333 124 272 c 4
 121 119 121 172 121 36 c 5
 118 12 102 1 86 1 c 0
 69 1 52 13 51 36 c 4
 51 60 50 84 50 108 c 0
 50 173 52 236 52 301 c 0
 52 325 51 349 51 373 c 5
 52 394 52 411 52 426 c 0
 52 451 51 473 51 509 c 0
 51 525 52 544 52 567 c 4
 53 593 70 606 87 606 c 0
 104 606 121 593 121 567 c 0
 121 566 121 566 121 565 c 4
 120 544 120 525 120 508 c 0
 120 470 121 441 121 406 c 0
 121 397 121 387 121 377 c 5
 132 410 182 429 238 429 c 0
 323 429 421 386 421 288 c 0
 421 282 421 275 420 268 c 5
 421 234 421 214 421 199 c 0
 421 161 419 162 419 75 c 0
 419 65 419 53 419 40 c 4
 419 13 403 1 387 1 c 0
 370 1 354 14 354 38 c 0
 354 52 354 65 354 77 c 0
EndSplineSet
Validated: 1
EndChar

StartChar: i
Encoding: 78 105 97
Width: 187
VWidth: 0
Flags: W
HStem: 429 1
LayerCount: 3
Fore
SplineSet
54 36 m 1
 54 75 55 108 55 137 c 0
 55 216 53 265 53 344 c 0
 53 373 54 406 54 446 c 0
 55 479 75 494 94 494 c 0
 114 494 135 478 135 451 c 2
 135 36 l 2
 135 15 115 1 94 1 c 0
 76 1 59 11 54 36 c 1
 54 36 l 1
50 627 m 1
 51 659 72 673 93 673 c 0
 115 673 138 657 138 630 c 0
 138 601 116 585 93 585 c 0
 72 585 50 599 50 627 c 1
EndSplineSet
Validated: 5
EndChar

StartChar: j
Encoding: 79 106 98
Width: 327
VWidth: 0
Flags: W
HStem: 429 1
LayerCount: 3
Fore
SplineSet
86 -114 m 4
 170 -110 189 -40 190 17 c 4
 190 115 189 197 189 330 c 0
 189 363 189 400 189 440 c 5
 192 472 213 488 233 488 c 0
 254 488 275 471 277 437 c 4
 277 421 277 404 277 388 c 0
 277 292 274 198 274 103 c 0
 274 74 274 46 275 17 c 5
 273 -99 229 -187 88 -200 c 5
 61 -195 50 -178 50 -160 c 0
 50 -137 67 -114 86 -114 c 4
182 623 m 5
 183 661 206 678 229 678 c 0
 253 678 278 659 277 624 c 4
 278 594 252 576 228 576 c 0
 206 576 185 591 182 623 c 5
EndSplineSet
Validated: 33
EndChar

StartChar: k
Encoding: 80 107 99
Width: 453
VWidth: 0
Flags: W
HStem: 429 1
LayerCount: 3
Fore
SplineSet
138 191 m 4
 131 197 123 197 124 185 c 4
 124 128 124 86 125 37 c 5
 124 13 106 1 89 1 c 0
 71 1 53 14 51 37 c 4
 50 62 50 86 50 108 c 0
 50 156 51 199 51 240 c 0
 51 248 51 256 51 264 c 4
 51 336 50 393 50 456 c 0
 50 487 50 520 51 557 c 4
 50 582 70 599 89 599 c 0
 105 599 121 587 124 558 c 5
 124 367 125 414 125 275 c 4
 124 265 127 259 131 261 c 4
 135 264 132 263 139 267 c 4
 198 323 275 397 307 425 c 5
 319 434 330 438 340 438 c 0
 360 438 373 422 373 405 c 0
 373 396 370 387 362 379 c 4
 311 325 239 268 208 233 c 4
 204 230 203 229 205 227 c 4
 270 172 317 129 381 76 c 4
 397 62 404 47 404 34 c 0
 404 16 391 1 372 1 c 0
 362 1 351 5 340 13 c 5
 250 95 177 160 138 191 c 4
EndSplineSet
Validated: 33
EndChar

StartChar: l
Encoding: 81 108 100
Width: 184
VWidth: 0
Flags: W
HStem: 1 21G<86.5 106.5> 642 20G<81.5 100.5>
VStem: 53 82<5.85121 653.62>
LayerCount: 3
Fore
SplineSet
53 36 m 0
 52 117 50 289 50 459 c 0
 50 513 51 566 51 616 c 1
 56 649 73 662 90 662 c 0
 111 662 133 642 132 615 c 0
 133 433 135 323 135 201 c 0
 135 150 135 98 134 37 c 0
 134 12 116 1 97 1 c 0
 76 1 53 14 53 36 c 0
EndSplineSet
Validated: 33
EndChar

StartChar: m
Encoding: 82 109 101
Width: 700
VWidth: 0
Flags: W
HStem: 429 1
LayerCount: 3
Fore
SplineSet
320 30 m 4
 319 116 317 188 317 260 c 5
 315 319 273 363 226 363 c 0
 188 363 147 335 120 263 c 5
 119 230 119 208 119 191 c 0
 119 168 119 151 119 125 c 0
 119 102 119 71 117 20 c 5
 115 6 101 0 86 -0 c 0
 69 0 52 8 51 22 c 5
 51 57 52 85 52 110 c 0
 52 185 50 233 50 349 c 4
 50 353 50 358 50 363 c 0
 50 377 50 392 50 405 c 0
 50 410 50 414 50 418 c 4
 50 435 67 445 84 445 c 0
 98 445 113 438 117 421 c 5
 118 409 118 400 118 393 c 0
 118 387 118 382 118 377 c 0
 118 373 118 368 119 364 c 5
 142 410 184 429 226 429 c 0
 283 429 341 394 352 341 c 5
 381 402 432 428 483 428 c 0
 565 428 648 362 648 268 c 0
 648 263 647 259 647 254 c 5
 648 162 650 158 650 105 c 0
 650 88 649 67 649 36 c 5
 647 12 633 1 618 1 c 0
 600 1 582 15 583 37 c 5
 582 202 583 129 580 255 c 5
 573 324 529 360 484 360 c 0
 440 360 396 326 386 258 c 5
 386 184 388 132 388 81 c 0
 388 64 387 47 387 29 c 5
 385 10 370 2 354 2 c 0
 337 2 319 12 320 30 c 4
EndSplineSet
Validated: 33
EndChar

StartChar: n
Encoding: 83 110 102
Width: 427
VWidth: 0
Flags: W
HStem: 429 1
LayerCount: 3
Fore
SplineSet
301 34 m 5
 300 144 301 89 299 230 c 5
 299 235 299 239 299 243 c 0
 299 325 253 360 208 360 c 0
 175 360 143 342 131 312 c 5
 126 277 125 182 125 111 c 0
 125 97 125 84 125 72 c 0
 125 54 125 40 125 32 c 4
 126 14 106 1 87 1 c 0
 71 1 56 9 52 31 c 5
 51 73 50 112 50 149 c 0
 50 220 52 284 52 349 c 0
 52 372 52 396 51 420 c 5
 49 441 67 453 85 453 c 0
 101 453 118 443 120 419 c 4
 122 412 122 411 124 409 c 5
 136 420 172 432 213 432 c 0
 287 432 377 393 377 245 c 0
 377 239 377 234 377 228 c 5
 377 148 377 115 377 36 c 5
 379 16 359 2 339 2 c 0
 322 2 306 11 301 34 c 5
EndSplineSet
Validated: 33
EndChar

StartChar: o
Encoding: 84 111 103
Width: 489
VWidth: 0
Flags: W
HStem: 429 1
LayerCount: 3
Fore
SplineSet
251 448 m 5
 375 442 435 340 439 215 c 4
 439 212 439 208 439 205 c 0
 439 101 393 10 257 0 c 5
 136 6 50 92 50 219 c 0
 50 367 137 448 249 448 c 0
 250 448 250 448 251 448 c 5
253 373 m 5
 161 370 123 299 123 223 c 0
 123 123 184 82 254 76 c 5
 336 82 362 130 362 210 c 0
 362 288 340 362 253 373 c 5
EndSplineSet
Validated: 1
EndChar

StartChar: p
Encoding: 85 112 104
Width: 484
VWidth: 0
Flags: W
HStem: 429 1
LayerCount: 3
Fore
SplineSet
54 -183 m 5
 53 -71 50 49 50 211 c 0
 50 276 51 348 52 429 c 5
 50 448 67 458 84 458 c 0
 101 458 119 448 116 429 c 4
 117 421 119 405 123 411 c 5
 163 421 198 426 230 426 c 0
 372 426 435 331 435 231 c 0
 435 119 356 1 222 1 c 0
 194 1 164 6 132 17 c 5
 129 -11 128 -42 128 -73 c 0
 128 -102 128 -132 128 -157 c 0
 128 -167 128 -176 128 -185 c 4
 127 -205 109 -215 91 -215 c 0
 73 -215 55 -205 54 -183 c 5
126 344 m 5
 127 316 128 289 128 263 c 0
 128 215 126 170 126 136 c 0
 126 118 127 102 128 91 c 5
 161 77 191 72 217 72 c 0
 310 72 359 146 359 219 c 0
 359 290 313 361 217 361 c 0
 191 361 160 356 126 344 c 5
EndSplineSet
Validated: 33
EndChar

StartChar: q
Encoding: 86 113 105
Width: 471
VWidth: 0
Flags: W
HStem: 429 1
LayerCount: 3
Fore
SplineSet
348 -179 m 4
 348 -172 348 -166 348 -159 c 0
 348 -92 352 -25 353 45 c 4
 353 48 353 47 349 43 c 4
 298 13 253 1 215 1 c 0
 106 1 50 104 50 210 c 0
 50 319 110 431 235 431 c 0
 273 431 318 420 368 396 c 5
 376 396 373 400 373 403 c 4
 372 412 372 417 372 423 c 4
 373 436 385 443 396 443 c 0
 407 443 418 436 419 423 c 4
 420 419 420 415 420 410 c 0
 420 402 419 394 419 386 c 0
 419 381 419 376 420 372 c 4
 420 293 421 223 421 151 c 0
 421 50 420 -53 419 -178 c 5
 417 -198 401 -206 385 -206 c 0
 367 -206 349 -196 348 -179 c 4
350 126 m 5
 350 173 354 222 354 275 c 0
 354 288 354 302 353 316 c 5
 311 349 274 363 243 363 c 0
 166 363 123 279 123 201 c 0
 123 135 154 72 221 72 c 0
 255 72 298 88 350 126 c 5
EndSplineSet
Validated: 1
EndChar

StartChar: r
Encoding: 87 114 106
Width: 336
VWidth: 0
Flags: W
HStem: 429 1
LayerCount: 3
Fore
SplineSet
50.1015625 36.2958984375 m 5
 49.7763671875 142.934570312 50.259765625 245.274414062 51.130859375 347.749023438 c 4
 50.984375 353.474609375 50.3408203125 388.467773438 51.1689453125 399.408203125 c 4
 56.1748046875 444.372070312 110.869140625 435.90625 109.37890625 400.016601562 c 4
 110.598632812 394.248046875 108.35546875 372.407226562 117.501953125 370.287109375 c 5
 160.3125 384.235351562 198.848632812 410.901367188 255.057617188 445.407226562 c 5
 304.37890625 481.745117188 333.872070312 420.58984375 290.21484375 399.279296875 c 5
 225.627929688 354.3046875 120.026367188 309.65625 125.018554688 235.755859375 c 5
 123.14453125 152.216796875 122.98828125 96.6279296875 124.086914062 36.5302734375 c 5
 117.7109375 -19.609375 47.1083984375 -2.58203125 50.1015625 36.2958984375 c 5
EndSplineSet
Validated: 33
EndChar

StartChar: s
Encoding: 88 115 107
Width: 356
VWidth: 0
Flags: W
HStem: 429 1
LayerCount: 3
Fore
SplineSet
141.198242188 0.3427734375 m 4
 131.990234375 0.5517578125 99.935546875 5.09375 87.1630859375 5.412109375 c 4
 40.5546875 6.193359375 46.3701171875 80.1630859375 86.732421875 79.0869140625 c 4
 100.86328125 77.4560546875 134.978515625 74.548828125 145.12109375 72.2822265625 c 5
 223.755859375 72.42578125 259.219726562 120.05078125 208.325195312 165.16015625 c 5
 184.421875 182.385742188 143.116210938 194.76953125 125.19140625 208.086914062 c 4
 -48.94140625 328.765625 121.001953125 451.572265625 217.377929688 429.822265625 c 5
 239.922851562 427.068359375 262.46875 420.701171875 288.021484375 411.000976562 c 5
 324.291015625 393.674804688 302.220703125 332.0078125 269.409179688 344.461914062 c 5
 249.681640625 349.388671875 228.48828125 354.258789062 211.700195312 358.336914062 c 4
 138.5859375 382.623046875 72.7431640625 315.021484375 157.916992188 271.685546875 c 4
 216.950195312 243.70703125 233.03125 231.407226562 247.469726562 223.69921875 c 4
 335.635742188 171.201171875 328.251953125 3.052734375 141.198242188 0.3427734375 c 4
EndSplineSet
Validated: 33
EndChar

StartChar: t
Encoding: 89 116 108
Width: 324
VWidth: 0
Flags: W
HStem: 429 1
LayerCount: 3
Fore
SplineSet
101.030273438 120.80078125 m 4
 98.48046875 214.623046875 100.022460938 228.981445312 97.98046875 306.971679688 c 4
 98.4072265625 356.606445312 98.810546875 341.108398438 98.623046875 361.465820312 c 5
 88.5234375 361.227539062 94.8515625 360.93359375 82.9814453125 360.361328125 c 5
 33.0927734375 369.827148438 46.484375 430.932617188 79.099609375 430.82421875 c 4
 90.34375 431.58984375 85.2861328125 431.209960938 96.912109375 432.673828125 c 5
 98.1845703125 456.166992188 95.08203125 476.458984375 95.9091796875 494.184570312 c 5
 106.029296875 548.083984375 162.962890625 528.099609375 164.327148438 493.34765625 c 4
 165.319335938 462.469726562 165.858398438 452.4921875 165.931640625 431.590820312 c 5
 220.891601562 430.603515625 207.481445312 432.90234375 239.673828125 432.942382812 c 4
 287.303710938 431.961914062 285.131835938 363.78125 242.901367188 362.561523438 c 4
 210.965820312 362.973632812 204.75390625 362.439453125 167.65234375 362.030273438 c 5
 167.1328125 330.888671875 167.762695312 329.952148438 167.471679688 293.190429688 c 4
 169.98046875 227.973632812 170.463867188 155.63671875 171.293945312 121.615234375 c 5
 177.61328125 67.9052734375 185.124023438 65.259765625 247.936523438 71.0576171875 c 5
 276.4296875 64.6474609375 264.543945312 28.6435546875 252.091796875 21.4365234375 c 4
 197.705078125 -19.9501953125 106.607421875 -6.8056640625 101.030273438 120.80078125 c 4
EndSplineSet
Validated: 33
EndChar

StartChar: parenleft
Encoding: 5 40 109
Width: 299
VWidth: 0
Flags: W
LayerCount: 3
Fore
SplineSet
185.158203125 -53.318359375 m 1
 146.493164062 8.958984375 109.772460938 68.9619140625 84.7421875 138.362304688 c 1
 68.865234375 202.03515625 56.32421875 243.02734375 50.197265625 322.256835938 c 4
 48.943359375 376.68359375 53.7236328125 397.337890625 62.7421875 457.467773438 c 4
 63.6787109375 463.752929688 65.38671875 469.5390625 66.537109375 470.325195312 c 4
 75.8251953125 506.796875 95.8984375 552.407226562 112.395507812 584.749023438 c 4
 127.717773438 616.447265625 145.521484375 651.473632812 156.626953125 674.299804688 c 4
 168.76171875 707.13671875 230.072265625 713.385742188 218.6328125 655.55859375 c 1
 176.556640625 571.526367188 179.063476562 572.53125 150.725585938 518.73828125 c 5
 103.896484375 412.443359375 115.971679688 256.661132812 153.205078125 147.206054688 c 0
 175.0703125 92.58984375 194.484375 68.4775390625 206.82421875 40.701171875 c 1
 222.42578125 14.9931640625 231.891601562 -4.029296875 243.721679688 -20.1826171875 c 0
 265.227539062 -61.5048828125 217.892578125 -92.66015625 185.158203125 -53.318359375 c 1
EndSplineSet
Validated: 33
EndChar

StartChar: parenright
Encoding: 6 41 110
Width: 293
VWidth: 0
Flags: W
LayerCount: 3
Fore
SplineSet
66.994140625 -9.005859375 m 5
 187.163085938 86.728515625 197.373046875 296.30859375 163.884765625 409.822265625 c 4
 147.130859375 457.745117188 134.923828125 493.823242188 114.860351562 540.9296875 c 4
 100.126953125 577.379882812 68.9423828125 619.311523438 53.6982421875 651.932617188 c 4
 36.724609375 696.459960938 82.1865234375 719.073242188 108.881835938 678.3984375 c 4
 123.90234375 657.297851562 131.072265625 645.663085938 143.080078125 626.625 c 4
 154.643554688 603.196289062 162.19140625 592.559570312 178.485351562 554.849609375 c 4
 186.70703125 541.306640625 196.256835938 512.983398438 204.55859375 491.388671875 c 4
 228.037109375 416.403320312 247.275390625 343.41015625 243.161132812 264.333984375 c 4
 240.268554688 233.227539062 235.915039062 198.255859375 234.591796875 184.080078125 c 4
 219.603515625 87.0673828125 196.181640625 6.646484375 115.147460938 -54.2548828125 c 5
 75.3701171875 -90.7109375 31.8857421875 -46.9931640625 66.994140625 -9.005859375 c 5
EndSplineSet
Validated: 33
EndChar

StartChar: plus
Encoding: 7 43 111
Width: 699
VWidth: 0
Flags: W
HStem: 325.471 76.8369<69.3224 302.988 383.058 630.553>
VStem: 310.361 73.7549<126.744 325.75>
LayerCount: 3
Fore
SplineSet
310.361328125 140.842773438 m 4
 309.875976562 193.9609375 309.6171875 248.751953125 306.870117188 283.765625 c 4
 304.258789062 303.938476562 310.908203125 327.455078125 291.984375 326.006835938 c 4
 226.205078125 324.963867188 143.860351562 325.697265625 88.1083984375 325.470703125 c 5
 36.009765625 331.846679688 39.9951171875 399.11328125 83.8759765625 402.307617188 c 5
 126.258789062 402.23828125 259.494140625 403.5078125 278.5 403.90234375 c 4
 311.58203125 402.225585938 302.11328125 415.555664062 301.4296875 487.690429688 c 4
 300.196289062 507.7265625 299.836914062 572.892578125 300.016601562 587.288085938 c 4
 303.8125 638.294921875 374.499023438 637.1953125 376.741210938 587.825195312 c 4
 378.615234375 525.556640625 376.827148438 505.374023438 377.987304688 468.725585938 c 4
 380.359375 420.33203125 370.4296875 403.756835938 395.560546875 405.240234375 c 4
 443.125 404.627929688 532.265625 403.814453125 606.950195312 404.1328125 c 4
 662.22265625 406.018554688 663.301757812 326.12890625 609.250976562 326.778320312 c 4
 546.111328125 326.00390625 460.586914062 327.278320312 404.470703125 325.75 c 4
 381.418945312 325.934570312 382.266601562 320.918945312 382.967773438 299.159179688 c 4
 383.884765625 242.686523438 381.594726562 217.426757812 384.116210938 140.352539062 c 5
 378.431640625 88.423828125 312.92578125 93.1142578125 310.361328125 140.842773438 c 4
EndSplineSet
Validated: 33
EndChar

StartChar: comma
Encoding: 8 44 112
Width: 204
VWidth: 0
Flags: W
HStem: -115.102 197.274
VStem: 50.1475 76.4404<-95.5189 6.39555>
LayerCount: 3
Fore
SplineSet
50.1474609375 -54.2421875 m 0
 50.4423828125 -6.27734375 51.7109375 13.0908203125 58.361328125 42.302734375 c 1
 69.341796875 69.6875 67.177734375 71.5244140625 92.8134765625 82.1728515625 c 0
 108.622070312 85.416015625 122.669921875 86.615234375 130.245117188 80.3291015625 c 0
 153.779296875 64.7431640625 156.2421875 47.087890625 154.28515625 26.7392578125 c 0
 151.7734375 15.0703125 147.380859375 3.3330078125 142.678710938 -7.1796875 c 0
 138.755859375 -23.609375 132.3203125 -38.169921875 126.587890625 -51.90625 c 0
 120.778320312 -63.3701171875 121.848632812 -64.5419921875 115.287109375 -76.5380859375 c 0
 101.034179688 -107.784179688 89.8359375 -116.0390625 69.03515625 -115.1015625 c 0
 46.0947265625 -111.666015625 50.44921875 -67.3896484375 50.1474609375 -54.2421875 c 0
EndSplineSet
Validated: 33
EndChar

StartChar: hyphen
Encoding: 9 45 113
Width: 335
VWidth: 0
Flags: HW
HStem: 241.968 78.0322<64.6578 273.825>
LayerCount: 3
Fore
SplineSet
80.783203125 320 m 0
 135.625 319.790039062 218.533203125 321.309570312 255.783203125 320 c 1
 291.223632812 323.150390625 299.40625 243.533203125 258.783203125 242 c 0
 236.012695312 241.140625 99.4873046875 240.825195312 82.255859375 241.967773438 c 0
 79.2893740018 242.164421399 76.5389808627 242.670998787 73.9999988544 243.44600134 c 4
 37.7924541214 254.498044838 44.5788007212 320.138710689 80.783203125 320 c 0
EndSplineSet
Validated: 33
EndChar

StartChar: period
Encoding: 10 46 114
Width: 216
VWidth: 0
Flags: W
HStem: 33.6738 95.333<50.7043 165.827>
VStem: 50.3457 116.097<34.1673 128.461>
LayerCount: 3
Fore
SplineSet
50.345703125 58.3583984375 m 4
 49.7392578125 77.4140625 50.0830078125 80.8232421875 50.2373046875 99.51953125 c 4
 48.8515625 132.166015625 65.8837890625 127.75390625 86.5517578125 129.006835938 c 4
 112.529296875 127.995117188 111.438476562 129.596679688 136.353515625 128.67578125 c 4
 167.506835938 130.099609375 165.4453125 117.188476562 166.188476562 102.538085938 c 4
 166.633789062 87.4443359375 166.626953125 81.3291015625 166.442382812 64.771484375 c 4
 168.66015625 31.8330078125 151.795898438 34.2138671875 138.583984375 34.10546875 c 4
 112.124023438 33.3369140625 95.8955078125 34.5068359375 72.8984375 33.673828125 c 4
 52.7177734375 33.5732421875 52.30859375 40.6787109375 50.345703125 58.3583984375 c 4
EndSplineSet
Validated: 33
EndChar

StartChar: slash
Encoding: 11 47 115
Width: 378
VWidth: 0
Flags: W
VStem: 50.9111 276.869
LayerCount: 3
Fore
SplineSet
50.9111328125 26.427734375 m 0
 175.297851562 355.231445312 178.290039062 362.85546875 288.278320312 660.32421875 c 0
 296.026367188 684.529296875 335.73046875 683.9375 327.780273438 649.973632812 c 1
 215.533203125 355.203125 211.591796875 345.248046875 89.435546875 15.8876953125 c 0
 76.6455078125 -13.779296875 44.169921875 3.98046875 50.9111328125 26.427734375 c 0
EndSplineSet
Validated: 33
EndChar

StartChar: zero
Encoding: 12 48 116
Width: 493
VWidth: 0
Flags: W
LayerCount: 3
Fore
SplineSet
443.870117188 323.506835938 m 5
 428.064453125 -102.748046875 65.6376953125 -108.486328125 50 316.821289062 c 5
 70.1962890625 735.005859375 430.153320312 733.706054688 443.870117188 323.506835938 c 5
119.42578125 317.373046875 m 5
 161.17578125 -30.58203125 333.200195312 -37.09375 373.112304688 324.374023438 c 5
 353.967773438 659.317382812 137.458984375 654.430664062 119.42578125 317.373046875 c 5
EndSplineSet
Validated: 33
EndChar

StartChar: one
Encoding: 13 49 117
Width: 311
VWidth: 0
Flags: W
VStem: 192.103 67.748<18.6514 576.554>
LayerCount: 3
Fore
SplineSet
190.837890625 34.765625 m 4
 190.772460938 186.586914062 190.592773438 365.461914062 192.102539062 502.274414062 c 4
 191.897460938 522.529296875 197.404296875 574.4921875 183.555664062 576.693359375 c 5
 172.508789062 574.844726562 172.748046875 576.596679688 162.026367188 565.951171875 c 4
 142.415039062 547.903320312 80.244140625 474.3984375 50.1474609375 506.41796875 c 5
 46.51171875 551.59765625 111.166015625 594.432617188 126.131835938 602.768554688 c 4
 163.57421875 630.205078125 206.125976562 630.626953125 224.208007812 630.911132812 c 4
 260.525390625 630.422851562 259.40234375 615.443359375 259.850585938 584.544921875 c 4
 260.994140625 400.2734375 261.862304688 206.94921875 260.1796875 34.662109375 c 5
 247.603515625 -15.443359375 192.159179688 -4.9599609375 190.837890625 34.765625 c 4
EndSplineSet
Validated: 33
EndChar

StartChar: two
Encoding: 14 50 118
Width: 485
VWidth: 0
Flags: W
HStem: 7.97656 68.417<168.79 419.966>
LayerCount: 3
Fore
SplineSet
77.6953125 109.114257812 m 5
 148.642578125 175.038085938 215.67578125 235.282226562 284.907226562 320.13671875 c 5
 344.840820312 384.250976562 372.18359375 457.841796875 298.376953125 530.81640625 c 5
 253.18359375 588.087890625 177.044921875 566.504882812 121.750976562 515.338867188 c 4
 80.0087890625 476.962890625 49.673828125 535.951171875 68.037109375 556.817382812 c 5
 92.3115234375 595.547851562 173.358398438 628.775390625 178.919921875 629.346679688 c 4
 275.419921875 643.887695312 309.224609375 619.662109375 337.05859375 593.1640625 c 4
 366.655273438 562.850585938 411.140625 507.19140625 414.275390625 455.9609375 c 5
 414.879882812 374.750976562 387.889648438 331.879882812 354.901367188 292.900390625 c 5
 330.595703125 253.049804688 290.02734375 209.34375 234.73046875 158.33203125 c 4
 203.286132812 129.334960938 189.162109375 107.373046875 173.828125 96.5205078125 c 5
 168.607421875 89.3232421875 152.010742188 84.4853515625 164.809570312 79.8818359375 c 5
 249.388671875 91.6064453125 356.32421875 76.7646484375 403.362304688 76.3935546875 c 4
 444.219726562 76.751953125 451.658203125 7.7060546875 394.354492188 7.9765625 c 4
 289.19921875 6.34765625 191.8828125 12.3203125 114.02734375 3.7158203125 c 5
 21.9697265625 14.3623046875 47.6904296875 76.1357421875 77.6953125 109.114257812 c 5
EndSplineSet
Validated: 33
EndChar

StartChar: three
Encoding: 15 51 119
Width: 434
VWidth: 0
Flags: HW
LayerCount: 3
Fore
SplineSet
92.732421875 14.4794921875 m 5
 18.03515625 35.345703125 59.794921875 111.751953125 93.443359375 99.0859375 c 4
 161.0546875 74.27734375 218.353515625 65.7861328125 262.8984375 100.029296875 c 5
 320.741210938 159.872070312 321.823242188 203.193359375 282.2578125 255.288085938 c 4
 275.029296875 263.318359375 264.174804688 272.78515625 264.030273438 272.729492188 c 4
 240.794921875 301.89453125 182.13671875 284.834960938 150.919921875 282.9609375 c 5
 99.169921875 286.78125 119.46484375 343.836914062 148.848632812 340.854492188 c 5
 198.635742188 344.791992188 191.51171875 341.181640625 216.106445312 345.966796875 c 5
 253.708984375 346.790039062 289.748046875 354.740234375 294.514648438 381.452148438 c 5
 312.60546875 430.0703125 305.663085938 475.177734375 273.555664062 517.6015625 c 5
 257.564453125 543.469726562 217.759765625 557.725585938 195.038085938 557.708984375 c 4
 159.631835938 553.641601562 162.362304688 555.654296875 117.1875 533.487304688 c 5
 74.55078125 502.401367188 26.0361328125 538.721679688 63.291015625 589.977539062 c 5
 83.7490234375 611.51171875 118.731445312 617.391601562 148.1015625 626.095703125 c 4
 210.524414062 640.241210938 273.39453125 625.599609375 314.654296875 590.091796875 c 4
 332.14453125 575.169921875 344.754882812 554.78515625 350.922851562 545.577148438 c 4
 385.329101562 471.1875 399.563476562 402.073242188 349.439453125 342.145507812 c 5
 328.874023438 306.544921875 342.245117188 300.478515625 359.861328125 273.912109375 c 5
 391.83203125 205.614257812 391.493164062 174.294921875 368.676757812 115.752929688 c 5
 343.1953125 59.521484375 309.916992188 8.9375 234.5859375 1.4326171875 c 5
 183.909179688 5.2958984375 122.596679688 -1.966796875 92.732421875 14.4794921875 c 5
EndSplineSet
Validated: 33
EndChar

StartChar: four
Encoding: 16 52 120
Width: 530
VWidth: 0
Flags: HW
LayerCount: 3
Fore
SplineSet
319.202148438 40.865234375 m 5
 321.041015625 64.224609375 317.728515625 92.2734375 319.579101562 97.0947265625 c 4
 317.88671875 116.43359375 322.530273438 120.98828125 316.884765625 135.919921875 c 5
 309.96484375 144.765625 311.502929688 155.26953125 253.256835938 157.767578125 c 4
 248.663085938 159.508789062 148.78125 154.590820312 103.033203125 156.23046875 c 5
 57.052734375 154.49609375 36.87109375 200.556640625 59.0009765625 224.497070312 c 5
 102.642578125 290.647460938 143.19140625 350.318359375 169.36328125 398.171875 c 5
 207.916015625 452.21484375 220.384765625 483.208984375 265.3125 544.500976562 c 4
 299.380859375 591.890625 301.879882812 597.499023438 312.021484375 611.176757812 c 4
 338.671875 646.075195312 379.794921875 626.796875 380.873046875 607.165039062 c 4
 382.697265625 523.82421875 389.12890625 511.458984375 388.547851562 456.140625 c 4
 389.373046875 372.563476562 382.30859375 322.455078125 384.96484375 223.833007812 c 4
 384.404296875 201.600585938 389.98046875 212.504882812 418.606445312 210.533203125 c 4
 425.82421875 211.138671875 448.119140625 209.6875 456.086914062 209.274414062 c 4
 492.087890625 206.010742188 484.254882812 149.348632812 454.395507812 148.1015625 c 4
 438.0078125 147.931640625 429.84375 148.587890625 419.897460938 147.750976562 c 4
 380.6328125 150.897460938 387.065429688 137.51171875 387.809570312 116.404296875 c 4
 386.909179688 89.31640625 389.310546875 76.07421875 387.622070312 38.5302734375 c 4
 385.061523438 -7.1982421875 325.571289062 -17.7822265625 319.202148438 40.865234375 c 5
282.646484375 225.510742188 m 5
 308.580078125 220.958007812 317.20703125 226.90625 316.6171875 237.872070312 c 4
 311.509765625 320.955078125 323.440429688 371.5625 318.717773438 472.963867188 c 4
 320.05859375 494.991210938 311.943359375 493.34765625 302.666015625 477.55859375 c 4
 250.930664062 403.067382812 264.858398438 424.225585938 230.701171875 361.25 c 5
 179.78125 292.541015625 189.709960938 289.798828125 157.985351562 252.6484375 c 4
 140.6796875 232.487304688 142.712890625 225.7265625 151.553710938 227.30859375 c 4
 228.166992188 220.012695312 223.799804688 226.411132812 282.646484375 225.510742188 c 5
EndSplineSet
Validated: 33
EndChar

StartChar: five
Encoding: 17 53 121
Width: 478
VWidth: 0
Flags: HW
LayerCount: 3
Fore
SplineSet
75.7265625 27.669921875 m 4
 16.64453125 75.84765625 74.0126953125 152.850585938 102.001953125 114.438476562 c 5
 140.116210938 72.072265625 177.526367188 81.62890625 216.434570312 89.884765625 c 4
 309.0390625 115.71875 342.790039062 124.380859375 355.279296875 237.069335938 c 5
 348.950195312 331.75390625 243.205078125 314.5234375 158.57421875 316.393554688 c 5
 60.4404296875 302.6328125 73.099609375 389.448242188 73.6943359375 439.305664062 c 4
 74.125 481.732421875 70.169921875 480.153320312 72.3046875 524.853515625 c 4
 76.255859375 592.805664062 65.740234375 625.356445312 138.228515625 630.772460938 c 5
 203.436523438 631.958984375 255.4921875 626.7109375 325.295898438 628.538085938 c 5
 385.958007812 626.796875 362.072265625 547.700195312 323.728515625 552.045898438 c 5
 273.028320312 549.4296875 223.078125 555.73046875 178.998046875 551.911132812 c 5
 145.211914062 556.13671875 149.1796875 519.590820312 147.076171875 500.788085938 c 5
 148.282226562 464.239257812 149.958007812 438.106445312 150.262695312 414.58984375 c 4
 149.245117188 385.071289062 163.29296875 398.912109375 198.888671875 395.124023438 c 5
 228.185546875 396.215820312 235.165039062 394.416015625 261.573242188 393.318359375 c 4
 362.884765625 387.8828125 420.291015625 329.975585938 428.149414062 238.977539062 c 5
 423.595703125 150.685546875 409.6328125 83.5888671875 308.57421875 32.9111328125 c 4
 244.760742188 2.59375 161.508789062 0.875 132.311523438 0.951171875 c 5
 102.98046875 7.18359375 100.373046875 7.556640625 75.7265625 27.669921875 c 4
EndSplineSet
Validated: 33
EndChar

StartChar: six
Encoding: 18 54 122
Width: 468
VWidth: 0
Flags: HW
LayerCount: 3
Fore
SplineSet
258.59375 1.69140625 m 4
 133.833984375 -6.6806640625 77.6162109375 83.8203125 56.6416015625 204.95703125 c 5
 53.693359375 247.418945312 33.375 365.001953125 82.630859375 456.618164062 c 4
 125.966796875 535.770507812 178.12890625 606.627929688 279.028320312 626.240234375 c 4
 300.163085938 630.116210938 314.857421875 631.283203125 326.999023438 631.143554688 c 4
 369.8125 630.102539062 369.79296875 581.848632812 342.659179688 569.208984375 c 5
 263.28125 561.140625 217.15625 540.55859375 160.98828125 446.489257812 c 4
 135.130859375 406.262695312 120.734375 371.108398438 124.52734375 350.08203125 c 4
 126.232421875 339.264648438 130.059570312 331.123046875 143.526367188 342.3671875 c 4
 183.642578125 370.818359375 193.521484375 376.83203125 256.577148438 380.3046875 c 5
 495.400390625 353.125 448.236328125 15.1689453125 258.59375 1.69140625 c 4
258.216796875 309.30859375 m 5
 76.072265625 301.763671875 118.461914062 78.1650390625 256.80859375 77.7021484375 c 5
 390.783203125 100.588867188 362.8359375 303.918945312 258.216796875 309.30859375 c 5
EndSplineSet
Validated: 33
EndChar

StartChar: seven
Encoding: 19 55 123
Width: 507
VWidth: 0
Flags: HW
LayerCount: 3
Fore
SplineSet
164.384765625 50.5859375 m 4
 267.873046875 293.44140625 273.311523438 294.194335938 366.040039062 539.290039062 c 5
 378.404296875 559.697265625 369.84375 559.625 339.681640625 561.841796875 c 5
 244.485351562 556.423828125 171.541992188 559.51171875 93.0478515625 553.114257812 c 5
 30.5439453125 554.65234375 41.3359375 628.166992188 91.9267578125 624.787109375 c 5
 224.603515625 630.219726562 343.440429688 627.956054688 410.116210938 630.713867188 c 5
 476.381835938 628.420898438 457.079101562 578.858398438 447.611328125 557.947265625 c 4
 385.848632812 392.223632812 327.362304688 246.874023438 252.859375 83.2978515625 c 4
 244.619140625 60.3115234375 239.43359375 47.42578125 232.176757812 30.3916015625 c 4
 211.620117188 -23.115234375 143.690429688 3.1611328125 164.384765625 50.5859375 c 4
EndSplineSet
Validated: 33
EndChar

StartChar: eight
Encoding: 20 56 124
Width: 478
VWidth: 0
Flags: HW
LayerCount: 3
Fore
SplineSet
132.8828125 315.3515625 m 5
 160.622070312 326.654296875 175.258789062 329.413085938 156.524414062 338.514648438 c 4
 139.779296875 349.508789062 76.6591796875 387.034179688 81.107421875 475.98828125 c 4
 84.2490234375 561.809570312 141.682617188 625.686523438 237.53125 631.00390625 c 5
 351.553710938 630.002929688 407.310546875 567.580078125 407.884765625 477.125976562 c 5
 395.020507812 368.094726562 343.328125 348.635742188 325.096679688 334.303710938 c 4
 316.70703125 330.875 319.7109375 326.211914062 340.446289062 315.358398438 c 5
 430.65234375 304.913085938 519.051757812 10.36328125 238.765625 1.0166015625 c 5
 45.3525390625 -0.9794921875 -15.8642578125 224.575195312 132.8828125 315.3515625 c 5
238.279296875 276.561523438 m 5
 102.115234375 275.580078125 72.3310546875 93.1064453125 238.510742188 71.15234375 c 5
 425.755859375 88.4052734375 360.69921875 282.021484375 238.279296875 276.561523438 c 5
238.795898438 562.899414062 m 5
 98.3232421875 544.05859375 142.712890625 371.823242188 239.41015625 372.74609375 c 5
 332.370117188 364.547851562 409.576171875 555.954101562 238.795898438 562.899414062 c 5
EndSplineSet
Validated: 33
EndChar

StartChar: nine
Encoding: 21 57 125
Width: 511
VWidth: 0
Flags: HW
LayerCount: 3
Fore
SplineSet
133.225585938 1.7080078125 m 5
 65.462890625 22.2998046875 104.546875 89.3623046875 129.755859375 80.3828125 c 5
 283.508789062 75.5302734375 294.140625 98.75 340.452148438 172.221679688 c 5
 361.512695312 216.140625 376.135742188 257.051757812 350.176757812 258.142578125 c 4
 325.200195312 258.069335938 326.8828125 233.043945312 245.154296875 240.057617188 c 5
 -40.736328125 294.52734375 12.4453125 627.037109375 243.563476562 631.153320312 c 4
 426.5078125 632.317382812 509.999023438 483.166992188 433.458007812 214.123046875 c 4
 394.626953125 70.47265625 335.21484375 -6.1455078125 133.225585938 1.7080078125 c 5
 133.225585938 1.7080078125 l 5
242.834960938 560.813476562 m 5
 37.0048828125 527.083007812 141.5390625 304.859375 245.561523438 314.650390625 c 5
 406.14453125 296.8984375 453.266601562 554.4453125 242.834960938 560.813476562 c 5
EndSplineSet
Validated: 33
EndChar

StartChar: asciitilde
Encoding: 22 126 126
Width: 559
VWidth: 0
Flags: HW
LayerCount: 3
Fore
SplineSet
153.260742188 242.844726562 m 5
 118.296875 236.372070312 105.228515625 220.909179688 90.5009765625 203.0625 c 4
 85.302734375 196.763671875 42.8125 172.115234375 51.0576171875 247.7421875 c 4
 54.31640625 277.635742188 71.837890625 309.05859375 132.2578125 318.396484375 c 5
 186.984375 320.251953125 226.525390625 306.357421875 259.426757812 290.530273438 c 4
 324.051757812 259.44140625 363.05859375 220.900390625 441.215820312 279.642578125 c 5
 468.827148438 309.841796875 514.388671875 315.643554688 508.798828125 261.458984375 c 5
 497.334960938 223.568359375 491.453125 224.650390625 457.189453125 199.079101562 c 5
 336.9296875 112.962890625 223.481445312 249.388671875 153.260742188 242.844726562 c 5
EndSplineSet
Validated: 33
EndChar

StartChar: grave
Encoding: 23 96 127
Width: 271
VWidth: 0
InSpiro: 1
Flags: HW
LayerCount: 3
Fore
SplineSet
104.833984375 610.799804688 m 0
 60.4228515625 655.811523438 47.4267578125 673.500976562 50.404296875 684.885742188 c 0
 53.876953125 698.1640625 59.802734375 699.721679688 103.217773438 698.772460938 c 1
 169.310546875 699.778320312 161.9296875 694.106445312 211.293945312 594.901367188 c 1
 228.374023438 565.922851562 226.153320312 541.9453125 188.150390625 534.040039062 c 1
 157.243164062 532.275390625 126.029296875 589.134765625 104.833984375 610.799804688 c 0
  Spiro
    104.834 610.8 o
    70.3484 647.453 o
    53.3147 670.639 o
    50.4056 684.886 o
    55.9843 694.592 o
    71.0247 698.546 o
    103.218 698.772 v
    149.611 694.349 o
    176.048 666.099 o
    211.294 594.902 v
    221.329 568.024 o
    214.821 546.875 o
    188.151 534.04 v
    157.554 548.315 o
    128.96 580.913 o
    0 0 z
  EndSpiro
EndSplineSet
Validated: 33
EndChar

StartChar: numbersign
Encoding: 24 35 128
Width: 589
VWidth: 0
Flags: HW
LayerCount: 3
Fore
SplineSet
309.737304688 37.22265625 m 4
 316.0703125 72.12890625 325.87890625 108.783203125 334.032226562 153.641601562 c 4
 345.591796875 212.798828125 359.489257812 214.057617188 311.569335938 213.625976562 c 4
 289.306640625 214.17578125 274.604492188 211.416015625 219.143554688 215.293945312 c 4
 191.65234375 218.7265625 182.546875 218.88671875 178.61328125 194.2734375 c 4
 168.291015625 137.904296875 160.30078125 97.7705078125 147.477539062 37.384765625 c 4
 138.26171875 -16.98828125 84.333984375 2.0703125 96.1123046875 37.841796875 c 5
 110.512695312 103.428710938 115.65625 140.677734375 127.493164062 190.114257812 c 4
 135.459960938 220.48046875 131.671875 220.594726562 109.142578125 219.725585938 c 4
 102.069335938 219.453125 81.298828125 220.430664062 68.12109375 220.681640625 c 4
 43.880859375 224.5703125 40.625 267.124023438 79.076171875 268.174804688 c 4
 150.540039062 268.357421875 144.890625 259.043945312 153.612304688 298.250976562 c 4
 171.234375 372.411132812 171.673828125 382.782226562 180.9375 421.887695312 c 4
 183.634765625 438.861328125 182.338867188 442.291015625 172.23046875 444.93359375 c 4
 139.734375 448.596679688 111.58984375 443.9140625 74.1240234375 446.905273438 c 5
 35.38671875 458.018554688 52.884765625 491.188476562 67.994140625 493.911132812 c 4
 79.6572265625 496.205078125 111.920898438 494.446289062 169.87109375 496.185546875 c 4
 195.782226562 495.577148438 195.345703125 491.385742188 200.490234375 523.143554688 c 5
 214.329101562 569.561523438 225.1328125 641.88671875 236.390625 681.712890625 c 5
 251.102539062 716.586914062 287.219726562 698.337890625 282.42578125 675.174804688 c 4
 272.293945312 628.717773438 263.198242188 565.572265625 251.698242188 519.115234375 c 4
 244.526367188 492.844726562 245.430664062 499.120117188 277.991210938 498.506835938 c 4
 304.546875 497.756835938 345.291015625 497.40625 372.004882812 496.155273438 c 4
 416.260742188 495.928710938 408.635742188 505.240234375 417.806640625 540.543945312 c 4
 431.391601562 591.701171875 439.487304688 630.1640625 448.778320312 680.106445312 c 5
 463.385742188 716.353515625 507.03125 698.243164062 502.166992188 668.940429688 c 5
 494.125 643.155273438 482.086914062 581.979492188 468.868164062 531.576171875 c 4
 459.111328125 490.563476562 452.98828125 497.709960938 513.750976562 494.036132812 c 5
 549.21484375 488.772460938 546.754882812 444.435546875 506.9609375 445.116210938 c 5
 444.938476562 452.330078125 447.573242188 441.220703125 436.63671875 398.590820312 c 4
 430.740234375 365.981445312 421.016601562 326.075195312 415.765625 300.732421875 c 4
 407.169921875 248.83984375 412.567382812 265.81640625 512.5390625 259.752929688 c 4
 551.348632812 256.415039062 544.547851562 209.502929688 515.288085938 210.990234375 c 4
 481.333007812 211.87890625 464.803710938 208.96875 437.296875 212.198242188 c 4
 397.595703125 213.18359375 398.291992188 212.88671875 386.891601562 151.499023438 c 5
 369.939453125 87.79296875 368.653320312 65.02734375 361.01171875 35.2763671875 c 4
 351.420898438 -16.1337890625 300.791992188 -4.4765625 309.737304688 37.22265625 c 4
365.78515625 305.23046875 m 5
 377.418945312 355.252929688 381.749023438 379.654296875 389.870117188 422.432617188 c 5
 398.674804688 448.327148438 382.5625 445.866210938 375.651367188 447.556640625 c 4
 356.396484375 448.122070312 337.794921875 450.1796875 312.912109375 450.1796875 c 4
 240.913085938 450.04296875 239.012695312 458.3046875 233.817382812 429.215820312 c 4
 230.44921875 419.946289062 219.702148438 379.61328125 213.701171875 339.586914062 c 5
 192.578125 255.02734375 188.278320312 264.319335938 275.942382812 262.359375 c 4
 353.958984375 261.8125 357.603515625 256.223632812 365.78515625 305.23046875 c 5
EndSplineSet
Validated: 33
EndChar

StartChar: uni2116
Encoding: 25 8470 129
Width: 1017
VWidth: 0
Flags: HW
LayerCount: 3
Fore
SplineSet
50.041015625 40.5419921875 m 4
 49.5859375 65.8623046875 53.1279296875 46.8447265625 52.1435546875 229.778320312 c 4
 52.40234375 337.244140625 53.517578125 434.4609375 52.13671875 515.133789062 c 4
 50.5224609375 631.674804688 50.2099609375 661.876953125 50.568359375 666.950195312 c 4
 52.076171875 711.158203125 125.124023438 691.368164062 137.615234375 671.057617188 c 4
 253.359375 496.577148438 339.556640625 362.354492188 469.499023438 161.064453125 c 4
 485.447265625 136.749023438 486.41015625 147.336914062 487.0234375 165.78125 c 4
 486.514648438 209.495117188 487.5234375 256.01953125 487.275390625 291.748046875 c 4
 482.3984375 440.153320312 488.159179688 532.561523438 484.581054688 646.590820312 c 4
 480.842773438 713.357421875 568.639648438 704.663085938 561.954101562 644.568359375 c 5
 562.40625 460.583007812 566.995117188 259.254882812 562.9921875 145.926757812 c 5
 566.71875 -52.47265625 486.157226562 -20.0341796875 426.997070312 85.31640625 c 5
 314.27734375 253.639648438 226.182617188 383.836914062 147.633789062 515.594726562 c 4
 130.177734375 541.073242188 127.591796875 521.415039062 129.549804688 507.372070312 c 4
 131.046875 422.642578125 133.380859375 343.118164062 130.166992188 242.224609375 c 5
 131.8359375 171.606445312 130.469726562 108.48046875 129.875976562 42.197265625 c 5
 125.326171875 -13.9130859375 51.0537109375 -9.1845703125 50.041015625 40.5419921875 c 4
673.09765625 56.080078125 m 4
 626.3125 57.142578125 630.501953125 112.727539062 669.514648438 114.845703125 c 4
 758.643554688 113.432617188 846.995117188 113.803710938 937.103515625 113.681640625 c 4
 972.8984375 114.13671875 979.936523438 60.7587890625 941.364257812 57.541015625 c 4
 850.584960938 56.572265625 762.1953125 56.4013671875 673.09765625 56.080078125 c 4
794.71484375 549.319335938 m 5
 1027.37011719 540.893554688 1008.01171875 175.201171875 796.27734375 168.661132812 c 5
 587.34765625 168.01953125 567.466796875 540.866210938 794.71484375 549.319335938 c 5
795.200195312 491.190429688 m 5
 660.345703125 484.045898438 650.658203125 244.692382812 797.651367188 226.112304688 c 5
 941.436523438 236.03125 929.9453125 487.852539062 795.200195312 491.190429688 c 5
EndSplineSet
Validated: 33
EndChar

StartChar: dollar
Encoding: 26 36 130
Width: 514
VWidth: 0
Flags: HW
LayerCount: 3
Fore
SplineSet
241.490234375 -62.1669921875 m 4
 241.028320312 -51.439453125 240.96875 -27.0029296875 241.102539062 -13.3173828125 c 4
 241.755859375 3.7861328125 240.696289062 0.08203125 214.416015625 3.1826171875 c 5
 145.884765625 21.1611328125 83.345703125 52.5322265625 53.857421875 140.016601562 c 4
 33.873046875 204.815429688 97.185546875 207.1640625 114.471679688 172.549804688 c 5
 134.926757812 92.3076171875 164.943359375 73.5205078125 215.9765625 61.7822265625 c 4
 242.778320312 53.857421875 241.862304688 56.4453125 240.830078125 105.254882812 c 4
 242.041992188 182.794921875 238.603515625 213.653320312 239.4375 255.1328125 c 4
 241.217773438 324.634765625 245.891601562 319.395507812 205.709960938 336.450195312 c 4
 168.623046875 354.208007812 65.8955078125 361.5859375 60.060546875 486.235351562 c 4
 57.083984375 582.861328125 117.6953125 650.709960938 203.432617188 670.3828125 c 4
 224.150390625 674.366210938 243.65234375 669.11328125 238.927734375 694.962890625 c 4
 235.33984375 723.3203125 278.340820312 734.67578125 279.986328125 696.536132812 c 5
 275.60546875 672.231445312 286.849609375 677.516601562 341.474609375 659.31640625 c 4
 392.750976562 641.512695312 426.169921875 613.611328125 441.244140625 560.857421875 c 5
 459.704101562 517.137695312 396.1015625 496.502929688 381.595703125 534.471679688 c 5
 347.950195312 591.387695312 342.466796875 589.922851562 327.5078125 601.66796875 c 5
 275.037109375 626.271484375 279.734375 605.141601562 280.313476562 574.088867188 c 4
 280.958984375 530.315429688 282.569335938 530.805664062 281.521484375 478.896484375 c 4
 283.213867188 386.33984375 273.513671875 392.223632812 301.693359375 376.60546875 c 4
 321.131835938 369.668945312 325.668945312 370.225585938 338.798828125 362.53125 c 4
 516.580078125 299.48828125 511.552734375 38.7841796875 291.5859375 2.7265625 c 4
 274.102539062 2.1357421875 282.704101562 -6.603515625 281.7421875 -27.3212890625 c 4
 281.056640625 -42.0732421875 281.517578125 -52.3203125 281.435546875 -63.3583984375 c 4
 280.62109375 -86.9443359375 243.309570312 -81.875 241.490234375 -62.1669921875 c 4
302.013671875 302.555664062 m 5
 277.639648438 311.66796875 281.313476562 310.4765625 279.154296875 255.901367188 c 4
 279.903320312 191.573242188 281.569335938 128.564453125 280.014648438 93.58203125 c 4
 277.244140625 36.3046875 297.940429688 58.3505859375 306.59375 58.3505859375 c 5
 467.7890625 140.024414062 412.611328125 283.782226562 302.013671875 302.555664062 c 5
241.826171875 437.293945312 m 4
 242.009765625 453.65234375 241.46875 482.466796875 240.624023438 501.327148438 c 4
 239.780273438 520.188476562 239.555664062 559.40625 240.315429688 574.306640625 c 4
 240.11328125 608.123046875 248.333984375 614.700195312 206.040039062 610.533203125 c 5
 87.236328125 567.412109375 123.10546875 428.623046875 222.6328125 403.609375 c 5
 246.215820312 392.655273438 241.663085938 408.889648438 241.826171875 437.293945312 c 4
EndSplineSet
Validated: 33
EndChar

StartChar: asciicircum
Encoding: 27 94 131
Width: 434
VWidth: 0
Flags: HW
LayerCount: 3
Fore
SplineSet
52.2080078125 379.5390625 m 5
 89.900390625 468.435546875 134.860351562 565.231445312 188.265625 673.590820312 c 5
 202.260742188 697.311523438 211.131835938 702.005859375 232.041015625 696.7578125 c 5
 245.779296875 689.521484375 261.8828125 688.053710938 277.181640625 639.22265625 c 5
 317.09375 546.603515625 330.924804688 511.15234375 365.76953125 423.319335938 c 5
 374.873046875 405.28125 377.772460938 395.697265625 383.001953125 382.35546875 c 5
 394.775390625 329.0546875 333.904296875 328.444335938 322.708984375 358.283203125 c 4
 292.767578125 442.8203125 258.8984375 531.440429688 236.772460938 599.358398438 c 4
 224.33984375 640.203125 221.586914062 623.65234375 213.01953125 599.594726562 c 4
 181.064453125 519.456054688 144.380859375 437.690429688 114.861328125 362.678710938 c 5
 88.9580078125 312.509765625 38.908203125 352.180664062 52.2080078125 379.5390625 c 5
EndSplineSet
Validated: 33
EndChar

StartChar: asterisk
Encoding: 28 42 132
Width: 447
VWidth: 0
Flags: HW
LayerCount: 3
Fore
SplineSet
278.794921875 365.73046875 m 4
 270.181640625 381.205078125 249.059570312 414.169921875 228.959960938 464.141601562 c 4
 224.823242188 474.422851562 222.725585938 472.348632812 218.2265625 464.904296875 c 4
 187.46484375 415.359375 175.299804688 389.885742188 154.760742188 358.341796875 c 4
 130.755859375 321.5546875 63.130859375 366.680664062 97.1005859375 404.444335938 c 4
 122.857421875 432.418945312 141.958007812 453.143554688 168.3515625 476.608398438 c 5
 182.619140625 491.649414062 181.280273438 495.919921875 168.017578125 497.538085938 c 4
 127.911132812 502.603515625 109.4140625 510.484375 85.70703125 519.071289062 c 5
 21.8662109375 535.053710938 52.9921875 604.297851562 105.958007812 582.825195312 c 5
 149.685546875 561.54296875 137.760742188 566.16796875 160.668945312 554.98046875 c 5
 198.237304688 542.006835938 205.848632812 532.72265625 202.180664062 565.022460938 c 6
 195.35546875 662.159179688 l 6
 191.493164062 717.360351562 265.734375 706.07421875 258.692382812 660.666992188 c 5
 256.401367188 618.961914062 250.412109375 572.940429688 249.674804688 564.662109375 c 4
 247.5859375 541.228515625 243.026367188 537.751953125 270.594726562 552.750976562 c 4
 282.22265625 559.078125 332.053710938 577.927734375 343.58984375 582.745117188 c 4
 402.600585938 605.381835938 419.670898438 532.163085938 360.54296875 519.625976562 c 5
 335.481445312 511.791015625 309.975585938 502.935546875 293.073242188 499.361328125 c 4
 258.4765625 493.62109375 273.026367188 481.0546875 283.012695312 468.765625 c 4
 299.2421875 447.377929688 326.274414062 424.9609375 341.750976562 406.860351562 c 4
 374.073242188 365.504882812 310.268554688 313.54296875 278.794921875 365.73046875 c 4
EndSplineSet
Validated: 33
EndChar

StartChar: underscore
Encoding: 29 95 133
Width: 721
VWidth: 0
Flags: HW
LayerCount: 3
Fore
SplineSet
83.337890625 2.8408203125 m 5
 38.00390625 3.033203125 40.185546875 67.0498046875 82.099609375 65.5634765625 c 5
 279.640625 64.5234375 461.266601562 63.38671875 641.443359375 65 c 5
 685.533203125 65.0732421875 675.040039062 2.046875 645.482421875 2.9453125 c 5
 440.946289062 0.7421875 274.141601562 -0.6513671875 83.337890625 2.8408203125 c 5
EndSplineSet
Validated: 33
EndChar

StartChar: braceleft
Encoding: 30 123 134
Width: 336
VWidth: 0
Flags: HW
LayerCount: 3
Fore
SplineSet
157.51171875 -74.533203125 m 4
 86.9609375 1.7197265625 250.956054688 174.57421875 80.6328125 247.815429688 c 4
 33.802734375 264.377929688 46.2138671875 335.434570312 80.75 335.989257812 c 5
 273.560546875 359.5859375 39.2587890625 635.78125 198.404296875 693.166992188 c 4
 222.876953125 701.223632812 233.967773438 702.825195312 263.739257812 689.647460938 c 4
 306.682617188 667.481445312 281.235351562 621.649414062 253.166992188 628.809570312 c 5
 136.305664062 766.424804688 283.0234375 355.091796875 151.654296875 310.8984375 c 5
 134.984375 300.907226562 125.955078125 296.53125 149.88671875 278.037109375 c 4
 279.940429688 184.063476562 138.7265625 -150.798828125 238.026367188 -32.66015625 c 5
 253.189453125 7.8671875 318.627929688 -39.0888671875 266.376953125 -75.3017578125 c 4
 222.49609375 -102.344726562 198.962890625 -115.461914062 157.51171875 -74.533203125 c 4
EndSplineSet
Validated: 33
EndChar

StartChar: braceright
Encoding: 31 125 135
Width: 336
VWidth: 0
Flags: HW
LayerCount: 3
Fore
SplineSet
179.168945312 -74.533203125 m 4
 137.716796875 -115.461914062 114.184570312 -102.344726562 70.3037109375 -75.3017578125 c 4
 18.052734375 -39.0888671875 83.4912109375 7.8671875 98.654296875 -32.66015625 c 5
 197.954101562 -150.798828125 56.740234375 184.063476562 186.793945312 278.037109375 c 4
 210.725585938 296.53125 201.696289062 300.907226562 185.025390625 310.8984375 c 5
 53.6572265625 355.091796875 200.375 766.424804688 83.513671875 628.809570312 c 5
 55.4453125 621.649414062 29.998046875 667.481445312 72.94140625 689.647460938 c 4
 102.712890625 702.825195312 113.803710938 701.223632812 138.276367188 693.166992188 c 4
 297.421875 635.78125 63.1201171875 359.5859375 255.9296875 335.989257812 c 5
 290.466796875 335.434570312 302.876953125 264.377929688 256.047851562 247.815429688 c 4
 85.724609375 174.57421875 249.71875 1.7197265625 179.168945312 -74.533203125 c 4
EndSplineSet
Validated: 33
EndChar

StartChar: bracketleft
Encoding: 32 91 136
Width: 256
VWidth: 0
Flags: HW
LayerCount: 3
Fore
SplineSet
191.822265625 -99.669921875 m 4
 172.1328125 -99.3818359375 157.366210938 -100.666015625 126.09375 -99.39453125 c 4
 93.224609375 -100.604492188 73.0615234375 -99.6787109375 59.462890625 -100.014648438 c 4
 48.005859375 -101.50390625 50.3798828125 -87.8486328125 50.69921875 -62.33203125 c 4
 50.615234375 23.8017578125 49.5234375 212.116210938 50.2451171875 326.17578125 c 4
 51.6171875 396.9765625 51.666015625 441.310546875 50.55078125 604.62109375 c 4
 50.333984375 636.34765625 51.302734375 643.362304688 51.25390625 664.232421875 c 4
 51.50390625 680.5859375 49.05078125 698.083007812 58.8623046875 698.768554688 c 4
 97.3720703125 699.946289062 178.263671875 700.6171875 188.453125 698.5078125 c 4
 216.08984375 696.466796875 209.223632812 654.182617188 187.137695312 655.140625 c 4
 166.9765625 656.1328125 151.645507812 654.795898438 128.930664062 655.251953125 c 4
 106.282226562 655.916015625 111.333007812 649.58984375 111.333007812 617.15625 c 4
 107.8359375 414.325195312 107.616210938 226.67578125 104.684570312 35.70703125 c 5
 108.668945312 -65.3291015625 99.5615234375 -53.685546875 129.450195312 -54.7099609375 c 4
 152.06640625 -54.1015625 176.173828125 -53.9013671875 190.497070312 -54.37109375 c 4
 213.28515625 -54.6728515625 209.90234375 -99.6953125 191.822265625 -99.669921875 c 4
EndSplineSet
Validated: 33
EndChar

StartChar: bracketright
Encoding: 33 93 137
Width: 256
VWidth: 0
Flags: HW
LayerCount: 3
Fore
SplineSet
64.744140625 -100.669921875 m 6
 64.744140625 -100.669921875 l 6
 46.6640625 -100.6953125 43.28125 -55.6728515625 66.0693359375 -55.37109375 c 4
 80.392578125 -54.9013671875 104.5 -55.1015625 127.116210938 -55.7099609375 c 4
 157.004882812 -54.685546875 147.897460938 -66.3291015625 151.881835938 34.70703125 c 5
 148.950195312 225.67578125 148.73046875 413.325195312 145.234375 616.15625 c 4
 145.234375 648.58984375 150.284179688 654.916015625 127.63671875 654.251953125 c 4
 104.921875 653.795898438 89.58984375 655.1328125 69.427734375 654.140625 c 4
 47.3427734375 653.182617188 40.4765625 695.466796875 68.1123046875 697.5078125 c 4
 78.302734375 699.6171875 159.1953125 698.946289062 197.703125 697.768554688 c 4
 207.515625 697.083007812 205.0625 679.5859375 205.3125 663.232421875 c 4
 205.263671875 642.362304688 206.232421875 635.34765625 206.015625 603.62109375 c 4
 204.900390625 440.310546875 204.94921875 395.9765625 206.321289062 325.17578125 c 4
 207.04296875 211.116210938 205.951171875 22.8017578125 205.8671875 -63.33203125 c 4
 206.186523438 -88.8486328125 208.560546875 -102.50390625 197.103515625 -101.014648438 c 4
 183.504882812 -100.678710938 163.341796875 -101.604492188 130.47265625 -100.39453125 c 4
 99.2001953125 -101.666015625 84.43359375 -100.381835938 64.744140625 -100.669921875 c 6
EndSplineSet
Validated: 33
EndChar

StartChar: bar
Encoding: 34 124 138
Width: 156
VWidth: 0
Flags: HW
LayerCount: 3
Fore
SplineSet
50.611328125 -80.0087890625 m 4
 49.84765625 -67.796875 52.056640625 512.806640625 50.0498046875 678.078125 c 4
 48.0537109375 704.51953125 106.875 707.490234375 106.103515625 677.5 c 6
 106.360351562 302.638671875 l 6
 106.610351562 -61.287109375 106.609375 -64.9990234375 106.342773438 -80.47265625 c 4
 106.647460938 -109.130859375 49.7880859375 -106.77734375 50.611328125 -80.0087890625 c 4
EndSplineSet
Validated: 33
EndChar

StartChar: backslash
Encoding: 35 92 139
Width: 333
VWidth: 0
Flags: HW
LayerCount: 3
Fore
SplineSet
233.234375 16.40234375 m 5
 167.685546875 253.754882812 116.3046875 443.401367188 52.66796875 657.098632812 c 4
 37.64453125 700.942382812 90.40625 721.142578125 103.255859375 666.234375 c 5
 165.977539062 463.555664062 223.943359375 252.03125 283.126953125 30.763671875 c 4
 289.473632812 2.3525390625 246.791992188 -15.36328125 233.234375 16.40234375 c 5
EndSplineSet
Validated: 33
EndChar

StartChar: less
Encoding: 36 60 140
Width: 699
VWidth: 0
Flags: HW
LayerCount: 3
Fore
SplineSet
608.004882812 63.9140625 m 5
 434.140625 141.245117188 268.83203125 206.92578125 89.6005859375 297.392578125 c 4
 22.3203125 332.741210938 48.4365234375 354.587890625 110.717773438 386.850585938 c 4
 298.4609375 476.288085938 415.955078125 525.678710938 610.15234375 613.25 c 5
 655.1796875 626 662.0625 579.243164062 630.721679688 567.576171875 c 4
 464.01953125 495.845703125 344.313476562 443.942382812 206.434570312 378.743164062 c 5
 125.078125 349.100585938 118.377929688 334.740234375 193.623046875 305.182617188 c 5
 334.62109375 237.825195312 468.430664062 176.614257812 631.572265625 108.848632812 c 5
 675.395507812 79.859375 628.893554688 48.5322265625 608.004882812 63.9140625 c 5
EndSplineSet
Validated: 33
EndChar

StartChar: greater
Encoding: 37 62 141
Width: 699
VWidth: 0
Flags: HW
LayerCount: 3
Fore
SplineSet
91.9951171875 63.9140625 m 5
 71.1064453125 48.5322265625 24.603515625 79.859375 68.427734375 108.848632812 c 5
 231.569335938 176.614257812 365.37890625 237.825195312 506.376953125 305.182617188 c 5
 581.622070312 334.740234375 574.921875 349.100585938 493.565429688 378.743164062 c 5
 355.686523438 443.942382812 235.98046875 495.845703125 69.2783203125 567.576171875 c 4
 37.9375 579.243164062 44.8203125 626 89.84765625 613.25 c 5
 284.043945312 525.678710938 401.5390625 476.288085938 589.282226562 386.850585938 c 4
 651.563476562 354.587890625 677.6796875 332.741210938 610.399414062 297.392578125 c 4
 431.16796875 206.92578125 265.859375 141.245117188 91.9951171875 63.9140625 c 5
EndSplineSet
Validated: 33
EndChar

StartChar: colon
Encoding: 38 58 142
Width: 182
VWidth: 0
Flags: HW
LayerCount: 3
Fore
SplineSet
59.2177734375 388.952148438 m 4
 53.990234375 388.833007812 50.025390625 388.62109375 50.0751953125 399.659179688 c 4
 51.03125 426.555664062 48.904296875 451.6875 50.8623046875 476.169921875 c 4
 50.9130859375 485.063476562 54.3984375 484.713867188 61.3046875 486.420898438 c 4
 90.2197265625 485.91015625 86.46875 485.517578125 118.936523438 485.331054688 c 4
 131.548828125 484.979492188 131.15234375 482.866210938 131.420898438 472.735351562 c 4
 130.28125 451.181640625 131.108398438 423.33203125 130.559570312 400.77734375 c 4
 130.328125 390.522460938 129.614257812 388.326171875 120.877929688 389.020507812 c 4
 105.272460938 387.038085938 66.0439453125 389.102539062 59.2177734375 388.952148438 c 4
59.9853515625 1.220703125 m 4
 54.7568359375 1.1005859375 50.791015625 0.888671875 50.841796875 11.9267578125 c 4
 51.7978515625 38.822265625 49.669921875 63.9560546875 51.6279296875 88.4365234375 c 4
 51.6796875 97.330078125 55.1650390625 96.98046875 62.0703125 98.689453125 c 4
 90.986328125 98.177734375 87.2353515625 97.7861328125 119.703125 97.59765625 c 4
 132.315429688 97.248046875 131.919921875 95.1328125 132.1875 85.001953125 c 4
 131.046875 63.44921875 131.874023438 35.599609375 131.325195312 13.044921875 c 4
 131.09375 2.7900390625 130.37890625 0.59375 121.64453125 1.287109375 c 4
 106.0390625 -0.6953125 66.8095703125 1.3701171875 59.9853515625 1.220703125 c 4
EndSplineSet
Validated: 33
EndChar

StartChar: semicolon
Encoding: 39 59 143
Width: 224
VWidth: 0
Flags: HW
LayerCount: 3
Fore
SplineSet
53.36328125 -49.2490234375 m 4
 62.9501953125 -20.2451171875 72.103515625 7.5048828125 85.408203125 43.63671875 c 5
 94.5595703125 93.3583984375 190.022460938 67.5693359375 150.932617188 14.9833984375 c 5
 139.401367188 -11.2421875 119.407226562 -43.306640625 101.13671875 -70.5888671875 c 4
 78.4853515625 -104.891601562 38.091796875 -88.1767578125 53.36328125 -49.2490234375 c 4
116.159179688 380.668945312 m 4
 93.15234375 380.560546875 94.8369140625 394.243164062 94.9140625 405.486328125 c 4
 93.908203125 442.275390625 94.9638671875 424.75390625 94.294921875 461.345703125 c 4
 94.296875 478.447265625 95.5048828125 487.114257812 116.634765625 486.817382812 c 4
 144.22265625 485.357421875 115.717773438 487.294921875 152.405273438 486.008789062 c 4
 176.092773438 485.23828125 174.772460938 470.038085938 174.88671875 460.294921875 c 4
 174.801757812 431.283203125 174.825195312 439.340820312 174.24609375 409.708007812 c 4
 174.370117188 382.35546875 172.564453125 381.696289062 153.627929688 380.49609375 c 4
 136.626953125 379.577148438 131.311523438 378.934570312 116.159179688 380.668945312 c 4
EndSplineSet
Validated: 33
EndChar

StartChar: equal
Encoding: 40 61 144
Width: 483
VWidth: 0
Flags: HW
LayerCount: 3
Fore
SplineSet
72.09765625 350.89453125 m 1
 39.111328125 354.208984375 47.0947265625 401.919921875 73.28125 403.169921875 c 1
 142.748046875 404.385742188 343.880859375 405.131835938 414.922851562 403.80078125 c 1
 444.991210938 397.928710938 435.58984375 354.428710938 413.736328125 353.259765625 c 1
 354.84765625 352.287109375 139.674804688 353.133789062 72.09765625 350.89453125 c 1
71.7294921875 210.391601562 m 1
 38.7431640625 213.70703125 46.7265625 261.41796875 72.9140625 262.66796875 c 1
 142.37890625 263.8828125 343.512695312 264.62890625 414.5546875 263.296875 c 1
 444.622070312 257.42578125 435.221679688 213.92578125 413.3671875 212.756835938 c 1
 354.479492188 211.78515625 139.305664062 212.631835938 71.7294921875 210.391601562 c 1
EndSplineSet
Validated: 33
EndChar

StartChar: question
Encoding: 41 63 145
Width: 434
VWidth: 0
Flags: HW
LayerCount: 3
Fore
SplineSet
162.481445312 5.669921875 m 4
 131.993164062 24.595703125 131.017578125 57.833984375 168.69140625 71.7724609375 c 4
 184.48828125 75.166015625 204.98828125 79.658203125 213.62109375 55.6923828125 c 5
 221.723632812 13.7197265625 192.268554688 -9.83984375 162.481445312 5.669921875 c 4
124.225585938 47.2041015625 m 5
 124.225585938 47.2041015625 l 5
165.456054688 192.118164062 m 4
 158.858398438 202.629882812 148.379882812 220.91796875 149.421875 244.173828125 c 4
 154.186523438 327.010742188 197.46875 379.731445312 269.604492188 431.686523438 c 5
 391.60546875 546.21875 217.123046875 711.842773438 113.708007812 579.529296875 c 4
 80.998046875 540.525390625 31.5205078125 589.159179688 57.068359375 635.06640625 c 5
 232.041992188 809.680664062 491.572265625 596.951171875 337.749023438 378.387695312 c 5
 289.635742188 316.987304688 214.846679688 321.544921875 211.994140625 252.436523438 c 5
 218.19921875 233.178710938 228.155273438 228.202148438 226.0625 210.017578125 c 4
 224.595703125 195.194335938 187.456054688 165.083007812 165.456054688 192.118164062 c 4
EndSplineSet
Validated: 33
EndChar

StartChar: at
Encoding: 42 64 146
Width: 836
VWidth: 0
Flags: HW
LayerCount: 3
Fore
SplineSet
423.53125 609.12109375 m 5
 776.950195312 608.213867188 871.153320312 228.17578125 712.278320312 77.2509765625 c 5
 667.036132812 6.26953125 564.891601562 -27.34765625 564.241210938 35.5419921875 c 4
 564.241210938 44.8876953125 551.889648438 51.6201171875 539.6640625 46.5302734375 c 4
 505.765625 33.3193359375 484.90625 8.8251953125 423.256835938 8.9462890625 c 4
 178.020507812 5.6767578125 133.05859375 401.485351562 424.817382812 411.99609375 c 4
 478.321289062 413.345703125 525.185546875 368.318359375 507.583007812 406.154296875 c 5
 487.7109375 428.078125 475.211914062 439.159179688 514.879882812 439.841796875 c 4
 544.391601562 439.5546875 570.5078125 420.017578125 581.471679688 406.794921875 c 5
 611.212890625 387.96875 620.041992188 198.874023438 593.987304688 123.135742188 c 5
 577.0625 43.3671875 642.21875 93.72265625 663.37890625 118.315429688 c 4
 827.048828125 330.443359375 605.674804688 573.0859375 423.909179688 544.03125 c 5
 39.4814453125 525.276367188 -3.16796875 -97.123046875 423.9375 -125.181640625 c 4
 482.99609375 -128.748046875 494.620117188 -127.966796875 519.4609375 -121.474609375 c 4
 582.709960938 -97.9765625 582.78515625 -154.129882812 546.017578125 -175.78125 c 4
 522.895507812 -191.834960938 476.192382812 -192.086914062 423.684570312 -189.90625 c 5
 -158.85546875 -94.2265625 17.5146484375 603.056640625 423.53125 609.12109375 c 5
423.194335938 346.80859375 m 4
 257.961914062 342.698242188 236.98828125 83.11328125 423.541015625 71.974609375 c 5
 605.232421875 85.1435546875 577.755859375 348.434570312 423.194335938 346.80859375 c 4
EndSplineSet
Validated: 33
EndChar

StartChar: uni0410
Encoding: 96 1040 147
Width: 603
VWidth: 0
Flags: HW
LayerCount: 3
Fore
SplineSet
52.0693359375 51.791015625 m 4
 109.439453125 241.947265625 187.048828125 548.935546875 254.541015625 679.481445312 c 4
 273.938476562 717.215820312 301.904296875 696.662109375 311.768554688 680.443359375 c 4
 397.796875 475.580078125 475.692382812 252.46484375 547.572265625 63.07421875 c 4
 575.828125 -8.5615234375 487.427734375 -16.529296875 473.00390625 29.697265625 c 5
 389.180664062 211.163085938 400.10546875 209.125 355.333007812 207.442382812 c 4
 313.791015625 205.875976562 302.1640625 212.109375 224.997070312 208.498046875 c 5
 165.029296875 195.491210938 154.456054688 79.32421875 126.556640625 33.76171875 c 5
 105.119140625 -25.6962890625 37.3623046875 8.8583984375 52.0693359375 51.791015625 c 4
251.196289062 286.5859375 m 4
 280.327148438 285.248046875 295.735351562 283.568359375 314.806640625 285.921875 c 4
 375.344726562 286.541015625 378.005859375 283.291992188 361.037109375 344.149414062 c 5
 336.61328125 413.359375 333.764648438 423.696289062 309.012695312 494.55859375 c 4
 298.541015625 518.932617188 272.200195312 520.34765625 260.052734375 494.169921875 c 5
 241.329101562 438.059570312 235.244140625 403.786132812 217.4921875 351.360351562 c 4
 202.063476562 299.533203125 192.247070312 288.79296875 251.196289062 286.5859375 c 4
EndSplineSet
Validated: 33
EndChar

StartChar: uni0401
Encoding: 102 1025 148
Width: 501
VWidth: 0
Flags: HW
LayerCount: 3
Fore
SplineSet
134.354492188 4.25 m 4
 80.3154296875 7.392578125 54.0654296875 34.673828125 52.318359375 104.810546875 c 4
 47.603515625 279.495117188 51.3125 399.280273438 52.7080078125 594.6953125 c 4
 52.9765625 720.41796875 193.548828125 702.938476562 407.315429688 694.565429688 c 4
 470.376953125 689.634765625 462.756835938 611.111328125 406.912109375 610.595703125 c 4
 356.126953125 607.473632812 310.2578125 606.60546875 259.602539062 609.453125 c 4
 141.572265625 613.4140625 130.50390625 602.154296875 131.67578125 499.767578125 c 5
 130.307617188 499.767578125 131.12109375 455.879882812 131.153320312 425.453125 c 4
 131.01171875 402.514648438 148.983398438 399.694335938 194.404296875 402.15625 c 4
 247.924804688 400.739257812 254.615234375 400.84765625 310.010742188 399.944335938 c 4
 366.936523438 398.90234375 363.802734375 320.456054688 315.184570312 318.7109375 c 4
 263.5859375 319.232421875 242.32421875 317.635742188 193.927734375 321.267578125 c 5
 143.775390625 320.809570312 128.874023438 321.760742188 127.6796875 275.302734375 c 4
 126.845703125 251.204101562 130.794921875 187.939453125 128.288085938 145.202148438 c 4
 122.852539062 92.8046875 167.966796875 91.7001953125 200.998046875 93.375 c 4
 273.6484375 90.1259765625 296.494140625 90.927734375 407.807617188 92.1611328125 c 5
 474.283203125 86.0537109375 458.263671875 -3.0791015625 406.600585938 1.2822265625 c 4
 337.860351562 2.861328125 228.0703125 -1.8935546875 134.354492188 4.25 c 4
247.926757812 785.380859375 m 4
 248.7578125 809.737304688 249.518554688 826.331054688 248.82421875 854.168945312 c 4
 248.497070312 873.749023438 261.7421875 873.750976562 272.525390625 873.943359375 c 4
 302.010742188 871.295898438 285.357421875 872.557617188 319.827148438 872.098632812 c 4
 343.256835938 874.545898438 343.873046875 856.475585938 343.873046875 845.073242188 c 4
 342.659179688 819.044921875 344.530273438 803.154296875 343.713867188 783.11328125 c 4
 345.862304688 757.099609375 327.16796875 755.370117188 311.8046875 756.805664062 c 4
 289.111328125 755.936523438 281.229492188 755.80859375 267.112304688 756.576171875 c 4
 248.014648438 755.680664062 246.381835938 765.096679688 247.926757812 785.380859375 c 4
127.602539062 757.282226562 m 4
 100.75 755.370117188 99.359375 776.934570312 98.41015625 796.431640625 c 4
 97.2353515625 818.958984375 98.1357421875 802.762695312 97.5634765625 835.076171875 c 4
 95.9765625 871.202148438 108.6875 871.466796875 123.213867188 874.059570312 c 4
 131.2109375 876.467773438 144.668945312 873.415039062 160.31640625 874.884765625 c 4
 199.584960938 874.137695312 192.930664062 847.454101562 193.3671875 836.26953125 c 4
 193.974609375 815.161132812 193.516601562 820.080078125 193.931640625 798.37109375 c 4
 194.514648438 769.864257812 190.686523438 758.274414062 168.966796875 757.5546875 c 4
 157.100585938 758.322265625 144.553710938 756.740234375 127.602539062 757.282226562 c 4
EndSplineSet
Validated: 524321
EndChar

StartChar: uni0411
Encoding: 97 1041 149
Width: 514
VWidth: 0
Flags: HW
LayerCount: 3
Fore
SplineSet
133.581054688 4.80078125 m 4
 38.5947265625 12.63671875 54.31640625 96.9169921875 51.33984375 168.763671875 c 5
 51.556640625 311.893554688 49.287109375 440.421875 51.1396484375 543.614257812 c 4
 50.51953125 597.58984375 36.7529296875 692.540039062 124.455078125 695.7109375 c 5
 232.041015625 703.3515625 293.7421875 698.670898438 373.287109375 698.8828125 c 5
 443.24609375 689.451171875 406.909179688 610.24609375 372.552734375 618.353515625 c 5
 294.025390625 618.529296875 222.266601562 615.32421875 169.368164062 617.951171875 c 5
 122.329101562 616.0234375 127.883789062 594.416015625 129.955078125 532.106445312 c 4
 128.588867188 484.767578125 132.665039062 448.978515625 129.868164062 415.442382812 c 4
 125.860351562 378.237304688 130.729492188 387.39453125 164.848632812 389.568359375 c 5
 202.063476562 388.408203125 222.861328125 387.696289062 254.823242188 387.651367188 c 4
 564.913085938 369.069335938 502.375976562 -2.9052734375 251.990234375 1.84765625 c 5
 225.182617188 -0.9443359375 193.034179688 -0.6552734375 133.581054688 4.80078125 c 4
253.907226562 308.815429688 m 5
 145.97265625 311.004882812 126.841796875 313.436523438 132.224609375 233.615234375 c 5
 132.275390625 128.40234375 113.323242188 84.890625 188.342773438 80.8505859375 c 4
 216.698242188 81.267578125 225.666015625 82.3818359375 252.4296875 81.419921875 c 4
 405.498046875 68.865234375 448.603515625 310.603515625 253.907226562 308.815429688 c 5
EndSplineSet
Validated: 33
EndChar

StartChar: uni0412
Encoding: 98 1042 150
Width: 512
VWidth: 0
Flags: HW
LayerCount: 3
Fore
SplineSet
50.2373046875 154.360351562 m 5
 50.16015625 320.654296875 49.5927734375 441.127929688 50.548828125 584.608398438 c 4
 49.6630859375 648.521484375 77.4375 700.09375 150.287109375 700.135742188 c 5
 350.85546875 715.573242188 590.719726562 550.131835938 381.240234375 356.54296875 c 4
 364.073242188 342.754882812 350.418945312 337.790039062 376.422851562 323.576171875 c 4
 547.0546875 221.942382812 449.829101562 -21.0634765625 156.186523438 2.771484375 c 5
 81.623046875 13.0732421875 54.0673828125 48.1767578125 50.2373046875 154.360351562 c 5
178.010742188 301.310546875 m 5
 132.21875 304.936523438 131.033203125 285.508789062 132.68359375 253.236328125 c 4
 132.140625 222.094726562 132.790039062 201.634765625 133.53125 173.420898438 c 4
 135.315429688 142.4140625 125.004882812 92.2470703125 158.029296875 88.91796875 c 4
 435.895507812 66.7216796875 436.201171875 307.8515625 178.010742188 301.310546875 c 5
186.782226562 385.579101562 m 4
 444.4453125 371.739257812 435.930664062 620.665039062 193.4140625 616.559570312 c 5
 139.009765625 611.354492188 133.2734375 582.461914062 133.310546875 533.209960938 c 4
 131.477539062 481.939453125 130.392578125 497.37890625 130.862304688 465.375976562 c 4
 128.889648438 409.123046875 148.088867188 385.686523438 186.782226562 385.579101562 c 4
EndSplineSet
Validated: 33
EndChar

StartChar: uni0413
Encoding: 99 1043 151
Width: 439
VWidth: 0
Flags: HW
LayerCount: 3
Fore
SplineSet
50.5263671875 46.0380859375 m 5
 52.6728515625 309.0390625 49.619140625 315.75 50.0400390625 588.7734375 c 4
 52.49609375 708.986328125 90.5751953125 693.75 153.366210938 699.641601562 c 5
 199.059570312 699.54296875 261.387695312 702.32421875 332.239257812 698.623046875 c 4
 420.918945312 696.670898438 393.685546875 609.020507812 332.69140625 617.182617188 c 5
 260.232421875 618.21875 194.942382812 617.826171875 173.188476562 618.905273438 c 4
 116.946289062 618.868164062 130.470703125 588.462890625 126.279296875 519.510742188 c 5
 126.229492188 356.708984375 129.875 183.640625 125.720703125 48.310546875 c 4
 123.28125 -27.1494140625 46.76953125 -1.765625 50.5263671875 46.0380859375 c 5
 50.5263671875 46.0380859375 l 5
EndSplineSet
Validated: 524321
EndChar

StartChar: uni0414
Encoding: 100 1044 152
Width: 556
VWidth: 0
Flags: HW
LayerCount: 3
Fore
SplineSet
431.704101562 46.3359375 m 5
 428.056640625 68.7373046875 428.075195312 73.162109375 421.072265625 92.9130859375 c 4
 405.712890625 131.131835938 398.194335938 121.0625 374.154296875 120.52734375 c 4
 263.288085938 113.602539062 273.145507812 120.549804688 165.501953125 118.256835938 c 4
 140.37109375 119.18359375 132.948242188 122.502929688 129.5703125 95.0849609375 c 4
 126.705078125 73.771484375 125.200195312 68.1279296875 125.526367188 47.56640625 c 4
 124.809570312 -16.953125 47.9541015625 -7.97265625 50.0419921875 45.666015625 c 4
 53.1455078125 122.926757812 52.6435546875 83.619140625 53.8916015625 150.739257812 c 4
 56.560546875 180.459960938 78.4169921875 176.681640625 100.116210938 175.836914062 c 4
 111.721679688 174.252929688 110.341796875 179.020507812 114.1875 195.604492188 c 5
 196.27734375 383.017578125 115.076171875 559.282226562 179.600585938 649.7734375 c 5
 199.1171875 704.6875 295.883789062 697.41015625 369.537109375 700.647460938 c 5
 419.965820312 698.071289062 426.0234375 686.819335938 435.516601562 640.872070312 c 4
 439.13671875 630.162109375 425.755859375 576.189453125 441.016601562 362.297851562 c 4
 443.98828125 311.409179688 446.53515625 277.333984375 454.346679688 221.87890625 c 4
 457.360351562 190.828125 453.370117188 194.293945312 481.990234375 194.068359375 c 4
 502.51953125 190.923828125 508.349609375 164.572265625 505.681640625 143.734375 c 4
 505.459960938 82.1923828125 505.328125 115.71875 506.053710938 51.75390625 c 4
 506.786132812 -22.474609375 430.4765625 -8.3505859375 431.704101562 46.3359375 c 5
238.666992188 196.987304688 m 4
 329.1171875 198.954101562 253.57421875 196.922851562 338.916015625 198.5 c 4
 387.3984375 199.440429688 373.625 218.375976562 372.767578125 266.077148438 c 5
 363.1796875 376.66015625 382.069335938 402.467773438 361.358398438 571.981445312 c 4
 356.8828125 618.333007812 323.678710938 614.557617188 265.77734375 613.603515625 c 4
 241.430664062 613.387695312 243.081054688 603.4609375 234.458984375 574.963867188 c 5
 203.668945312 513.912109375 255.125976562 363.698242188 202.912109375 216.432617188 c 4
 200.607421875 203.4453125 191.30078125 193.311523438 238.666992188 196.987304688 c 4
EndSplineSet
Validated: 524321
EndChar

StartChar: uni0415
Encoding: 101 1045 153
Width: 456
VWidth: 0
Flags: HW
LayerCount: 3
Fore
SplineSet
117.969726562 7.19140625 m 5
 39.21484375 6.310546875 49.962890625 62.9306640625 51.12109375 160.889648438 c 4
 54.2099609375 203.534179688 54.1513671875 251.866210938 54.515625 279.9453125 c 4
 54.50390625 284.416015625 54.66796875 318.969726562 54.884765625 356.731445312 c 4
 57.5546875 439.359375 51.693359375 555.768554688 53.1826171875 607.797851562 c 4
 59.2431640625 684.485351562 76.185546875 702.215820312 157.336914062 701.04296875 c 4
 225.893554688 702.384765625 188.733398438 696.220703125 265.866210938 697.1328125 c 4
 327.5078125 699.0546875 317.390625 698.581054688 376.517578125 699.203125 c 4
 423.337890625 699.145507812 410.694335938 622.861328125 375.079101562 623.083984375 c 4
 350.590820312 622.251953125 327.4765625 619.107421875 307.80078125 621.453125 c 4
 262.604492188 624.774414062 299.103515625 621.34765625 230.78125 622.768554688 c 4
 156.337890625 626.853515625 141.265625 636.10546875 133.858398438 575.94921875 c 4
 129.150390625 521.326171875 130.096679688 477.294921875 130.609375 423.422851562 c 4
 129.045898438 393.5 145.283203125 395.500976562 177.587890625 396.802734375 c 4
 257.203125 393.872070312 285.985351562 400.118164062 344.811523438 398.62890625 c 4
 404.205078125 395.690429688 394.669921875 318.8671875 347.172851562 316.323242188 c 5
 274.833984375 318.58984375 265.944335938 312.092773438 180.48828125 318.114257812 c 5
 136.118164062 316.424804688 136.084960938 300.151367188 137.67578125 246.416015625 c 5
 135.307617188 204.026367188 133.3671875 173.180664062 128.837890625 137.3046875 c 5
 127.579101562 91.9033203125 144.19921875 94.59375 181.52734375 92.9296875 c 4
 285.288085938 89.5244140625 246.516601562 93.9951171875 363.486328125 92.33203125 c 5
 421.986328125 87.9892578125 413.814453125 7.3251953125 366.181640625 8.693359375 c 5
 211.682617188 -3.916015625 207.797851562 2.205078125 117.969726562 7.19140625 c 5
EndSplineSet
Validated: 524321
EndChar

StartChar: uni0416
Encoding: 103 1046 154
Width: 646
VWidth: 0
Flags: HW
LayerCount: 3
Fore
SplineSet
397.134765625 256.873046875 m 5
 379.1953125 274.7109375 366.2421875 270.520507812 368.702148438 254.807617188 c 4
 370.106445312 170.309570312 371.211914062 145.881835938 371.337890625 67.30078125 c 4
 370.454101562 -32.9150390625 277.3125 -1.2431640625 284.509765625 72.05078125 c 5
 286.999023438 150.62890625 285.416015625 188.078125 285.697265625 255.202148438 c 4
 285.184570312 272.922851562 274.0078125 265.051757812 266.859375 255.048828125 c 4
 186.370117188 159.228515625 181.614257812 88.6484375 110.754882812 15.982421875 c 4
 71.451171875 -24.68359375 31.470703125 27.7626953125 60.408203125 61.03515625 c 4
 144.1484375 156.008789062 134.5546875 204.3515625 225.157226562 313.53125 c 4
 242.772460938 332.400390625 245.661132812 339.962890625 237.646484375 349.376953125 c 4
 162.001953125 435.555664062 132.33984375 556.036132812 66.5087890625 632.796875 c 4
 25.1328125 677.301757812 69.818359375 726.447265625 109.737304688 682.32421875 c 4
 205.278320312 580.001953125 188.775390625 503.258789062 253.64453125 437.182617188 c 5
 271.828125 414.26171875 282.6796875 417.123046875 283.4609375 446.224609375 c 4
 288.38671875 507.490234375 281.772460938 581.586914062 286.068359375 627.228515625 c 4
 291.174804688 696.391601562 366.84765625 680.229492188 365.975585938 624.5703125 c 5
 369.309570312 561.556640625 367.890625 496.755859375 365.452148438 444.572265625 c 4
 365.041992188 415.571289062 371.330078125 409.8359375 406.3046875 437.94921875 c 5
 496.961914062 522.47265625 444.57421875 593.68359375 533.549804688 684.22265625 c 4
 575.100585938 723.817382812 614.36328125 684.734375 587.603515625 645.19140625 c 5
 510.12890625 554.833007812 502.981445312 438.784179688 428.025390625 355.520507812 c 4
 413.517578125 342.220703125 416.157226562 338.116210938 430.959960938 323.2421875 c 4
 542.450195312 190.880859375 467.2265625 192.810546875 588.431640625 57.5361328125 c 5
 612.358398438 18.9873046875 570.348632812 -22.5673828125 531.8046875 16.29296875 c 5
 459.155273438 100.19921875 446.389648438 194.008789062 397.134765625 256.873046875 c 5
EndSplineSet
Validated: 524321
EndChar

StartChar: uni0417
Encoding: 104 1047 155
Width: 452
VWidth: 0
Flags: HW
LayerCount: 3
Fore
SplineSet
64.8544921875 54.951171875 m 4
 26.0009765625 85.392578125 72.92578125 163.415039062 118.147460938 113.250976562 c 5
 275.250976562 22.42578125 366.3671875 139.557617188 292.4609375 259.208984375 c 5
 266.02734375 323.416015625 251.858398438 307.614257812 216.317382812 309.104492188 c 4
 185.727539062 309.283203125 179.490234375 308.201171875 141.146484375 308.08203125 c 4
 82.3076171875 305.025390625 91.0771484375 389.244140625 143.216796875 388.35546875 c 4
 204.864257812 384.005859375 178.38671875 387.239257812 245.408203125 386.038085938 c 5
 291.799804688 378.456054688 283.435546875 401.497070312 306.708984375 436.694335938 c 5
 387.645507812 581.193359375 179.766601562 677.142578125 122.551757812 588.514648438 c 4
 94.74609375 541.401367188 30.978515625 563.84765625 55.50390625 621.921875 c 5
 183.662109375 814.346679688 517.611328125 623.4921875 361.380859375 381.100585938 c 4
 331.099609375 336.408203125 332.766601562 323.854492188 358.485351562 290.07421875 c 4
 493.905273438 101.34765625 260.11328125 -97.7431640625 64.8544921875 54.951171875 c 4
EndSplineSet
Validated: 524321
EndChar

StartChar: uni0418
Encoding: 105 1048 156
Width: 560
VWidth: 0
Flags: HWO
LayerCount: 3
Fore
SplineSet
51.83203125 55.6513671875 m 5
 49.025390625 265.93359375 49.9345703125 502.134765625 51.3173828125 651.364257812 c 4
 54.8935546875 714.826171875 125.99609375 706.423828125 126.875 653.5 c 4
 133.514648438 453.444335938 131.068359375 306.5859375 131.545898438 219.998046875 c 5
 135.96484375 153.05859375 163.551757812 160.317382812 191.280273438 231.166992188 c 4
 248.651367188 380.76171875 250.459960938 399.459960938 339.530273438 611.515625 c 4
 369.653320312 678.65234375 488.861328125 764.794921875 507.791992188 629.544921875 c 5
 512.498046875 384.434570312 508.293945312 264.138671875 508.115234375 54.5869140625 c 5
 501.495117188 -31.0615234375 426.456054688 -0.6875 429.249023438 53.37109375 c 4
 432.856445312 259.688476562 427.64453125 391.48828125 429.002929688 552.745117188 c 4
 426.557617188 580.205078125 409.87109375 565.359375 404.555664062 555.35546875 c 4
 330.748046875 410.541992188 299.086914062 250.962890625 209.124023438 82.02734375 c 5
 155.49609375 -5.853515625 63.099609375 -31.33984375 51.83203125 55.6513671875 c 5
EndSplineSet
EndChar
